<?xml version="1.0" standalone="no"?>
<!DOCTYPE svg PUBLIC "-//W3C//DTD SVG 1.1//EN" "http://www.w3.org/Graphics/SVG/1.1/DTD/svg11.dtd" >
<svg>
<metadata>
Created by FontForge 20090622 at Fri Feb 22 16:51:01 2019
 By ffonts
Copyright (c) 2011-2015, Julieta Ulanovsky (julieta.ulanovsky@gmail.com)
</metadata>
<defs>
<font id="ArgentumSans-BlackItalic" horiz-adv-x="0" >
  <font-face 
    font-family="Argentum Sans Black"
    font-weight="900"
    font-style="italic"
    font-stretch="normal"
    units-per-em="1000"
    panose-1="0 0 10 0 0 0 0 0 0 0"
    ascent="800"
    descent="-200"
    x-height="547"
    cap-height="701"
    bbox="-1052 -496 1735 1177"
    underline-thickness="50"
    underline-position="-50"
    slope="-11.3"
    unicode-range="U+0020-U+FB02"
  />
<missing-glyph horiz-adv-x="600" 
 />
    <glyph glyph-name="fi" unicode="fi" horiz-adv-x="759" 
d="M437 562c-14 -11 -23 -24 -26 -39l-1 -6h105l-28 -142h-106l-75 -375h-224l75 375h-75l28 142h75l12 58c11 56 39 100 83 131c43 31 98 46 163 46c47 0 93 -8 138 -23l-53 -160c-8 3 -16 5 -24 7c-8 1 -15 2 -20 2c-17 0 -33 -5 -47 -16zM799 547l-109 -547h-225l109 547
h225zM809 792c17 -17 25 -40 25 -68c0 -25 -6 -48 -18 -69c-13 -21 -30 -37 -51 -48c-21 -12 -45 -18 -70 -18c-29 0 -51 9 -68 26s-26 39 -26 67c0 25 6 48 19 69c12 21 29 37 50 49c21 11 45 17 70 17c29 0 52 -8 69 -25z" />
    <glyph glyph-name="fl" unicode="fl" horiz-adv-x="769" 
d="M381 375l-75 -375h-224l75 375h-75l28 142h75l12 58c11 55 39 99 82 130s98 47 164 47c39 0 77 -5 114 -15l-33 -168c-9 4 -16 7 -21 8s-12 1 -19 1c-17 0 -33 -5 -47 -16c-15 -11 -23 -24 -26 -39l-1 -6h105l-28 -142h-106zM618 742h225l-148 -742h-225z" />
    <glyph glyph-name=".notdef" horiz-adv-x="600" 
 />
    <glyph glyph-name="NULL" horiz-adv-x="600" 
 />
    <glyph glyph-name="nonmarkingreturn" horiz-adv-x="600" 
 />
    <glyph glyph-name="space" unicode=" " horiz-adv-x="209" 
 />
    <glyph glyph-name="A" unicode="A" horiz-adv-x="799" 
d="M440 0l-18 99h-263l-53 -99h-236l412 701h238l169 -701h-249zM247 265h146l-37 204z" />
    <glyph glyph-name="Aacute" unicode="&#xc1;" horiz-adv-x="799" 
d="M440 0l-18 99h-263l-53 -99h-236l412 701h238l169 -701h-249zM247 265h146l-37 204zM421 934l169 -60l-162 -129l-142 10z" />
    <glyph glyph-name="Abreve" unicode="&#x102;" horiz-adv-x="799" 
d="M440 0l-18 99h-263l-53 -99h-236l412 701h238l169 -701h-249zM247 265h146l-37 204zM391 885c7 -9 17 -14 30 -14s25 5 36 14s18 21 23 36h135c-13 -53 -40 -96 -79 -127s-86 -47 -139 -47c-47 0 -85 13 -112 38s-41 60 -41 103c0 10 1 21 3 33h135c-1 -15 2 -27 9 -36z
" />
    <glyph glyph-name="uni1EAE" unicode="&#x1eae;" horiz-adv-x="799" 
d="M440 0l-18 99h-263l-53 -99h-236l412 701h238l169 -701h-249zM247 265h146l-37 204zM383 868c9 -9 22 -13 39 -13s31 4 44 13c13 8 21 19 25 32h125c-12 -48 -37 -86 -76 -115s-86 -43 -140 -43c-49 0 -87 12 -114 35c-28 23 -42 55 -42 96c0 6 1 15 2 27h125
c-1 -13 3 -24 12 -32zM477 1084l139 -81l-174 -93l-121 31z" />
    <glyph glyph-name="uni1EB6" unicode="&#x1eb6;" horiz-adv-x="799" 
d="M440 0l-18 99h-263l-53 -99h-236l412 701h238l169 -701h-249zM247 265h146l-37 204zM324 -90c17 -17 25 -40 25 -68c0 -25 -6 -48 -18 -69c-13 -21 -30 -37 -51 -48c-21 -12 -45 -18 -70 -18c-29 0 -51 9 -68 26s-26 39 -26 67c0 25 6 48 19 69c12 21 29 37 50 49
c21 11 45 17 70 17c29 0 52 -8 69 -25zM373 885c7 -9 17 -14 30 -14s25 5 36 14s18 21 23 36h135c-13 -53 -40 -96 -79 -127s-86 -47 -139 -47c-47 0 -85 13 -112 38s-41 60 -41 103c0 10 1 21 3 33h135c-1 -15 2 -27 9 -36z" />
    <glyph glyph-name="uni1EB0" unicode="&#x1eb0;" horiz-adv-x="799" 
d="M440 0l-18 99h-263l-53 -99h-236l412 701h238l169 -701h-249zM247 265h146l-37 204zM383 868c9 -9 22 -13 39 -13s31 4 44 13c13 8 21 19 25 32h125c-12 -48 -37 -86 -76 -115s-86 -43 -140 -43c-49 0 -87 12 -114 35c-28 23 -42 55 -42 96c0 6 1 15 2 27h125
c-1 -13 3 -24 12 -32zM388 1084l156 -143l-121 -31l-174 93z" />
    <glyph glyph-name="uni1EB2" unicode="&#x1eb2;" horiz-adv-x="799" 
d="M440 0l-18 99h-263l-53 -99h-236l412 701h238l169 -701h-249zM247 265h146l-37 204zM384 868c9 -9 22 -13 39 -13s31 4 44 13c13 8 21 19 25 32h125c-12 -48 -37 -86 -76 -115s-86 -43 -140 -43c-49 0 -87 12 -114 35c-28 23 -42 55 -42 96c0 6 1 15 2 27h125
c-1 -13 3 -24 12 -32zM536 1073c14 -13 21 -28 21 -46c0 -22 -8 -42 -23 -59c-15 -18 -41 -37 -78 -58l-77 31c16 7 28 14 36 21c7 6 11 13 11 20c0 9 -6 13 -18 13c-13 0 -24 -4 -34 -11l-35 70c47 25 90 38 130 38c31 0 53 -6 67 -19z" />
    <glyph glyph-name="uni1EB4" unicode="&#x1eb4;" horiz-adv-x="799" 
d="M440 0l-18 99h-263l-53 -99h-236l412 701h238l169 -701h-249zM247 265h146l-37 204zM376 868c9 -9 22 -13 39 -13s31 4 44 13c13 8 21 19 25 32h125c-12 -48 -37 -86 -76 -115s-86 -43 -140 -43c-49 0 -87 12 -114 35c-28 23 -42 55 -42 96c0 6 1 15 2 27h125
c-1 -13 3 -24 12 -32zM590 943c-21 -23 -51 -35 -88 -35c-18 0 -34 2 -49 7c-15 4 -32 10 -51 18c-21 9 -36 13 -44 13c-11 0 -20 -3 -25 -8c-5 -6 -9 -15 -12 -28h-100c10 51 26 88 47 112s50 36 87 36c19 0 35 -2 50 -6c14 -5 31 -11 51 -19l24 -9c7 -3 14 -4 19 -4
c11 0 19 3 25 9c5 5 10 14 13 26h99c-10 -51 -25 -89 -46 -112z" />
    <glyph glyph-name="Acircumflex" unicode="&#xc2;" horiz-adv-x="799" 
d="M440 0l-18 99h-263l-53 -99h-236l412 701h238l169 -701h-249zM247 265h146l-37 204zM603 752h-140l-51 72l-79 -72h-140l142 162h188z" />
    <glyph glyph-name="uni1EA4" unicode="&#x1ea4;" horiz-adv-x="799" 
d="M440 0l-18 99h-263l-53 -99h-236l412 701h238l169 -701h-249zM247 265h146l-37 204zM623 752h-161l-51 71l-78 -71h-160l148 138h201zM475 1098l139 -81l-174 -93l-121 31z" />
    <glyph glyph-name="uni1EAC" unicode="&#x1eac;" horiz-adv-x="799" 
d="M440 0l-18 99h-263l-53 -99h-236l412 701h238l169 -701h-249zM247 265h146l-37 204zM324 -90c17 -17 25 -40 25 -68c0 -25 -6 -48 -18 -69c-13 -21 -30 -37 -51 -48c-21 -12 -45 -18 -70 -18c-29 0 -51 9 -68 26s-26 39 -26 67c0 25 6 48 19 69c12 21 29 37 50 49
c21 11 45 17 70 17c29 0 52 -8 69 -25zM585 752h-140l-51 72l-79 -72h-140l142 162h188z" />
    <glyph glyph-name="uni1EA6" unicode="&#x1ea6;" horiz-adv-x="799" 
d="M440 0l-18 99h-263l-53 -99h-236l412 701h238l169 -701h-249zM247 265h146l-37 204zM628 752h-161l-51 71l-78 -71h-160l148 138h201zM391 1098l156 -143l-121 -31l-174 93z" />
    <glyph glyph-name="uni1EA8" unicode="&#x1ea8;" horiz-adv-x="799" 
d="M440 0l-18 99h-263l-53 -99h-236l412 701h238l169 -701h-249zM247 265h146l-37 204zM641 752h-161l-51 71l-78 -71h-160l148 138h201zM551 1087c14 -13 21 -28 21 -46c0 -22 -8 -42 -23 -59c-15 -18 -41 -37 -78 -58l-77 31c16 7 28 14 36 21c7 6 11 13 11 20
c0 9 -6 13 -18 13c-13 0 -24 -4 -34 -11l-35 70c47 25 90 38 130 38c31 0 53 -6 67 -19z" />
    <glyph glyph-name="uni1EAA" unicode="&#x1eaa;" horiz-adv-x="799" 
d="M440 0l-18 99h-263l-53 -99h-236l412 701h238l169 -701h-249zM247 265h146l-37 204zM642 752h-161l-51 71l-78 -71h-160l148 138h201zM614 957c-21 -23 -51 -35 -88 -35c-18 0 -34 2 -49 7c-15 4 -32 10 -51 18c-21 9 -36 13 -44 13c-11 0 -20 -3 -25 -8
c-5 -6 -9 -15 -12 -28h-100c10 51 26 88 47 112s50 36 87 36c19 0 35 -2 50 -6c14 -5 31 -11 51 -19l24 -9c7 -3 14 -4 19 -4c11 0 19 3 25 9c5 5 10 14 13 26h99c-10 -51 -25 -89 -46 -112z" />
    <glyph glyph-name="uni0200" unicode="&#x200;" horiz-adv-x="799" 
d="M440 0l-18 99h-263l-53 -99h-236l412 701h238l169 -701h-249zM247 265h146l-37 204zM339 931l48 -179l-157 -10l-63 136zM560 931l48 -179l-157 -10l-63 136z" />
    <glyph glyph-name="Adieresis" unicode="&#xc4;" horiz-adv-x="799" 
d="M440 0l-18 99h-263l-53 -99h-236l412 701h238l169 -701h-249zM247 265h146l-37 204zM384 909c13 -13 20 -31 20 -53c0 -29 -10 -53 -31 -73c-21 -21 -47 -31 -76 -31c-22 0 -40 7 -53 20s-20 31 -20 52c0 29 11 54 32 75c21 20 46 30 75 30c22 0 40 -7 53 -20zM586 909
c13 -13 20 -31 20 -53c0 -29 -10 -53 -31 -73c-21 -21 -47 -31 -76 -31c-22 0 -40 7 -53 20s-20 31 -20 52c0 29 11 54 32 75c21 20 46 30 75 30c22 0 40 -7 53 -20z" />
    <glyph glyph-name="uni1EA0" unicode="&#x1ea0;" horiz-adv-x="799" 
d="M440 0l-18 99h-263l-53 -99h-236l412 701h238l169 -701h-249zM247 265h146l-37 204zM324 -90c17 -17 25 -40 25 -68c0 -25 -6 -48 -18 -69c-13 -21 -30 -37 -51 -48c-21 -12 -45 -18 -70 -18c-29 0 -51 9 -68 26s-26 39 -26 67c0 25 6 48 19 69c12 21 29 37 50 49
c21 11 45 17 70 17c29 0 52 -8 69 -25z" />
    <glyph glyph-name="Agrave" unicode="&#xc0;" horiz-adv-x="799" 
d="M440 0l-18 99h-263l-53 -99h-236l412 701h238l169 -701h-249zM247 265h146l-37 204zM415 934l111 -179l-143 -10l-138 129z" />
    <glyph glyph-name="uni1EA2" unicode="&#x1ea2;" horiz-adv-x="799" 
d="M440 0l-18 99h-263l-53 -99h-236l412 701h238l169 -701h-249zM247 265h146l-37 204zM533 968c17 -15 26 -36 26 -61c0 -56 -42 -111 -125 -166l-85 37c19 14 35 28 46 42s16 26 16 37c0 7 -2 12 -6 16s-10 6 -17 6c-14 0 -28 -5 -42 -15l-38 83c53 29 102 44 148 44
c34 0 60 -8 77 -23z" />
    <glyph glyph-name="uni0202" unicode="&#x202;" horiz-adv-x="799" 
d="M440 0l-18 99h-263l-53 -99h-236l412 701h238l169 -701h-249zM247 265h146l-37 204zM438 789c-7 9 -18 13 -31 13s-25 -4 -36 -13s-18 -22 -23 -37h-135c13 53 40 96 79 127s86 47 139 47c47 0 85 -13 112 -38s41 -60 41 -103c0 -10 -1 -21 -3 -33h-135c1 15 -1 28 -8 37
z" />
    <glyph glyph-name="Amacron" unicode="&#x100;" horiz-adv-x="799" 
d="M440 0l-18 99h-263l-53 -99h-236l412 701h238l169 -701h-249zM247 265h146l-37 204zM243 880h360l-25 -128h-360z" />
    <glyph glyph-name="Aogonek" unicode="&#x104;" horiz-adv-x="799" 
d="M542 -49c-16 -16 -24 -32 -24 -49c0 -12 5 -18 16 -18c7 0 16 3 27 8l8 -111c-42 -17 -80 -25 -113 -25c-32 0 -56 9 -71 26c-16 17 -24 39 -24 67c0 51 26 101 79 152l-18 98h-263l-53 -99h-236l412 701h238l169 -701h-84c-27 -17 -48 -33 -63 -49zM247 265h146l-37 204
z" />
    <glyph glyph-name="Aring" unicode="&#xc5;" horiz-adv-x="799" 
d="M440 0l-18 99h-263l-53 -99h-236l412 701h238l169 -701h-249zM247 265h146l-37 204zM512 950c21 -21 31 -47 31 -78c0 -25 -6 -48 -19 -69s-31 -38 -52 -51c-22 -13 -45 -19 -69 -19c-32 0 -58 10 -79 31s-31 47 -31 78c0 25 7 48 20 69s30 38 52 51c21 13 44 19 68 19
c32 0 58 -10 79 -31zM392 883c-9 -9 -13 -19 -13 -32c0 -9 3 -17 10 -23c6 -7 14 -10 24 -10c12 0 22 4 31 13s13 19 13 32c0 9 -3 17 -9 24c-7 6 -15 9 -25 9c-12 0 -22 -4 -31 -13z" />
    <glyph glyph-name="Aringacute" unicode="&#x1fa;" horiz-adv-x="799" 
d="M440 0l-18 99h-263l-53 -99h-236l412 701h238l169 -701h-249zM247 265h146l-37 204zM510 950c21 -21 31 -47 31 -78c0 -25 -6 -48 -19 -69s-31 -38 -52 -51c-22 -13 -45 -19 -69 -19c-32 0 -58 10 -79 31s-31 47 -31 78c0 25 7 48 20 69s30 38 52 51c21 13 44 19 68 19
c32 0 58 -10 79 -31zM390 883c-9 -9 -13 -19 -13 -32c0 -9 3 -17 10 -23c6 -7 14 -10 24 -10c12 0 22 4 31 13s13 19 13 32c0 9 -3 17 -9 24c-7 6 -15 9 -25 9c-12 0 -22 -4 -31 -13zM489 1177l139 -81l-174 -93l-121 31z" />
    <glyph glyph-name="Atilde" unicode="&#xc3;" horiz-adv-x="799" 
d="M440 0l-18 99h-263l-53 -99h-236l412 701h238l169 -701h-249zM247 265h146l-37 204zM582 792c-23 -28 -53 -42 -90 -42c-17 0 -31 2 -44 7s-27 11 -43 20c-3 1 -8 4 -16 8c-9 4 -16 6 -22 6c-19 0 -31 -13 -37 -39h-117c12 61 30 106 53 135s53 43 90 43
c16 0 31 -2 44 -7s28 -11 43 -20c17 -9 29 -14 37 -14c10 0 18 3 24 9c5 6 10 16 13 29h116c-12 -62 -29 -107 -51 -135z" />
    <glyph glyph-name="AE" unicode="&#xc6;" horiz-adv-x="1150" 
d="M727 525l-17 -86h328l-35 -176h-328l-18 -87h370l-35 -176h-602l24 122h-216l-85 -122h-243l530 701h723l-35 -176h-361zM448 288l47 237h-17l-165 -237h135z" />
    <glyph glyph-name="AEacute" unicode="&#x1fc;" horiz-adv-x="1150" 
d="M727 525l-17 -86h328l-35 -176h-328l-18 -87h370l-35 -176h-602l24 122h-216l-85 -122h-243l530 701h723l-35 -176h-361zM448 288l47 237h-17l-165 -237h135zM714 934l169 -60l-162 -129l-142 10z" />
    <glyph glyph-name="B" unicode="B" horiz-adv-x="725" 
d="M659 323c19 -27 28 -58 28 -94c0 -45 -14 -85 -41 -120c-28 -35 -67 -61 -116 -80s-105 -29 -168 -29h-372l140 701h355c76 0 136 -14 180 -41c44 -28 66 -65 66 -112c0 -39 -14 -75 -42 -107s-64 -54 -109 -67c33 -8 60 -25 79 -51zM464 448c12 11 18 26 18 43
c0 13 -4 23 -11 30c-8 7 -19 10 -33 10h-111l-20 -100h111c19 0 34 6 46 17zM426 188c15 12 23 27 23 46c0 13 -5 24 -16 32c-11 7 -27 11 -46 11h-110l-21 -107h110c24 0 44 6 60 18z" />
    <glyph glyph-name="C" unicode="C" horiz-adv-x="714" 
d="M642 681c51 -24 93 -56 126 -95l-151 -159c-18 29 -40 52 -67 70c-27 17 -55 26 -82 26c-30 0 -57 -8 -82 -24s-44 -38 -59 -66c-15 -29 -22 -60 -22 -95c0 -44 12 -80 36 -108c24 -29 55 -43 93 -43c25 0 53 8 84 23s59 34 84 59l119 -143c-43 -43 -94 -78 -151 -103
c-58 -26 -114 -39 -168 -39c-66 0 -124 14 -175 43s-91 68 -119 119s-42 108 -42 172c0 75 19 142 56 203s87 108 151 143s135 52 212 52c53 0 106 -12 157 -35z" />
    <glyph glyph-name="Cacute" unicode="&#x106;" horiz-adv-x="714" 
d="M642 681c51 -24 93 -56 126 -95l-151 -159c-18 29 -40 52 -67 70c-27 17 -55 26 -82 26c-30 0 -57 -8 -82 -24s-44 -38 -59 -66c-15 -29 -22 -60 -22 -95c0 -44 12 -80 36 -108c24 -29 55 -43 93 -43c25 0 53 8 84 23s59 34 84 59l119 -143c-43 -43 -94 -78 -151 -103
c-58 -26 -114 -39 -168 -39c-66 0 -124 14 -175 43s-91 68 -119 119s-42 108 -42 172c0 75 19 142 56 203s87 108 151 143s135 52 212 52c53 0 106 -12 157 -35zM517 934l169 -60l-162 -129l-142 10z" />
    <glyph glyph-name="Ccaron" unicode="&#x10c;" horiz-adv-x="714" 
d="M642 681c51 -24 93 -56 126 -95l-151 -159c-18 29 -40 52 -67 70c-27 17 -55 26 -82 26c-30 0 -57 -8 -82 -24s-44 -38 -59 -66c-15 -29 -22 -60 -22 -95c0 -44 12 -80 36 -108c24 -29 55 -43 93 -43c25 0 53 8 84 23s59 34 84 59l119 -143c-43 -43 -94 -78 -151 -103
c-58 -26 -114 -39 -168 -39c-66 0 -124 14 -175 43s-91 68 -119 119s-42 108 -42 172c0 75 19 142 56 203s87 108 151 143s135 52 212 52c53 0 106 -12 157 -35zM590 914h140l-142 -162h-188l-80 162h140l51 -71z" />
    <glyph glyph-name="Ccedilla" unicode="&#xc7;" horiz-adv-x="714" 
d="M589 32c-50 -25 -100 -41 -149 -46l-23 -40c24 -7 42 -16 54 -29c11 -13 17 -29 17 -46c0 -38 -15 -67 -46 -86s-69 -29 -114 -29c-40 0 -79 7 -117 21l49 93c15 -6 31 -9 47 -9c13 0 25 2 34 7s13 11 13 18s-5 13 -16 17s-23 6 -38 6h-20l43 83c-52 11 -97 31 -136 62
c-39 30 -68 68 -89 113s-32 96 -32 151c0 75 19 142 56 203s87 108 151 143s135 52 212 52c53 0 106 -12 157 -35c51 -24 93 -56 126 -95l-151 -159c-18 29 -40 52 -67 70c-27 17 -55 26 -82 26c-30 0 -57 -8 -82 -24s-44 -38 -59 -66c-15 -29 -22 -60 -22 -95
c0 -44 12 -80 36 -108c24 -29 55 -43 93 -43c25 0 53 8 84 23s59 34 84 59l119 -143c-38 -38 -82 -69 -132 -94z" />
    <glyph glyph-name="uni1E08" unicode="&#x1e08;" horiz-adv-x="714" 
d="M700 874l-162 -129l-142 10l135 179zM589 32c-50 -25 -100 -41 -149 -46l-23 -40c24 -7 42 -16 54 -29c11 -13 17 -29 17 -46c0 -38 -15 -67 -46 -86s-69 -29 -114 -29c-40 0 -79 7 -117 21l49 93c15 -6 31 -9 47 -9c13 0 25 2 34 7s13 11 13 18s-5 13 -16 17
s-23 6 -38 6h-20l43 83c-52 11 -97 31 -136 62c-39 30 -68 68 -89 113s-32 96 -32 151c0 75 19 142 56 203s87 108 151 143s135 52 212 52c53 0 106 -12 157 -35c51 -24 93 -56 126 -95l-151 -159c-18 29 -40 52 -67 70c-27 17 -55 26 -82 26c-30 0 -57 -8 -82 -24
s-44 -38 -59 -66c-15 -29 -22 -60 -22 -95c0 -44 12 -80 36 -108c24 -29 55 -43 93 -43c25 0 53 8 84 23s59 34 84 59l119 -143c-38 -38 -82 -69 -132 -94z" />
    <glyph glyph-name="Ccircumflex" unicode="&#x108;" horiz-adv-x="714" 
d="M642 681c51 -24 93 -56 126 -95l-151 -159c-18 29 -40 52 -67 70c-27 17 -55 26 -82 26c-30 0 -57 -8 -82 -24s-44 -38 -59 -66c-15 -29 -22 -60 -22 -95c0 -44 12 -80 36 -108c24 -29 55 -43 93 -43c25 0 53 8 84 23s59 34 84 59l119 -143c-43 -43 -94 -78 -151 -103
c-58 -26 -114 -39 -168 -39c-66 0 -124 14 -175 43s-91 68 -119 119s-42 108 -42 172c0 75 19 142 56 203s87 108 151 143s135 52 212 52c53 0 106 -12 157 -35zM699 752h-140l-51 72l-79 -72h-140l142 162h188z" />
    <glyph glyph-name="Cdotaccent" unicode="&#x10a;" horiz-adv-x="714" 
d="M642 681c51 -24 93 -56 126 -95l-151 -159c-18 29 -40 52 -67 70c-27 17 -55 26 -82 26c-30 0 -57 -8 -82 -24s-44 -38 -59 -66c-15 -29 -22 -60 -22 -95c0 -44 12 -80 36 -108c24 -29 55 -43 93 -43c25 0 53 8 84 23s59 34 84 59l119 -143c-43 -43 -94 -78 -151 -103
c-58 -26 -114 -39 -168 -39c-66 0 -124 14 -175 43s-91 68 -119 119s-42 108 -42 172c0 75 19 142 56 203s87 108 151 143s135 52 212 52c53 0 106 -12 157 -35zM608 955c17 -17 25 -40 25 -68c0 -25 -6 -48 -18 -69c-13 -21 -30 -37 -51 -48c-21 -12 -45 -18 -70 -18
c-29 0 -51 9 -68 26s-26 39 -26 67c0 25 6 48 19 69c12 21 29 37 50 49c21 11 45 17 70 17c29 0 52 -8 69 -25z" />
    <glyph glyph-name="D" unicode="D" horiz-adv-x="761" 
d="M611 663c51 -26 90 -63 116 -110c25 -48 36 -104 33 -167c-4 -77 -25 -144 -64 -202c-39 -59 -92 -104 -158 -136s-141 -48 -225 -48h-321l139 701h297c71 0 132 -13 183 -38zM488 484c-23 25 -54 37 -93 37h-68l-67 -341h95c31 0 60 9 85 26s45 41 60 72
c14 31 21 66 21 105c0 42 -11 76 -33 101z" />
    <glyph glyph-name="DZcaron" unicode="&#x1c4;" horiz-adv-x="1456" 
d="M611 663c51 -26 90 -63 116 -110c25 -48 36 -104 33 -167c-4 -77 -25 -144 -64 -202c-39 -59 -92 -104 -158 -136s-141 -48 -225 -48h-321l139 701h297c71 0 132 -13 183 -38zM488 484c-23 25 -54 37 -93 37h-68l-67 -341h95c31 0 60 9 85 26s45 41 60 72
c14 31 21 66 21 105c0 42 -11 76 -33 101zM1486 701l-24 -145l-389 -378h334l-30 -178h-643l24 145l391 378h-316l29 178h624zM1286 914h140l-142 -162h-188l-80 162h140l51 -71z" />
    <glyph glyph-name="Eth" unicode="&#xd0;" horiz-adv-x="761" 
d="M603 663c51 -26 90 -63 116 -110c25 -48 36 -104 33 -167c-4 -77 -25 -144 -64 -202c-39 -59 -92 -104 -158 -136s-141 -48 -225 -48h-321l60 302h-68l19 98h68l60 301h297c71 0 132 -13 183 -38zM480 484c-23 25 -54 37 -93 37h-68l-24 -122h117l-19 -97h-117l-24 -122
h95c31 0 60 9 85 26s45 41 60 72c14 31 21 66 21 105c0 42 -11 76 -33 101z" />
    <glyph glyph-name="Dcaron" unicode="&#x10e;" horiz-adv-x="761" 
d="M611 663c51 -26 90 -63 116 -110c25 -48 36 -104 33 -167c-4 -77 -25 -144 -64 -202c-39 -59 -92 -104 -158 -136s-141 -48 -225 -48h-321l139 701h297c71 0 132 -13 183 -38zM488 484c-23 25 -54 37 -93 37h-68l-67 -341h95c31 0 60 9 85 26s45 41 60 72
c14 31 21 66 21 105c0 42 -11 76 -33 101zM528 914h140l-142 -162h-188l-80 162h140l51 -71z" />
    <glyph glyph-name="Dcroat" unicode="&#x110;" horiz-adv-x="761" 
d="M603 663c51 -26 90 -63 116 -110c25 -48 36 -104 33 -167c-4 -77 -25 -144 -64 -202c-39 -59 -92 -104 -158 -136s-141 -48 -225 -48h-321l60 302h-68l19 98h68l60 301h297c71 0 132 -13 183 -38zM480 484c-23 25 -54 37 -93 37h-68l-24 -122h117l-19 -97h-117l-24 -122
h95c31 0 60 9 85 26s45 41 60 72c14 31 21 66 21 105c0 42 -11 76 -33 101z" />
    <glyph glyph-name="Ddotbelow" unicode="&#x1e0c;" horiz-adv-x="761" 
d="M611 663c51 -26 90 -63 116 -110c25 -48 36 -104 33 -167c-4 -77 -25 -144 -64 -202c-39 -59 -92 -104 -158 -136s-141 -48 -225 -48h-321l139 701h297c71 0 132 -13 183 -38zM488 484c-23 25 -54 37 -93 37h-68l-67 -341h95c31 0 60 9 85 26s45 41 60 72
c14 31 21 66 21 105c0 42 -11 76 -33 101zM349 -90c17 -17 25 -40 25 -68c0 -25 -6 -48 -18 -69c-13 -21 -30 -37 -51 -48c-21 -12 -45 -18 -70 -18c-29 0 -51 9 -68 26s-26 39 -26 67c0 25 6 48 19 69c12 21 29 37 50 49c21 11 45 17 70 17c29 0 52 -8 69 -25z" />
    <glyph glyph-name="uni1E0E" unicode="&#x1e0e;" horiz-adv-x="761" 
d="M611 663c51 -26 90 -63 116 -110c25 -48 36 -104 33 -167c-4 -77 -25 -144 -64 -202c-39 -59 -92 -104 -158 -136s-141 -48 -225 -48h-321l139 701h297c71 0 132 -13 183 -38zM488 484c-23 25 -54 37 -93 37h-68l-67 -341h95c31 0 60 9 85 26s45 41 60 72
c14 31 21 66 21 105c0 42 -11 76 -33 101zM128 -75h300l-25 -128h-300z" />
    <glyph glyph-name="Dzcaron" unicode="&#x1c5;" horiz-adv-x="1332" 
d="M611 663c51 -26 90 -63 116 -110c25 -48 36 -104 33 -167c-4 -77 -25 -144 -64 -202c-39 -59 -92 -104 -158 -136s-141 -48 -225 -48h-321l139 701h297c71 0 132 -13 183 -38zM488 484c-23 25 -54 37 -93 37h-68l-67 -341h95c31 0 60 9 85 26s45 41 60 72
c14 31 21 66 21 105c0 42 -11 76 -33 101zM1351 547l-24 -131l-277 -248h236l-34 -168h-522l24 131l278 248h-216l33 168h502zM1205 769h140l-142 -162h-188l-80 162h140l51 -71z" />
    <glyph glyph-name="E" unicode="E" horiz-adv-x="690" 
d="M688 525h-361l-18 -86h329l-35 -176h-329l-18 -87h371l-35 -176h-602l140 701h593z" />
    <glyph glyph-name="Eacute" unicode="&#xc9;" horiz-adv-x="690" 
d="M688 525h-361l-18 -86h329l-35 -176h-329l-18 -87h371l-35 -176h-602l140 701h593zM460 934l169 -60l-162 -129l-142 10z" />
    <glyph glyph-name="Ebreve" unicode="&#x114;" horiz-adv-x="690" 
d="M688 525h-361l-18 -86h329l-35 -176h-329l-18 -87h371l-35 -176h-602l140 701h593zM430 885c7 -9 17 -14 30 -14s25 5 36 14s18 21 23 36h135c-13 -53 -40 -96 -79 -127s-86 -47 -139 -47c-47 0 -85 13 -112 38s-41 60 -41 103c0 10 1 21 3 33h135c-1 -15 2 -27 9 -36z
" />
    <glyph glyph-name="Ecaron" unicode="&#x11a;" horiz-adv-x="690" 
d="M688 525h-361l-18 -86h329l-35 -176h-329l-18 -87h371l-35 -176h-602l140 701h593zM533 914h140l-142 -162h-188l-80 162h140l51 -71z" />
    <glyph glyph-name="uni1E1C" unicode="&#x1e1c;" horiz-adv-x="690" 
d="M315 785c-27 25 -41 60 -41 103c0 10 1 21 3 33h135c-1 -15 2 -27 9 -36s17 -14 30 -14s25 5 36 14s18 21 23 36h135c-13 -53 -40 -96 -79 -127s-86 -47 -139 -47c-47 0 -85 13 -112 38zM327 525l-18 -86h329l-35 -176h-329l-18 -87h371l-35 -176h-224l-31 -54
c24 -7 42 -16 54 -29c11 -13 17 -29 17 -46c0 -38 -15 -67 -46 -86s-69 -29 -114 -29c-40 0 -79 7 -117 21l49 93c15 -6 31 -9 47 -9c13 0 25 2 34 7s13 11 13 18s-5 13 -16 17s-23 6 -38 6h-20l47 91h-257l140 701h593l-35 -176h-361z" />
    <glyph glyph-name="Ecircumflex" unicode="&#xca;" horiz-adv-x="690" 
d="M688 525h-361l-18 -86h329l-35 -176h-329l-18 -87h371l-35 -176h-602l140 701h593zM642 752h-140l-51 72l-79 -72h-140l142 162h188z" />
    <glyph glyph-name="uni1EBE" unicode="&#x1ebe;" horiz-adv-x="690" 
d="M688 525h-361l-18 -86h329l-35 -176h-329l-18 -87h371l-35 -176h-602l140 701h593zM662 752h-161l-51 71l-78 -71h-160l148 138h201zM514 1098l139 -81l-174 -93l-121 31z" />
    <glyph glyph-name="uni1EC6" unicode="&#x1ec6;" horiz-adv-x="690" 
d="M688 525h-361l-18 -86h329l-35 -176h-329l-18 -87h371l-35 -176h-602l140 701h593zM362 -90c17 -17 25 -40 25 -68c0 -25 -6 -48 -18 -69c-13 -21 -30 -37 -51 -48c-21 -12 -45 -18 -70 -18c-29 0 -51 9 -68 26s-26 39 -26 67c0 25 6 48 19 69c12 21 29 37 50 49
c21 11 45 17 70 17c29 0 52 -8 69 -25zM623 752h-140l-51 72l-79 -72h-140l142 162h188z" />
    <glyph glyph-name="uni1EC0" unicode="&#x1ec0;" horiz-adv-x="690" 
d="M688 525h-361l-18 -86h329l-35 -176h-329l-18 -87h371l-35 -176h-602l140 701h593zM667 752h-161l-51 71l-78 -71h-160l148 138h201zM430 1098l156 -143l-121 -31l-174 93z" />
    <glyph glyph-name="uni1EC2" unicode="&#x1ec2;" horiz-adv-x="690" 
d="M688 525h-361l-18 -86h329l-35 -176h-329l-18 -87h371l-35 -176h-602l140 701h593zM680 752h-161l-51 71l-78 -71h-160l148 138h201zM590 1087c14 -13 21 -28 21 -46c0 -22 -8 -42 -23 -59c-15 -18 -41 -37 -78 -58l-77 31c16 7 28 14 36 21c7 6 11 13 11 20
c0 9 -6 13 -18 13c-13 0 -24 -4 -34 -11l-35 70c47 25 90 38 130 38c31 0 53 -6 67 -19z" />
    <glyph glyph-name="uni1EC4" unicode="&#x1ec4;" horiz-adv-x="690" 
d="M688 525h-361l-18 -86h329l-35 -176h-329l-18 -87h371l-35 -176h-602l140 701h593zM681 752h-161l-51 71l-78 -71h-160l148 138h201zM662 957c-21 -23 -51 -35 -88 -35c-18 0 -34 2 -49 7c-15 4 -32 10 -51 18c-21 9 -36 13 -44 13c-11 0 -20 -3 -25 -8
c-5 -6 -9 -15 -12 -28h-100c10 51 26 88 47 112s50 36 87 36c19 0 35 -2 50 -6c14 -5 31 -11 51 -19l24 -9c7 -3 14 -4 19 -4c11 0 19 3 25 9c5 5 10 14 13 26h99c-10 -51 -25 -89 -46 -112z" />
    <glyph glyph-name="uni0204" unicode="&#x204;" horiz-adv-x="690" 
d="M688 525h-361l-18 -86h329l-35 -176h-329l-18 -87h371l-35 -176h-602l140 701h593zM378 931l48 -179l-157 -10l-63 136zM599 931l48 -179l-157 -10l-63 136z" />
    <glyph glyph-name="Edieresis" unicode="&#xcb;" horiz-adv-x="690" 
d="M688 525h-361l-18 -86h329l-35 -176h-329l-18 -87h371l-35 -176h-602l140 701h593zM423 909c13 -13 20 -31 20 -53c0 -29 -10 -53 -31 -73c-21 -21 -47 -31 -76 -31c-22 0 -40 7 -53 20s-20 31 -20 52c0 29 11 54 32 75c21 20 46 30 75 30c22 0 40 -7 53 -20zM625 909
c13 -13 20 -31 20 -53c0 -29 -10 -53 -31 -73c-21 -21 -47 -31 -76 -31c-22 0 -40 7 -53 20s-20 31 -20 52c0 29 11 54 32 75c21 20 46 30 75 30c22 0 40 -7 53 -20z" />
    <glyph glyph-name="Edotaccent" unicode="&#x116;" horiz-adv-x="690" 
d="M688 525h-361l-18 -86h329l-35 -176h-329l-18 -87h371l-35 -176h-602l140 701h593zM551 955c17 -17 25 -40 25 -68c0 -25 -6 -48 -18 -69c-13 -21 -30 -37 -51 -48c-21 -12 -45 -18 -70 -18c-29 0 -51 9 -68 26s-26 39 -26 67c0 25 6 48 19 69c12 21 29 37 50 49
c21 11 45 17 70 17c29 0 52 -8 69 -25z" />
    <glyph glyph-name="uni1EB8" unicode="&#x1eb8;" horiz-adv-x="690" 
d="M688 525h-361l-18 -86h329l-35 -176h-329l-18 -87h371l-35 -176h-602l140 701h593zM362 -90c17 -17 25 -40 25 -68c0 -25 -6 -48 -18 -69c-13 -21 -30 -37 -51 -48c-21 -12 -45 -18 -70 -18c-29 0 -51 9 -68 26s-26 39 -26 67c0 25 6 48 19 69c12 21 29 37 50 49
c21 11 45 17 70 17c29 0 52 -8 69 -25z" />
    <glyph glyph-name="Egrave" unicode="&#xc8;" horiz-adv-x="690" 
d="M688 525h-361l-18 -86h329l-35 -176h-329l-18 -87h371l-35 -176h-602l140 701h593zM454 934l111 -179l-143 -10l-138 129z" />
    <glyph glyph-name="uni1EBA" unicode="&#x1eba;" horiz-adv-x="690" 
d="M688 525h-361l-18 -86h329l-35 -176h-329l-18 -87h371l-35 -176h-602l140 701h593zM572 968c17 -15 26 -36 26 -61c0 -56 -42 -111 -125 -166l-85 37c19 14 35 28 46 42s16 26 16 37c0 7 -2 12 -6 16s-10 6 -17 6c-14 0 -28 -5 -42 -15l-38 83c53 29 102 44 148 44
c34 0 60 -8 77 -23z" />
    <glyph glyph-name="uni0206" unicode="&#x206;" horiz-adv-x="690" 
d="M688 525h-361l-18 -86h329l-35 -176h-329l-18 -87h371l-35 -176h-602l140 701h593zM477 789c-7 9 -18 13 -31 13s-25 -4 -36 -13s-18 -22 -23 -37h-135c13 53 40 96 79 127s86 47 139 47c47 0 85 -13 112 -38s41 -60 41 -103c0 -10 -1 -21 -3 -33h-135c1 15 -1 28 -8 37z
" />
    <glyph glyph-name="Emacron" unicode="&#x112;" horiz-adv-x="690" 
d="M688 525h-361l-18 -86h329l-35 -176h-329l-18 -87h371l-35 -176h-602l140 701h593zM282 880h360l-25 -128h-360z" />
    <glyph glyph-name="uni1E16" unicode="&#x1e16;" horiz-adv-x="690" 
d="M688 525h-361l-18 -86h329l-35 -176h-329l-18 -87h371l-35 -176h-602l140 701h593zM296 871h320l-23 -119h-320zM509 1090l139 -81l-174 -93l-121 31z" />
    <glyph glyph-name="uni1E14" unicode="&#x1e14;" horiz-adv-x="690" 
d="M688 525h-361l-18 -86h329l-35 -176h-329l-18 -87h371l-35 -176h-602l140 701h593zM302 871h320l-23 -119h-320zM426 1090l156 -143l-121 -31l-174 93z" />
    <glyph glyph-name="Eogonek" unicode="&#x118;" horiz-adv-x="690" 
d="M327 525l-18 -86h329l-35 -176h-329l-18 -87h371l-35 -176c-27 -17 -48 -33 -63 -49c-16 -16 -24 -32 -24 -49c0 -12 5 -18 16 -18c7 0 16 3 27 8l8 -111c-42 -17 -80 -25 -113 -25c-32 0 -56 9 -71 26c-16 17 -24 39 -24 67c0 51 26 101 78 151h-436l140 701h593
l-35 -176h-361z" />
    <glyph glyph-name="uni1EBC" unicode="&#x1ebc;" horiz-adv-x="690" 
d="M688 525h-361l-18 -86h329l-35 -176h-329l-18 -87h371l-35 -176h-602l140 701h593zM621 792c-23 -28 -53 -42 -90 -42c-17 0 -31 2 -44 7s-27 11 -43 20c-3 1 -8 4 -16 8c-9 4 -16 6 -22 6c-19 0 -31 -13 -37 -39h-117c12 61 30 106 53 135s53 43 90 43c16 0 31 -2 44 -7
s28 -11 43 -20c17 -9 29 -14 37 -14c10 0 18 3 24 9c5 6 10 16 13 29h116c-12 -62 -29 -107 -51 -135z" />
    <glyph glyph-name="F" unicode="F" horiz-adv-x="631" 
d="M659 525h-332l-24 -121h311l-35 -176h-311l-46 -228h-232l140 701h564z" />
    <glyph glyph-name="G" unicode="G" horiz-adv-x="738" 
d="M543 401h300l-62 -321c-45 -26 -97 -47 -158 -64s-117 -26 -167 -26c-110 0 -194 34 -252 102s-77 154 -56 258c21 103 75 189 163 257c88 67 189 101 303 101c55 0 108 -10 159 -29c51 -20 92 -46 123 -79l-163 -159c-19 23 -42 41 -71 54s-58 20 -87 20
c-45 0 -85 -16 -121 -47s-59 -71 -68 -118c-10 -49 -3 -89 21 -120s58 -47 104 -47c26 0 58 8 97 24l10 43h-105z" />
    <glyph glyph-name="Gbreve" unicode="&#x11e;" horiz-adv-x="744" 
d="M544 401h300l-62 -321c-45 -26 -97 -47 -158 -64s-117 -26 -167 -26c-110 0 -194 34 -252 102s-77 154 -56 258c21 103 75 189 163 257c88 67 189 101 303 101c55 0 108 -10 159 -29c51 -20 92 -46 123 -79l-163 -159c-19 23 -42 41 -71 54s-58 20 -87 20
c-45 0 -85 -16 -121 -47s-59 -71 -68 -118c-10 -49 -3 -89 21 -120s58 -47 104 -47c26 0 58 8 97 24l10 43h-105zM520 885c7 -9 17 -14 30 -14s25 5 36 14s18 21 23 36h135c-13 -53 -40 -96 -79 -127s-86 -47 -139 -47c-47 0 -85 13 -112 38s-41 60 -41 103c0 10 1 21 3 33
h135c-1 -15 2 -27 9 -36z" />
    <glyph glyph-name="Gcaron" unicode="&#x1e6;" horiz-adv-x="744" 
d="M544 401h300l-62 -321c-45 -26 -97 -47 -158 -64s-117 -26 -167 -26c-110 0 -194 34 -252 102s-77 154 -56 258c21 103 75 189 163 257c88 67 189 101 303 101c55 0 108 -10 159 -29c51 -20 92 -46 123 -79l-163 -159c-19 23 -42 41 -71 54s-58 20 -87 20
c-45 0 -85 -16 -121 -47s-59 -71 -68 -118c-10 -49 -3 -89 21 -120s58 -47 104 -47c26 0 58 8 97 24l10 43h-105zM623 914h140l-142 -162h-188l-80 162h140l51 -71z" />
    <glyph glyph-name="Gcircumflex" unicode="&#x11c;" horiz-adv-x="744" 
d="M544 401h300l-62 -321c-45 -26 -97 -47 -158 -64s-117 -26 -167 -26c-110 0 -194 34 -252 102s-77 154 -56 258c21 103 75 189 163 257c88 67 189 101 303 101c55 0 108 -10 159 -29c51 -20 92 -46 123 -79l-163 -159c-19 23 -42 41 -71 54s-58 20 -87 20
c-45 0 -85 -16 -121 -47s-59 -71 -68 -118c-10 -49 -3 -89 21 -120s58 -47 104 -47c26 0 58 8 97 24l10 43h-105zM732 752h-140l-51 72l-79 -72h-140l142 162h188z" />
    <glyph glyph-name="Gcommaaccent" unicode="&#x122;" horiz-adv-x="744" 
d="M544 401h300l-62 -321c-45 -26 -97 -47 -158 -64s-117 -26 -167 -26c-110 0 -194 34 -252 102s-77 154 -56 258c21 103 75 189 163 257c88 67 189 101 303 101c55 0 108 -10 159 -29c51 -20 92 -46 123 -79l-163 -159c-19 23 -42 41 -71 54s-58 20 -87 20
c-45 0 -85 -16 -121 -47s-59 -71 -68 -118c-10 -49 -3 -89 21 -120s58 -47 104 -47c26 0 58 8 97 24l10 43h-105zM362 -61h175l-118 -183h-120z" />
    <glyph glyph-name="Gdotaccent" unicode="&#x120;" horiz-adv-x="744" 
d="M544 401h300l-62 -321c-45 -26 -97 -47 -158 -64s-117 -26 -167 -26c-110 0 -194 34 -252 102s-77 154 -56 258c21 103 75 189 163 257c88 67 189 101 303 101c55 0 108 -10 159 -29c51 -20 92 -46 123 -79l-163 -159c-19 23 -42 41 -71 54s-58 20 -87 20
c-45 0 -85 -16 -121 -47s-59 -71 -68 -118c-10 -49 -3 -89 21 -120s58 -47 104 -47c26 0 58 8 97 24l10 43h-105zM641 955c17 -17 25 -40 25 -68c0 -25 -6 -48 -18 -69c-13 -21 -30 -37 -51 -48c-21 -12 -45 -18 -70 -18c-29 0 -51 9 -68 26s-26 39 -26 67c0 25 6 48 19 69
c12 21 29 37 50 49c21 11 45 17 70 17c29 0 52 -8 69 -25z" />
    <glyph glyph-name="uni1E20" unicode="&#x1e20;" horiz-adv-x="744" 
d="M544 401h300l-62 -321c-45 -26 -97 -47 -158 -64s-117 -26 -167 -26c-110 0 -194 34 -252 102s-77 154 -56 258c21 103 75 189 163 257c88 67 189 101 303 101c55 0 108 -10 159 -29c51 -20 92 -46 123 -79l-163 -159c-19 23 -42 41 -71 54s-58 20 -87 20
c-45 0 -85 -16 -121 -47s-59 -71 -68 -118c-10 -49 -3 -89 21 -120s58 -47 104 -47c26 0 58 8 97 24l10 43h-105zM372 880h360l-25 -128h-360z" />
    <glyph glyph-name="H" unicode="H" horiz-adv-x="865" 
d="M663 701h232l-140 -701h-232l51 253h-217l-51 -253h-232l140 701h232l-54 -272h217z" />
    <glyph glyph-name="Hbar" unicode="&#x126;" horiz-adv-x="881" 
d="M973 610l-19 -97h-81l-102 -513h-232l51 253h-217l-51 -253h-232l102 513h-79l19 98h80l18 90h232l-18 -90l217 -1l18 91h232l-18 -91h80zM625 429l16 84h-217l-16 -84h217z" />
    <glyph glyph-name="uni1E2A" unicode="&#x1e2a;" horiz-adv-x="865" 
d="M663 701h232l-140 -701h-232l51 253h-217l-51 -253h-232l140 701h232l-54 -272h217zM362 -101c7 -9 17 -14 30 -14s25 5 36 14s18 21 23 36h135c-13 -53 -40 -96 -79 -127s-86 -47 -139 -47c-47 0 -85 13 -112 38s-41 60 -41 103c0 10 1 21 3 33h135c-1 -15 2 -27 9 -36z
" />
    <glyph glyph-name="Hcircumflex" unicode="&#x124;" horiz-adv-x="865" 
d="M663 701h232l-140 -701h-232l51 253h-217l-51 -253h-232l140 701h232l-54 -272h217zM770 752h-140l-51 72l-79 -72h-140l142 162h188z" />
    <glyph glyph-name="Hdotbelow" unicode="&#x1e24;" horiz-adv-x="865" 
d="M663 701h232l-140 -701h-232l51 253h-217l-51 -253h-232l140 701h232l-54 -272h217zM472 -90c17 -17 25 -40 25 -68c0 -25 -6 -48 -18 -69c-13 -21 -30 -37 -51 -48c-21 -12 -45 -18 -70 -18c-29 0 -51 9 -68 26s-26 39 -26 67c0 25 6 48 19 69c12 21 29 37 50 49
c21 11 45 17 70 17c29 0 52 -8 69 -25z" />
    <glyph glyph-name="I" unicode="I" horiz-adv-x="332" 
d="M362 701l-140 -701h-232l140 701h232z" />
    <glyph glyph-name="IJ" unicode="&#x132;" horiz-adv-x="902" 
d="M362 701l-140 -701h-232l140 701h232zM939 701l-114 -573c-16 -77 -50 -136 -102 -177c-53 -41 -118 -61 -197 -61c-109 0 -195 43 -258 128l125 138c20 -25 41 -44 64 -55c23 -12 43 -18 60 -18c19 0 37 6 52 19s24 29 28 49l74 367h-239l36 183h471z" />
    <glyph glyph-name="Iacute" unicode="&#xcd;" horiz-adv-x="332" 
d="M362 701l-140 -701h-232l140 701h232zM274 934l169 -60l-162 -129l-142 10z" />
    <glyph glyph-name="Ibreve" unicode="&#x12c;" horiz-adv-x="332" 
d="M362 701l-140 -701h-232l140 701h232zM244 885c7 -9 17 -14 30 -14s25 5 36 14s18 21 23 36h135c-13 -53 -40 -96 -79 -127s-86 -47 -139 -47c-47 0 -85 13 -112 38s-41 60 -41 103c0 10 1 21 3 33h135c-1 -15 2 -27 9 -36z" />
    <glyph glyph-name="Icircumflex" unicode="&#xce;" horiz-adv-x="332" 
d="M362 701l-140 -701h-232l140 701h232zM456 752h-140l-51 72l-79 -72h-140l142 162h188z" />
    <glyph glyph-name="uni0208" unicode="&#x208;" horiz-adv-x="332" 
d="M362 701l-140 -701h-232l140 701h232zM192 931l48 -179l-157 -10l-63 136zM413 931l48 -179l-157 -10l-63 136z" />
    <glyph glyph-name="Idieresis" unicode="&#xcf;" horiz-adv-x="332" 
d="M362 701l-140 -701h-232l140 701h232zM237 909c13 -13 20 -31 20 -53c0 -29 -10 -53 -31 -73c-21 -21 -47 -31 -76 -31c-22 0 -40 7 -53 20s-20 31 -20 52c0 29 11 54 32 75c21 20 46 30 75 30c22 0 40 -7 53 -20zM439 909c13 -13 20 -31 20 -53c0 -29 -10 -53 -31 -73
c-21 -21 -47 -31 -76 -31c-22 0 -40 7 -53 20s-20 31 -20 52c0 29 11 54 32 75c21 20 46 30 75 30c22 0 40 -7 53 -20z" />
    <glyph glyph-name="uni1E2E" unicode="&#x1e2e;" horiz-adv-x="332" 
d="M362 701l-140 -701h-232l140 701h232zM230 910c13 -13 20 -31 20 -53c0 -29 -10 -54 -31 -74c-21 -21 -47 -31 -76 -31c-22 0 -40 7 -53 20s-20 31 -20 52c0 30 10 55 31 75s46 30 76 30c22 0 40 -6 53 -19zM444 910c13 -13 20 -31 20 -53c0 -29 -10 -54 -31 -74
c-21 -21 -47 -31 -76 -31c-22 0 -40 7 -53 20s-20 31 -20 52c0 30 10 55 31 75s46 30 76 30c22 0 40 -6 53 -19zM334 1131l139 -81l-174 -93l-121 31z" />
    <glyph glyph-name="Idotaccent" unicode="&#x130;" horiz-adv-x="332" 
d="M362 701l-140 -701h-232l140 701h232zM365 955c17 -17 25 -40 25 -68c0 -25 -6 -48 -18 -69c-13 -21 -30 -37 -51 -48c-21 -12 -45 -18 -70 -18c-29 0 -51 9 -68 26s-26 39 -26 67c0 25 6 48 19 69c12 21 29 37 50 49c21 11 45 17 70 17c29 0 52 -8 69 -25z" />
    <glyph glyph-name="uni1ECA" unicode="&#x1eca;" horiz-adv-x="332" 
d="M326 701l-140 -701h-232l140 701h232zM126 -90c17 -17 25 -40 25 -68c0 -25 -6 -48 -18 -69c-13 -21 -30 -37 -51 -48c-21 -12 -45 -18 -70 -18c-29 0 -51 9 -68 26s-26 39 -26 67c0 25 6 48 19 69c12 21 29 37 50 49c21 11 45 17 70 17c29 0 52 -8 69 -25z" />
    <glyph glyph-name="Igrave" unicode="&#xcc;" horiz-adv-x="332" 
d="M362 701l-140 -701h-232l140 701h232zM268 934l111 -179l-143 -10l-138 129z" />
    <glyph glyph-name="uni1EC8" unicode="&#x1ec8;" horiz-adv-x="332" 
d="M362 701l-140 -701h-232l140 701h232zM386 968c17 -15 26 -36 26 -61c0 -56 -42 -111 -125 -166l-85 37c19 14 35 28 46 42s16 26 16 37c0 7 -2 12 -6 16s-10 6 -17 6c-14 0 -28 -5 -42 -15l-38 83c53 29 102 44 148 44c34 0 60 -8 77 -23z" />
    <glyph glyph-name="uni020A" unicode="&#x20a;" horiz-adv-x="332" 
d="M362 701l-140 -701h-232l140 701h232zM291 789c-7 9 -18 13 -31 13s-25 -4 -36 -13s-18 -22 -23 -37h-135c13 53 40 96 79 127s86 47 139 47c47 0 85 -13 112 -38s41 -60 41 -103c0 -10 -1 -21 -3 -33h-135c1 15 -1 28 -8 37z" />
    <glyph glyph-name="Imacron" unicode="&#x12a;" horiz-adv-x="332" 
d="M362 701l-140 -701h-232l140 701h232zM116 880h320l-25 -128h-320z" />
    <glyph glyph-name="Iogonek" unicode="&#x12e;" horiz-adv-x="332" 
d="M285 701l-140 -701h-65c-27 -17 -48 -33 -63 -49c-16 -16 -24 -32 -24 -49c0 -12 5 -18 16 -18c7 0 16 3 27 8l8 -111c-42 -17 -80 -25 -113 -25c-32 0 -56 9 -71 26c-16 17 -24 39 -24 67c0 51 26 101 78 151h-1l140 701h232z" />
    <glyph glyph-name="Itilde" unicode="&#x128;" horiz-adv-x="332" 
d="M362 701l-140 -701h-232l140 701h232zM435 792c-23 -28 -53 -42 -90 -42c-17 0 -31 2 -44 7s-27 11 -43 20c-3 1 -8 4 -16 8c-9 4 -16 6 -22 6c-19 0 -31 -13 -37 -39h-117c12 61 30 106 53 135s53 43 90 43c16 0 31 -2 44 -7s28 -11 43 -20c17 -9 29 -14 37 -14
c10 0 18 3 24 9c5 6 10 16 13 29h116c-12 -62 -29 -107 -51 -135z" />
    <glyph glyph-name="J" unicode="J" horiz-adv-x="567" 
d="M553 701l-114 -573c-16 -77 -50 -136 -102 -177c-53 -41 -118 -61 -197 -61c-109 0 -195 43 -258 128l125 138c20 -25 41 -44 64 -55c23 -12 43 -18 60 -18c19 0 37 6 52 19s24 29 28 49l74 367h-239l36 183h471z" />
    <glyph glyph-name="Jcircumflex" unicode="&#x134;" horiz-adv-x="570" 
d="M553 701l-114 -573c-16 -77 -50 -136 -102 -177c-53 -41 -118 -61 -197 -61c-109 0 -195 43 -258 128l125 138c20 -25 41 -44 64 -55c23 -12 43 -18 60 -18c19 0 37 6 52 19s24 29 28 49l74 367h-239l36 183h471zM533 752h-140l-51 72l-79 -72h-140l142 162h188z" />
    <glyph glyph-name="K" unicode="K" horiz-adv-x="769" 
d="M842 701l-310 -291l177 -410h-269l-96 235l-92 -87l-30 -148h-232l140 701h232l-51 -255l255 255h276z" />
    <glyph glyph-name="Kcommaaccent" unicode="&#x136;" horiz-adv-x="769" 
d="M842 701l-310 -291l177 -410h-269l-96 235l-92 -87l-30 -148h-232l140 701h232l-51 -255l255 255h276zM211 -61h175l-118 -183h-120z" />
    <glyph glyph-name="L" unicode="L" horiz-adv-x="584" 
d="M261 193h292l-39 -193h-524l140 701h232z" />
    <glyph glyph-name="LJ" unicode="&#x1c7;" horiz-adv-x="1154" 
d="M261 193h292l-39 -193h-524l140 701h232zM1191 701l-114 -573c-16 -77 -50 -136 -102 -177c-53 -41 -118 -61 -197 -61c-109 0 -195 43 -258 128l125 138c20 -25 41 -44 64 -55c23 -12 43 -18 60 -18c19 0 37 6 52 19s24 29 28 49l74 367h-239l36 183h471z" />
    <glyph glyph-name="Lacute" unicode="&#x139;" horiz-adv-x="584" 
d="M261 193h292l-39 -193h-524l140 701h232zM272 934l169 -60l-162 -129l-142 10z" />
    <glyph glyph-name="Lcaron" unicode="&#x13d;" horiz-adv-x="584" 
d="M261 193h292l-39 -193h-524l140 701h232zM460 699h158l-75 -231h-128z" />
    <glyph glyph-name="Lcommaaccent" unicode="&#x13b;" horiz-adv-x="584" 
d="M261 193h292l-39 -193h-524l140 701h232zM150 -61h175l-118 -183h-120z" />
    <glyph glyph-name="Ldot" unicode="&#x13f;" horiz-adv-x="584" 
d="M261 193h292l-39 -193h-524l140 701h232zM563 489c17 -17 25 -40 25 -68c0 -25 -6 -48 -18 -69c-13 -21 -30 -37 -51 -48c-21 -12 -45 -18 -70 -18c-29 0 -51 9 -68 26s-26 39 -26 67c0 25 6 48 19 69c12 21 29 37 50 49c21 11 45 17 70 17c29 0 52 -8 69 -25z" />
    <glyph glyph-name="Ldotbelow" unicode="&#x1e36;" horiz-adv-x="584" 
d="M261 193h292l-39 -193h-524l140 701h232zM309 -90c17 -17 25 -40 25 -68c0 -25 -6 -48 -18 -69c-13 -21 -30 -37 -51 -48c-21 -12 -45 -18 -70 -18c-29 0 -51 9 -68 26s-26 39 -26 67c0 25 6 48 19 69c12 21 29 37 50 49c21 11 45 17 70 17c29 0 52 -8 69 -25z" />
    <glyph glyph-name="Lj" unicode="&#x1c8;" horiz-adv-x="920" 
d="M261 193h292l-39 -193h-524l140 701h232zM519 -29c16 0 30 5 43 16c12 11 20 24 23 39l104 521h225l-114 -573c-11 -57 -38 -100 -80 -131s-94 -46 -157 -46c-47 0 -92 8 -133 25l62 151c7 -1 16 -2 27 -2zM915 792c17 -17 25 -40 25 -68c0 -25 -6 -48 -18 -69
c-13 -21 -30 -37 -51 -48c-21 -12 -45 -18 -70 -18c-29 0 -51 9 -68 26s-26 39 -26 67c0 25 6 48 19 69c12 21 29 37 50 49c21 11 45 17 70 17c29 0 52 -8 69 -25z" />
    <glyph glyph-name="uni1E3A" unicode="&#x1e3a;" horiz-adv-x="584" 
d="M261 193h292l-39 -193h-524l140 701h232zM88 -75h300l-25 -128h-300z" />
    <glyph glyph-name="Lslash" unicode="&#x141;" horiz-adv-x="624" 
d="M303 193h292l-39 -193h-524l51 255l-89 -41l23 118l90 41l65 328h232l-42 -210l123 57l-23 -118l-123 -57z" />
    <glyph glyph-name="M" unicode="M" horiz-adv-x="943" 
d="M727 701h246l-136 -701h-203l74 383l-202 -315h-151l-79 316l-75 -384h-203l136 701h246l103 -366z" />
    <glyph glyph-name="Mdotbelow" unicode="&#x1e42;" horiz-adv-x="943" 
d="M727 701h246l-136 -701h-203l74 383l-202 -315h-151l-79 316l-75 -384h-203l136 701h246l103 -366zM480 -90c17 -17 25 -40 25 -68c0 -25 -6 -48 -18 -69c-13 -21 -30 -37 -51 -48c-21 -12 -45 -18 -70 -18c-29 0 -51 9 -68 26s-26 39 -26 67c0 25 6 48 19 69
c12 21 29 37 50 49c21 11 45 17 70 17c29 0 52 -8 69 -25z" />
    <glyph glyph-name="N" unicode="N" horiz-adv-x="781" 
d="M601 701h210l-140 -701h-194l-204 358l-72 -358h-211l140 701h194l205 -360z" />
    <glyph glyph-name="NJ" unicode="&#x1ca;" horiz-adv-x="1351" 
d="M601 701h210l-140 -701h-194l-204 358l-72 -358h-211l140 701h194l205 -360zM1388 701l-114 -573c-16 -77 -50 -136 -102 -177c-53 -41 -118 -61 -197 -61c-109 0 -195 43 -258 128l125 138c20 -25 41 -44 64 -55c23 -12 43 -18 60 -18c19 0 37 6 52 19s24 29 28 49
l74 367h-239l36 183h471z" />
    <glyph glyph-name="Nacute" unicode="&#x143;" horiz-adv-x="781" 
d="M601 701h210l-140 -701h-194l-204 358l-72 -358h-211l140 701h194l205 -360zM504 934l169 -60l-162 -129l-142 10z" />
    <glyph glyph-name="Ncaron" unicode="&#x147;" horiz-adv-x="781" 
d="M601 701h210l-140 -701h-194l-204 358l-72 -358h-211l140 701h194l205 -360zM577 914h140l-142 -162h-188l-80 162h140l51 -71z" />
    <glyph glyph-name="Ncommaaccent" unicode="&#x145;" horiz-adv-x="781" 
d="M601 701h210l-140 -701h-194l-204 358l-72 -358h-211l140 701h194l205 -360zM229 -61h175l-118 -183h-120z" />
    <glyph glyph-name="Ndotaccent" unicode="&#x1e44;" horiz-adv-x="781" 
d="M601 701h210l-140 -701h-194l-204 358l-72 -358h-211l140 701h194l205 -360zM595 955c17 -17 25 -40 25 -68c0 -25 -6 -48 -18 -69c-13 -21 -30 -37 -51 -48c-21 -12 -45 -18 -70 -18c-29 0 -51 9 -68 26s-26 39 -26 67c0 25 6 48 19 69c12 21 29 37 50 49
c21 11 45 17 70 17c29 0 52 -8 69 -25z" />
    <glyph glyph-name="Ndotbelow" unicode="&#x1e46;" horiz-adv-x="781" 
d="M601 701h210l-140 -701h-194l-204 358l-72 -358h-211l140 701h194l205 -360zM388 -90c17 -17 25 -40 25 -68c0 -25 -6 -48 -18 -69c-13 -21 -30 -37 -51 -48c-21 -12 -45 -18 -70 -18c-29 0 -51 9 -68 26s-26 39 -26 67c0 25 6 48 19 69c12 21 29 37 50 49
c21 11 45 17 70 17c29 0 52 -8 69 -25z" />
    <glyph glyph-name="Eng" unicode="&#x14a;" horiz-adv-x="781" 
d="M811 701l-140 -701c-19 -71 -55 -126 -110 -165c-55 -40 -122 -60 -199 -60c-61 0 -115 13 -161 40l110 175c35 -15 65 -22 90 -22c34 0 56 16 67 48l-195 342l-72 -358h-211l140 701h194l205 -360l72 360h210z" />
    <glyph glyph-name="Nj" unicode="&#x1cb;" horiz-adv-x="1097" 
d="M710 666c33 -34 50 -80 50 -139c0 -23 -2 -46 -7 -69l-92 -458h-235l80 402c2 11 3 21 3 30c0 24 -6 43 -19 56s-31 20 -55 20c-34 0 -63 -10 -87 -30c-24 -21 -40 -48 -47 -83l-79 -395h-232l140 701h232l-20 -98c30 37 64 65 103 84s80 29 124 29c60 0 107 -17 141 -50
zM696 -29c16 0 30 5 43 16c12 11 20 24 23 39l104 521h225l-114 -573c-11 -57 -38 -100 -80 -131s-94 -46 -157 -46c-47 0 -92 8 -133 25l62 151c7 -1 16 -2 27 -2zM1092 792c17 -17 25 -40 25 -68c0 -25 -6 -48 -18 -69c-13 -21 -30 -37 -51 -48c-21 -12 -45 -18 -70 -18
c-29 0 -51 9 -68 26s-26 39 -26 67c0 25 6 48 19 69c12 21 29 37 50 49c21 11 45 17 70 17c29 0 52 -8 69 -25z" />
    <glyph glyph-name="uni1E48" unicode="&#x1e48;" horiz-adv-x="781" 
d="M601 701h210l-140 -701h-194l-204 358l-72 -358h-211l140 701h194l205 -360zM167 -75h300l-25 -128h-300z" />
    <glyph glyph-name="Ntilde" unicode="&#xd1;" horiz-adv-x="781" 
d="M601 701h210l-140 -701h-194l-204 358l-72 -358h-211l140 701h194l205 -360zM665 792c-23 -28 -53 -42 -90 -42c-17 0 -31 2 -44 7s-27 11 -43 20c-3 1 -8 4 -16 8c-9 4 -16 6 -22 6c-19 0 -31 -13 -37 -39h-117c12 61 30 106 53 135s53 43 90 43c16 0 31 -2 44 -7
s28 -11 43 -20c17 -9 29 -14 37 -14c10 0 18 3 24 9c5 6 10 16 13 29h116c-12 -62 -29 -107 -51 -135z" />
    <glyph glyph-name="O" unicode="O" horiz-adv-x="807" 
d="M673 674c53 -29 94 -68 123 -118s44 -107 44 -171c0 -75 -19 -143 -56 -204s-88 -109 -153 -144s-136 -53 -215 -53c-69 0 -129 14 -182 43s-95 68 -124 119s-44 108 -44 172c0 75 19 143 56 204s88 108 153 143c65 34 136 51 215 51c69 0 130 -14 183 -42zM392 498
c-26 -17 -47 -39 -63 -68s-24 -61 -24 -96c0 -29 6 -56 18 -80s28 -43 49 -56c20 -14 42 -21 66 -21c29 0 56 9 81 26s45 40 60 69s22 62 22 97c0 45 -12 82 -36 111c-25 29 -55 43 -92 43c-29 0 -56 -8 -81 -25z" />
    <glyph glyph-name="Oacute" unicode="&#xd3;" horiz-adv-x="807" 
d="M673 674c53 -29 94 -68 123 -118s44 -107 44 -171c0 -75 -19 -143 -56 -204s-88 -109 -153 -144s-136 -53 -215 -53c-69 0 -129 14 -182 43s-95 68 -124 119s-44 108 -44 172c0 75 19 143 56 204s88 108 153 143c65 34 136 51 215 51c69 0 130 -14 183 -42zM392 498
c-26 -17 -47 -39 -63 -68s-24 -61 -24 -96c0 -29 6 -56 18 -80s28 -43 49 -56c20 -14 42 -21 66 -21c29 0 56 9 81 26s45 40 60 69s22 62 22 97c0 45 -12 82 -36 111c-25 29 -55 43 -92 43c-29 0 -56 -8 -81 -25zM519 934l169 -60l-162 -129l-142 10z" />
    <glyph glyph-name="Obreve" unicode="&#x14e;" horiz-adv-x="807" 
d="M673 674c53 -29 94 -68 123 -118s44 -107 44 -171c0 -75 -19 -143 -56 -204s-88 -109 -153 -144s-136 -53 -215 -53c-69 0 -129 14 -182 43s-95 68 -124 119s-44 108 -44 172c0 75 19 143 56 204s88 108 153 143c65 34 136 51 215 51c69 0 130 -14 183 -42zM392 498
c-26 -17 -47 -39 -63 -68s-24 -61 -24 -96c0 -29 6 -56 18 -80s28 -43 49 -56c20 -14 42 -21 66 -21c29 0 56 9 81 26s45 40 60 69s22 62 22 97c0 45 -12 82 -36 111c-25 29 -55 43 -92 43c-29 0 -56 -8 -81 -25zM489 885c7 -9 17 -14 30 -14s25 5 36 14s18 21 23 36h135
c-13 -53 -40 -96 -79 -127s-86 -47 -139 -47c-47 0 -85 13 -112 38s-41 60 -41 103c0 10 1 21 3 33h135c-1 -15 2 -27 9 -36z" />
    <glyph glyph-name="Ocircumflex" unicode="&#xd4;" horiz-adv-x="807" 
d="M673 674c53 -29 94 -68 123 -118s44 -107 44 -171c0 -75 -19 -143 -56 -204s-88 -109 -153 -144s-136 -53 -215 -53c-69 0 -129 14 -182 43s-95 68 -124 119s-44 108 -44 172c0 75 19 143 56 204s88 108 153 143c65 34 136 51 215 51c69 0 130 -14 183 -42zM392 498
c-26 -17 -47 -39 -63 -68s-24 -61 -24 -96c0 -29 6 -56 18 -80s28 -43 49 -56c20 -14 42 -21 66 -21c29 0 56 9 81 26s45 40 60 69s22 62 22 97c0 45 -12 82 -36 111c-25 29 -55 43 -92 43c-29 0 -56 -8 -81 -25zM701 752h-140l-51 72l-79 -72h-140l142 162h188z" />
    <glyph glyph-name="uni1ED0" unicode="&#x1ed0;" horiz-adv-x="807" 
d="M673 674c53 -29 94 -68 123 -118s44 -107 44 -171c0 -75 -19 -143 -56 -204s-88 -109 -153 -144s-136 -53 -215 -53c-69 0 -129 14 -182 43s-95 68 -124 119s-44 108 -44 172c0 75 19 143 56 204s88 108 153 143c65 34 136 51 215 51c69 0 130 -14 183 -42zM392 498
c-26 -17 -47 -39 -63 -68s-24 -61 -24 -96c0 -29 6 -56 18 -80s28 -43 49 -56c20 -14 42 -21 66 -21c29 0 56 9 81 26s45 40 60 69s22 62 22 97c0 45 -12 82 -36 111c-25 29 -55 43 -92 43c-29 0 -56 -8 -81 -25zM721 752h-161l-51 71l-78 -71h-160l148 138h201zM573 1098
l139 -81l-174 -93l-121 31z" />
    <glyph glyph-name="uni1ED8" unicode="&#x1ed8;" horiz-adv-x="807" 
d="M673 674c53 -29 94 -68 123 -118s44 -107 44 -171c0 -75 -19 -143 -56 -204s-88 -109 -153 -144s-136 -53 -215 -53c-69 0 -129 14 -182 43s-95 68 -124 119s-44 108 -44 172c0 75 19 143 56 204s88 108 153 143c65 34 136 51 215 51c69 0 130 -14 183 -42zM392 498
c-26 -17 -47 -39 -63 -68s-24 -61 -24 -96c0 -29 6 -56 18 -80s28 -43 49 -56c20 -14 42 -21 66 -21c29 0 56 9 81 26s45 40 60 69s22 62 22 97c0 45 -12 82 -36 111c-25 29 -55 43 -92 43c-29 0 -56 -8 -81 -25zM479 -90c17 -17 25 -40 25 -68c0 -25 -6 -48 -18 -69
c-13 -21 -30 -37 -51 -48c-21 -12 -45 -18 -70 -18c-29 0 -51 9 -68 26s-26 39 -26 67c0 25 6 48 19 69c12 21 29 37 50 49c21 11 45 17 70 17c29 0 52 -8 69 -25zM740 752h-140l-51 72l-79 -72h-140l142 162h188z" />
    <glyph glyph-name="uni1ED2" unicode="&#x1ed2;" horiz-adv-x="807" 
d="M673 674c53 -29 94 -68 123 -118s44 -107 44 -171c0 -75 -19 -143 -56 -204s-88 -109 -153 -144s-136 -53 -215 -53c-69 0 -129 14 -182 43s-95 68 -124 119s-44 108 -44 172c0 75 19 143 56 204s88 108 153 143c65 34 136 51 215 51c69 0 130 -14 183 -42zM392 498
c-26 -17 -47 -39 -63 -68s-24 -61 -24 -96c0 -29 6 -56 18 -80s28 -43 49 -56c20 -14 42 -21 66 -21c29 0 56 9 81 26s45 40 60 69s22 62 22 97c0 45 -12 82 -36 111c-25 29 -55 43 -92 43c-29 0 -56 -8 -81 -25zM726 752h-161l-51 71l-78 -71h-160l148 138h201zM489 1098
l156 -143l-121 -31l-174 93z" />
    <glyph glyph-name="uni1ED4" unicode="&#x1ed4;" horiz-adv-x="807" 
d="M673 674c53 -29 94 -68 123 -118s44 -107 44 -171c0 -75 -19 -143 -56 -204s-88 -109 -153 -144s-136 -53 -215 -53c-69 0 -129 14 -182 43s-95 68 -124 119s-44 108 -44 172c0 75 19 143 56 204s88 108 153 143c65 34 136 51 215 51c69 0 130 -14 183 -42zM392 498
c-26 -17 -47 -39 -63 -68s-24 -61 -24 -96c0 -29 6 -56 18 -80s28 -43 49 -56c20 -14 42 -21 66 -21c29 0 56 9 81 26s45 40 60 69s22 62 22 97c0 45 -12 82 -36 111c-25 29 -55 43 -92 43c-29 0 -56 -8 -81 -25zM739 752h-161l-51 71l-78 -71h-160l148 138h201zM649 1087
c14 -13 21 -28 21 -46c0 -22 -8 -42 -23 -59c-15 -18 -41 -37 -78 -58l-77 31c16 7 28 14 36 21c7 6 11 13 11 20c0 9 -6 13 -18 13c-13 0 -24 -4 -34 -11l-35 70c47 25 90 38 130 38c31 0 53 -6 67 -19z" />
    <glyph glyph-name="uni1ED6" unicode="&#x1ed6;" horiz-adv-x="807" 
d="M673 674c53 -29 94 -68 123 -118s44 -107 44 -171c0 -75 -19 -143 -56 -204s-88 -109 -153 -144s-136 -53 -215 -53c-69 0 -129 14 -182 43s-95 68 -124 119s-44 108 -44 172c0 75 19 143 56 204s88 108 153 143c65 34 136 51 215 51c69 0 130 -14 183 -42zM392 498
c-26 -17 -47 -39 -63 -68s-24 -61 -24 -96c0 -29 6 -56 18 -80s28 -43 49 -56c20 -14 42 -21 66 -21c29 0 56 9 81 26s45 40 60 69s22 62 22 97c0 45 -12 82 -36 111c-25 29 -55 43 -92 43c-29 0 -56 -8 -81 -25zM740 752h-161l-51 71l-78 -71h-160l148 138h201zM721 957
c-21 -23 -51 -35 -88 -35c-18 0 -34 2 -49 7c-15 4 -32 10 -51 18c-21 9 -36 13 -44 13c-11 0 -20 -3 -25 -8c-5 -6 -9 -15 -12 -28h-100c10 51 26 88 47 112s50 36 87 36c19 0 35 -2 50 -6c14 -5 31 -11 51 -19l24 -9c7 -3 14 -4 19 -4c11 0 19 3 25 9c5 5 10 14 13 26h99
c-10 -51 -25 -89 -46 -112z" />
    <glyph glyph-name="uni020C" unicode="&#x20c;" horiz-adv-x="807" 
d="M673 674c53 -29 94 -68 123 -118s44 -107 44 -171c0 -75 -19 -143 -56 -204s-88 -109 -153 -144s-136 -53 -215 -53c-69 0 -129 14 -182 43s-95 68 -124 119s-44 108 -44 172c0 75 19 143 56 204s88 108 153 143c65 34 136 51 215 51c69 0 130 -14 183 -42zM392 498
c-26 -17 -47 -39 -63 -68s-24 -61 -24 -96c0 -29 6 -56 18 -80s28 -43 49 -56c20 -14 42 -21 66 -21c29 0 56 9 81 26s45 40 60 69s22 62 22 97c0 45 -12 82 -36 111c-25 29 -55 43 -92 43c-29 0 -56 -8 -81 -25zM437 931l48 -179l-157 -10l-63 136zM658 931l48 -179
l-157 -10l-63 136z" />
    <glyph glyph-name="Odieresis" unicode="&#xd6;" horiz-adv-x="807" 
d="M673 674c53 -29 94 -68 123 -118s44 -107 44 -171c0 -75 -19 -143 -56 -204s-88 -109 -153 -144s-136 -53 -215 -53c-69 0 -129 14 -182 43s-95 68 -124 119s-44 108 -44 172c0 75 19 143 56 204s88 108 153 143c65 34 136 51 215 51c69 0 130 -14 183 -42zM392 498
c-26 -17 -47 -39 -63 -68s-24 -61 -24 -96c0 -29 6 -56 18 -80s28 -43 49 -56c20 -14 42 -21 66 -21c29 0 56 9 81 26s45 40 60 69s22 62 22 97c0 45 -12 82 -36 111c-25 29 -55 43 -92 43c-29 0 -56 -8 -81 -25zM482 909c13 -13 20 -31 20 -53c0 -29 -10 -53 -31 -73
c-21 -21 -47 -31 -76 -31c-22 0 -40 7 -53 20s-20 31 -20 52c0 29 11 54 32 75c21 20 46 30 75 30c22 0 40 -7 53 -20zM684 909c13 -13 20 -31 20 -53c0 -29 -10 -53 -31 -73c-21 -21 -47 -31 -76 -31c-22 0 -40 7 -53 20s-20 31 -20 52c0 29 11 54 32 75c21 20 46 30 75 30
c22 0 40 -7 53 -20z" />
    <glyph glyph-name="uni022A" unicode="&#x22a;" horiz-adv-x="807" 
d="M673 674c53 -29 94 -68 123 -118s44 -107 44 -171c0 -75 -19 -143 -56 -204s-88 -109 -153 -144s-136 -53 -215 -53c-69 0 -129 14 -182 43s-95 68 -124 119s-44 108 -44 172c0 75 19 143 56 204s88 108 153 143c65 34 136 51 215 51c69 0 130 -14 183 -42zM392 498
c-26 -17 -47 -39 -63 -68s-24 -61 -24 -96c0 -29 6 -56 18 -80s28 -43 49 -56c20 -14 42 -21 66 -21c29 0 56 9 81 26s45 40 60 69s22 62 22 97c0 45 -12 82 -36 111c-25 29 -55 43 -92 43c-29 0 -56 -8 -81 -25zM476 910c13 -13 20 -31 20 -53c0 -29 -10 -54 -31 -74
c-21 -21 -47 -31 -76 -31c-22 0 -40 7 -53 20s-20 31 -20 52c0 30 10 55 31 75s46 30 76 30c22 0 40 -6 53 -19zM690 910c13 -13 20 -31 20 -53c0 -29 -10 -54 -31 -74c-21 -21 -47 -31 -76 -31c-22 0 -40 7 -53 20s-20 31 -20 52c0 30 10 55 31 75s46 30 76 30
c22 0 40 -6 53 -19zM398 1076h320l-23 -119h-320z" />
    <glyph glyph-name="uni0230" unicode="&#x230;" horiz-adv-x="807" 
d="M673 674c53 -29 94 -68 123 -118s44 -107 44 -171c0 -75 -19 -143 -56 -204s-88 -109 -153 -144s-136 -53 -215 -53c-69 0 -129 14 -182 43s-95 68 -124 119s-44 108 -44 172c0 75 19 143 56 204s88 108 153 143c65 34 136 51 215 51c69 0 130 -14 183 -42zM392 498
c-26 -17 -47 -39 -63 -68s-24 -61 -24 -96c0 -29 6 -56 18 -80s28 -43 49 -56c20 -14 42 -21 66 -21c29 0 56 9 81 26s45 40 60 69s22 62 22 97c0 45 -12 82 -36 111c-25 29 -55 43 -92 43c-29 0 -56 -8 -81 -25zM589 923c14 -15 21 -34 21 -57c0 -33 -11 -60 -33 -81
c-23 -22 -51 -33 -84 -33c-24 0 -43 7 -57 22c-15 15 -22 34 -22 57c0 32 11 59 34 81c23 21 50 32 83 32c24 0 43 -7 58 -21zM399 1090h320l-23 -119h-320z" />
    <glyph glyph-name="uni1ECC" unicode="&#x1ecc;" horiz-adv-x="807" 
d="M673 674c53 -29 94 -68 123 -118s44 -107 44 -171c0 -75 -19 -143 -56 -204s-88 -109 -153 -144s-136 -53 -215 -53c-69 0 -129 14 -182 43s-95 68 -124 119s-44 108 -44 172c0 75 19 143 56 204s88 108 153 143c65 34 136 51 215 51c69 0 130 -14 183 -42zM392 498
c-26 -17 -47 -39 -63 -68s-24 -61 -24 -96c0 -29 6 -56 18 -80s28 -43 49 -56c20 -14 42 -21 66 -21c29 0 56 9 81 26s45 40 60 69s22 62 22 97c0 45 -12 82 -36 111c-25 29 -55 43 -92 43c-29 0 -56 -8 -81 -25zM479 -90c17 -17 25 -40 25 -68c0 -25 -6 -48 -18 -69
c-13 -21 -30 -37 -51 -48c-21 -12 -45 -18 -70 -18c-29 0 -51 9 -68 26s-26 39 -26 67c0 25 6 48 19 69c12 21 29 37 50 49c21 11 45 17 70 17c29 0 52 -8 69 -25z" />
    <glyph glyph-name="Ograve" unicode="&#xd2;" horiz-adv-x="807" 
d="M673 674c53 -29 94 -68 123 -118s44 -107 44 -171c0 -75 -19 -143 -56 -204s-88 -109 -153 -144s-136 -53 -215 -53c-69 0 -129 14 -182 43s-95 68 -124 119s-44 108 -44 172c0 75 19 143 56 204s88 108 153 143c65 34 136 51 215 51c69 0 130 -14 183 -42zM392 498
c-26 -17 -47 -39 -63 -68s-24 -61 -24 -96c0 -29 6 -56 18 -80s28 -43 49 -56c20 -14 42 -21 66 -21c29 0 56 9 81 26s45 40 60 69s22 62 22 97c0 45 -12 82 -36 111c-25 29 -55 43 -92 43c-29 0 -56 -8 -81 -25zM513 934l111 -179l-143 -10l-138 129z" />
    <glyph glyph-name="uni1ECE" unicode="&#x1ece;" horiz-adv-x="807" 
d="M673 674c53 -29 94 -68 123 -118s44 -107 44 -171c0 -75 -19 -143 -56 -204s-88 -109 -153 -144s-136 -53 -215 -53c-69 0 -129 14 -182 43s-95 68 -124 119s-44 108 -44 172c0 75 19 143 56 204s88 108 153 143c65 34 136 51 215 51c69 0 130 -14 183 -42zM392 498
c-26 -17 -47 -39 -63 -68s-24 -61 -24 -96c0 -29 6 -56 18 -80s28 -43 49 -56c20 -14 42 -21 66 -21c29 0 56 9 81 26s45 40 60 69s22 62 22 97c0 45 -12 82 -36 111c-25 29 -55 43 -92 43c-29 0 -56 -8 -81 -25zM631 968c17 -15 26 -36 26 -61c0 -56 -42 -111 -125 -166
l-85 37c19 14 35 28 46 42s16 26 16 37c0 7 -2 12 -6 16s-10 6 -17 6c-14 0 -28 -5 -42 -15l-38 83c53 29 102 44 148 44c34 0 60 -8 77 -23z" />
    <glyph glyph-name="Ohorn" unicode="&#x1a0;" horiz-adv-x="848" 
d="M929 785c0 -47 -13 -89 -40 -125s-63 -62 -109 -79c40 -57 60 -122 60 -196c0 -75 -19 -143 -56 -204s-88 -109 -153 -144s-136 -53 -215 -53c-69 0 -129 14 -182 43s-95 68 -124 119s-44 108 -44 172c0 75 19 143 56 204s88 108 153 143c65 34 136 51 215 51
c59 0 113 -11 161 -32h1c3 -2 7 -4 14 -7c6 -2 12 -3 19 -3c21 0 38 8 51 25s20 36 20 59c0 15 -3 30 -10 43l172 58c7 -24 11 -49 11 -74zM519 203c25 17 45 40 60 69s22 62 22 97c0 45 -12 82 -36 111c-25 29 -55 43 -92 43c-29 0 -56 -8 -81 -25c-26 -17 -47 -39 -63 -68
s-24 -61 -24 -96c0 -29 6 -56 18 -80s28 -43 49 -56c20 -14 42 -21 66 -21c29 0 56 9 81 26z" />
    <glyph glyph-name="uni1EDA" unicode="&#x1eda;" horiz-adv-x="848" 
d="M929 785c0 -47 -13 -89 -40 -125s-63 -62 -109 -79c40 -57 60 -122 60 -196c0 -75 -19 -143 -56 -204s-88 -109 -153 -144s-136 -53 -215 -53c-69 0 -129 14 -182 43s-95 68 -124 119s-44 108 -44 172c0 75 19 143 56 204s88 108 153 143c65 34 136 51 215 51
c59 0 113 -11 161 -32h1c3 -2 7 -4 14 -7c6 -2 12 -3 19 -3c21 0 38 8 51 25s20 36 20 59c0 15 -3 30 -10 43l172 58c7 -24 11 -49 11 -74zM519 203c25 17 45 40 60 69s22 62 22 97c0 45 -12 82 -36 111c-25 29 -55 43 -92 43c-29 0 -56 -8 -81 -25c-26 -17 -47 -39 -63 -68
s-24 -61 -24 -96c0 -29 6 -56 18 -80s28 -43 49 -56c20 -14 42 -21 66 -21c29 0 56 9 81 26zM519 934l169 -60l-162 -129l-142 10z" />
    <glyph glyph-name="uni1EE2" unicode="&#x1ee2;" horiz-adv-x="848" 
d="M929 785c0 -47 -13 -89 -40 -125s-63 -62 -109 -79c40 -57 60 -122 60 -196c0 -75 -19 -143 -56 -204s-88 -109 -153 -144s-136 -53 -215 -53c-69 0 -129 14 -182 43s-95 68 -124 119s-44 108 -44 172c0 75 19 143 56 204s88 108 153 143c65 34 136 51 215 51
c59 0 113 -11 161 -32h1c3 -2 7 -4 14 -7c6 -2 12 -3 19 -3c21 0 38 8 51 25s20 36 20 59c0 15 -3 30 -10 43l172 58c7 -24 11 -49 11 -74zM519 203c25 17 45 40 60 69s22 62 22 97c0 45 -12 82 -36 111c-25 29 -55 43 -92 43c-29 0 -56 -8 -81 -25c-26 -17 -47 -39 -63 -68
s-24 -61 -24 -96c0 -29 6 -56 18 -80s28 -43 49 -56c20 -14 42 -21 66 -21c29 0 56 9 81 26zM479 -90c17 -17 25 -40 25 -68c0 -25 -6 -48 -18 -69c-13 -21 -30 -37 -51 -48c-21 -12 -45 -18 -70 -18c-29 0 -51 9 -68 26s-26 39 -26 67c0 25 6 48 19 69c12 21 29 37 50 49
c21 11 45 17 70 17c29 0 52 -8 69 -25z" />
    <glyph glyph-name="uni1EDC" unicode="&#x1edc;" horiz-adv-x="848" 
d="M624 755l-143 -10l-138 129l170 60zM929 785c0 -47 -13 -89 -40 -125s-63 -62 -109 -79c40 -57 60 -122 60 -196c0 -75 -19 -143 -56 -204s-88 -109 -153 -144s-136 -53 -215 -53c-69 0 -129 14 -182 43s-95 68 -124 119s-44 108 -44 172c0 75 19 143 56 204
s88 108 153 143c65 34 136 51 215 51c59 0 113 -11 161 -32h1c3 -2 7 -4 14 -7c6 -2 12 -3 19 -3c21 0 38 8 51 25s20 36 20 59c0 15 -3 30 -10 43l172 58c7 -24 11 -49 11 -74zM519 203c25 17 45 40 60 69s22 62 22 97c0 45 -12 82 -36 111c-25 29 -55 43 -92 43
c-29 0 -56 -8 -81 -25c-26 -17 -47 -39 -63 -68s-24 -61 -24 -96c0 -29 6 -56 18 -80s28 -43 49 -56c20 -14 42 -21 66 -21c29 0 56 9 81 26z" />
    <glyph glyph-name="uni1EDE" unicode="&#x1ede;" horiz-adv-x="848" 
d="M929 785c0 -47 -13 -89 -40 -125s-63 -62 -109 -79c40 -57 60 -122 60 -196c0 -75 -19 -143 -56 -204s-88 -109 -153 -144s-136 -53 -215 -53c-69 0 -129 14 -182 43s-95 68 -124 119s-44 108 -44 172c0 75 19 143 56 204s88 108 153 143c65 34 136 51 215 51
c59 0 113 -11 161 -32h1c3 -2 7 -4 14 -7c6 -2 12 -3 19 -3c21 0 38 8 51 25s20 36 20 59c0 15 -3 30 -10 43l172 58c7 -24 11 -49 11 -74zM519 203c25 17 45 40 60 69s22 62 22 97c0 45 -12 82 -36 111c-25 29 -55 43 -92 43c-29 0 -56 -8 -81 -25c-26 -17 -47 -39 -63 -68
s-24 -61 -24 -96c0 -29 6 -56 18 -80s28 -43 49 -56c20 -14 42 -21 66 -21c29 0 56 9 81 26zM631 968c17 -15 26 -36 26 -61c0 -56 -42 -111 -125 -166l-85 37c19 14 35 28 46 42s16 26 16 37c0 7 -2 12 -6 16s-10 6 -17 6c-14 0 -28 -5 -42 -15l-38 83c53 29 102 44 148 44
c34 0 60 -8 77 -23z" />
    <glyph glyph-name="uni1EE0" unicode="&#x1ee0;" horiz-adv-x="848" 
d="M428 752h-117c12 61 30 106 53 135s53 43 90 43c16 0 31 -2 44 -7s28 -11 43 -20c16 -9 28 -14 37 -14c10 0 18 3 24 9c5 6 10 16 13 29h116c-12 -62 -29 -107 -51 -135c-23 -28 -53 -42 -90 -42c-17 0 -31 2 -44 7s-27 11 -43 20c-3 1 -8 4 -16 8c-9 4 -16 6 -22 6
c-19 0 -31 -13 -37 -39zM929 785c0 -47 -13 -89 -40 -125s-63 -62 -109 -79c40 -57 60 -122 60 -196c0 -75 -19 -143 -56 -204s-88 -109 -153 -144s-136 -53 -215 -53c-69 0 -129 14 -182 43s-95 68 -124 119s-44 108 -44 172c0 75 19 143 56 204s88 108 153 143
c65 34 136 51 215 51c59 0 113 -11 161 -32h1c3 -2 7 -4 14 -7c6 -2 12 -3 19 -3c21 0 38 8 51 25s20 36 20 59c0 15 -3 30 -10 43l172 58c7 -24 11 -49 11 -74zM519 203c25 17 45 40 60 69s22 62 22 97c0 45 -12 82 -36 111c-25 29 -55 43 -92 43c-29 0 -56 -8 -81 -25
c-26 -17 -47 -39 -63 -68s-24 -61 -24 -96c0 -29 6 -56 18 -80s28 -43 49 -56c20 -14 42 -21 66 -21c29 0 56 9 81 26z" />
    <glyph glyph-name="Ohungarumlaut" unicode="&#x150;" horiz-adv-x="807" 
d="M673 674c53 -29 94 -68 123 -118s44 -107 44 -171c0 -75 -19 -143 -56 -204s-88 -109 -153 -144s-136 -53 -215 -53c-69 0 -129 14 -182 43s-95 68 -124 119s-44 108 -44 172c0 75 19 143 56 204s88 108 153 143c65 34 136 51 215 51c69 0 130 -14 183 -42zM392 498
c-26 -17 -47 -39 -63 -68s-24 -61 -24 -96c0 -29 6 -56 18 -80s28 -43 49 -56c20 -14 42 -21 66 -21c29 0 56 9 81 26s45 40 60 69s22 62 22 97c0 45 -12 82 -36 111c-25 29 -55 43 -92 43c-29 0 -56 -8 -81 -25zM393 934l151 -53l-91 -136l-154 10zM614 934l151 -53
l-91 -136l-154 10z" />
    <glyph glyph-name="uni020E" unicode="&#x20e;" horiz-adv-x="807" 
d="M673 674c53 -29 94 -68 123 -118s44 -107 44 -171c0 -75 -19 -143 -56 -204s-88 -109 -153 -144s-136 -53 -215 -53c-69 0 -129 14 -182 43s-95 68 -124 119s-44 108 -44 172c0 75 19 143 56 204s88 108 153 143c65 34 136 51 215 51c69 0 130 -14 183 -42zM392 498
c-26 -17 -47 -39 -63 -68s-24 -61 -24 -96c0 -29 6 -56 18 -80s28 -43 49 -56c20 -14 42 -21 66 -21c29 0 56 9 81 26s45 40 60 69s22 62 22 97c0 45 -12 82 -36 111c-25 29 -55 43 -92 43c-29 0 -56 -8 -81 -25zM536 789c-7 9 -18 13 -31 13s-25 -4 -36 -13
s-18 -22 -23 -37h-135c13 53 40 96 79 127s86 47 139 47c47 0 85 -13 112 -38s41 -60 41 -103c0 -10 -1 -21 -3 -33h-135c1 15 -1 28 -8 37z" />
    <glyph glyph-name="Omacron" unicode="&#x14c;" horiz-adv-x="807" 
d="M673 674c53 -29 94 -68 123 -118s44 -107 44 -171c0 -75 -19 -143 -56 -204s-88 -109 -153 -144s-136 -53 -215 -53c-69 0 -129 14 -182 43s-95 68 -124 119s-44 108 -44 172c0 75 19 143 56 204s88 108 153 143c65 34 136 51 215 51c69 0 130 -14 183 -42zM392 498
c-26 -17 -47 -39 -63 -68s-24 -61 -24 -96c0 -29 6 -56 18 -80s28 -43 49 -56c20 -14 42 -21 66 -21c29 0 56 9 81 26s45 40 60 69s22 62 22 97c0 45 -12 82 -36 111c-25 29 -55 43 -92 43c-29 0 -56 -8 -81 -25zM341 880h360l-25 -128h-360z" />
    <glyph glyph-name="uni1E52" unicode="&#x1e52;" horiz-adv-x="807" 
d="M673 674c53 -29 94 -68 123 -118s44 -107 44 -171c0 -75 -19 -143 -56 -204s-88 -109 -153 -144s-136 -53 -215 -53c-69 0 -129 14 -182 43s-95 68 -124 119s-44 108 -44 172c0 75 19 143 56 204s88 108 153 143c65 34 136 51 215 51c69 0 130 -14 183 -42zM392 498
c-26 -17 -47 -39 -63 -68s-24 -61 -24 -96c0 -29 6 -56 18 -80s28 -43 49 -56c20 -14 42 -21 66 -21c29 0 56 9 81 26s45 40 60 69s22 62 22 97c0 45 -12 82 -36 111c-25 29 -55 43 -92 43c-29 0 -56 -8 -81 -25zM355 871h320l-23 -119h-320zM568 1090l139 -81l-174 -93
l-121 31z" />
    <glyph glyph-name="uni1E50" unicode="&#x1e50;" horiz-adv-x="807" 
d="M673 674c53 -29 94 -68 123 -118s44 -107 44 -171c0 -75 -19 -143 -56 -204s-88 -109 -153 -144s-136 -53 -215 -53c-69 0 -129 14 -182 43s-95 68 -124 119s-44 108 -44 172c0 75 19 143 56 204s88 108 153 143c65 34 136 51 215 51c69 0 130 -14 183 -42zM392 498
c-26 -17 -47 -39 -63 -68s-24 -61 -24 -96c0 -29 6 -56 18 -80s28 -43 49 -56c20 -14 42 -21 66 -21c29 0 56 9 81 26s45 40 60 69s22 62 22 97c0 45 -12 82 -36 111c-25 29 -55 43 -92 43c-29 0 -56 -8 -81 -25zM361 871h320l-23 -119h-320zM485 1090l156 -143l-121 -31
l-174 93z" />
    <glyph glyph-name="Oogonek" unicode="&#x1ea;" horiz-adv-x="807" 
d="M795 200c-31 -57 -73 -103 -126 -140c-34 -28 -61 -56 -82 -85s-31 -53 -31 -72c0 -13 5 -19 15 -19c7 0 16 3 27 8l8 -111c-20 -8 -38 -14 -54 -18c-17 -5 -35 -7 -54 -7c-30 0 -54 7 -73 22s-28 37 -28 66c0 27 6 52 19 75c12 23 32 46 59 69c-17 -3 -36 -4 -59 -4
c-69 0 -129 14 -182 43s-95 68 -124 119s-44 108 -44 172c0 75 19 143 56 204s88 108 153 143c65 34 136 51 215 51c69 0 130 -14 183 -42c53 -29 94 -68 123 -118s44 -107 44 -171c0 -67 -15 -129 -45 -185zM323 254c12 -24 28 -43 49 -56c20 -14 42 -21 66 -21
c29 0 56 9 81 26s45 40 60 69s22 62 22 97c0 45 -12 82 -36 111c-25 29 -55 43 -92 43c-29 0 -56 -8 -81 -25c-26 -17 -47 -39 -63 -68s-24 -61 -24 -96c0 -29 6 -56 18 -80z" />
    <glyph glyph-name="Oslash" unicode="&#xd8;" horiz-adv-x="807" 
d="M813 523c18 -42 27 -88 27 -138c0 -75 -19 -143 -56 -204s-88 -109 -153 -144s-136 -53 -215 -53c-54 0 -104 9 -151 28l-51 -67h-127l91 120c-36 30 -64 67 -83 110s-29 91 -29 143c0 75 19 143 56 204s88 108 153 143c65 34 136 51 215 51c57 0 110 -10 159 -31l53 70
h127l-94 -124c33 -30 59 -66 78 -108zM322 255l197 259c-14 6 -29 9 -46 9c-29 0 -56 -8 -81 -25c-26 -17 -47 -39 -63 -68s-24 -61 -24 -96c0 -29 6 -55 17 -79zM519 203c25 17 45 40 60 69s22 62 22 97c0 26 -4 49 -12 69l-193 -253c14 -5 28 -8 42 -8c29 0 56 9 81 26z
" />
    <glyph glyph-name="Oslashacute" unicode="&#x1fe;" horiz-adv-x="807" 
d="M813 523c18 -42 27 -88 27 -138c0 -75 -19 -143 -56 -204s-88 -109 -153 -144s-136 -53 -215 -53c-54 0 -104 9 -151 28l-51 -67h-127l91 120c-36 30 -64 67 -83 110s-29 91 -29 143c0 75 19 143 56 204s88 108 153 143c65 34 136 51 215 51c57 0 110 -10 159 -31l53 70
h127l-94 -124c33 -30 59 -66 78 -108zM322 255l197 259c-14 6 -29 9 -46 9c-29 0 -56 -8 -81 -25c-26 -17 -47 -39 -63 -68s-24 -61 -24 -96c0 -29 6 -55 17 -79zM519 203c25 17 45 40 60 69s22 62 22 97c0 26 -4 49 -12 69l-193 -253c14 -5 28 -8 42 -8c29 0 56 9 81 26z
M558 934l169 -60l-162 -129l-142 10z" />
    <glyph glyph-name="Otilde" unicode="&#xd5;" horiz-adv-x="807" 
d="M673 674c53 -29 94 -68 123 -118s44 -107 44 -171c0 -75 -19 -143 -56 -204s-88 -109 -153 -144s-136 -53 -215 -53c-69 0 -129 14 -182 43s-95 68 -124 119s-44 108 -44 172c0 75 19 143 56 204s88 108 153 143c65 34 136 51 215 51c69 0 130 -14 183 -42zM392 498
c-26 -17 -47 -39 -63 -68s-24 -61 -24 -96c0 -29 6 -56 18 -80s28 -43 49 -56c20 -14 42 -21 66 -21c29 0 56 9 81 26s45 40 60 69s22 62 22 97c0 45 -12 82 -36 111c-25 29 -55 43 -92 43c-29 0 -56 -8 -81 -25zM680 792c-23 -28 -53 -42 -90 -42c-17 0 -31 2 -44 7
s-27 11 -43 20c-3 1 -8 4 -16 8c-9 4 -16 6 -22 6c-19 0 -31 -13 -37 -39h-117c12 61 30 106 53 135s53 43 90 43c16 0 31 -2 44 -7s28 -11 43 -20c17 -9 29 -14 37 -14c10 0 18 3 24 9c5 6 10 16 13 29h116c-12 -62 -29 -107 -51 -135z" />
    <glyph glyph-name="uni1E4C" unicode="&#x1e4c;" horiz-adv-x="807" 
d="M673 674c53 -29 94 -68 123 -118s44 -107 44 -171c0 -75 -19 -143 -56 -204s-88 -109 -153 -144s-136 -53 -215 -53c-69 0 -129 14 -182 43s-95 68 -124 119s-44 108 -44 172c0 75 19 143 56 204s88 108 153 143c65 34 136 51 215 51c69 0 130 -14 183 -42zM392 498
c-26 -17 -47 -39 -63 -68s-24 -61 -24 -96c0 -29 6 -56 18 -80s28 -43 49 -56c20 -14 42 -21 66 -21c29 0 56 9 81 26s45 40 60 69s22 62 22 97c0 45 -12 82 -36 111c-25 29 -55 43 -92 43c-29 0 -56 -8 -81 -25zM703 785c-21 -23 -51 -35 -88 -35c-18 0 -34 2 -49 7
c-15 4 -32 10 -51 18c-21 9 -36 13 -44 13c-11 0 -20 -3 -25 -8c-5 -6 -9 -15 -12 -28h-100c10 51 26 88 47 112s50 36 87 36c19 0 35 -2 50 -6c14 -5 31 -11 51 -19l24 -9c7 -3 14 -4 19 -4c11 0 19 3 25 9c5 5 10 14 13 26h99c-10 -51 -25 -89 -46 -112zM609 1115l139 -81
l-174 -93l-121 31z" />
    <glyph glyph-name="uni1E4E" unicode="&#x1e4e;" horiz-adv-x="807" 
d="M673 674c53 -29 94 -68 123 -118s44 -107 44 -171c0 -75 -19 -143 -56 -204s-88 -109 -153 -144s-136 -53 -215 -53c-69 0 -129 14 -182 43s-95 68 -124 119s-44 108 -44 172c0 75 19 143 56 204s88 108 153 143c65 34 136 51 215 51c69 0 130 -14 183 -42zM392 498
c-26 -17 -47 -39 -63 -68s-24 -61 -24 -96c0 -29 6 -56 18 -80s28 -43 49 -56c20 -14 42 -21 66 -21c29 0 56 9 81 26s45 40 60 69s22 62 22 97c0 45 -12 82 -36 111c-25 29 -55 43 -92 43c-29 0 -56 -8 -81 -25zM688 786c-21 -23 -51 -35 -88 -35c-18 0 -34 2 -49 7
c-15 4 -32 10 -51 18c-21 9 -36 13 -44 13c-11 0 -20 -3 -25 -8c-5 -6 -9 -15 -12 -28h-100c10 51 26 88 47 112s50 36 87 36c19 0 35 -2 50 -6c14 -5 31 -11 51 -19l24 -9c7 -3 14 -4 19 -4c11 0 19 3 25 9c5 5 10 14 13 26h99c-10 -51 -25 -89 -46 -112zM530 1100
c13 -13 20 -31 20 -53c0 -29 -10 -54 -31 -74c-21 -21 -47 -31 -76 -31c-22 0 -40 7 -53 20s-20 31 -20 52c0 30 10 55 31 75s46 30 76 30c22 0 40 -6 53 -19zM744 1100c13 -13 20 -31 20 -53c0 -29 -10 -54 -31 -74c-21 -21 -47 -31 -76 -31c-22 0 -40 7 -53 20
s-20 31 -20 52c0 30 10 55 31 75s46 30 76 30c22 0 40 -6 53 -19z" />
    <glyph glyph-name="uni022C" unicode="&#x22c;" horiz-adv-x="807" 
d="M673 674c53 -29 94 -68 123 -118s44 -107 44 -171c0 -75 -19 -143 -56 -204s-88 -109 -153 -144s-136 -53 -215 -53c-69 0 -129 14 -182 43s-95 68 -124 119s-44 108 -44 172c0 75 19 143 56 204s88 108 153 143c65 34 136 51 215 51c69 0 130 -14 183 -42zM392 498
c-26 -17 -47 -39 -63 -68s-24 -61 -24 -96c0 -29 6 -56 18 -80s28 -43 49 -56c20 -14 42 -21 66 -21c29 0 56 9 81 26s45 40 60 69s22 62 22 97c0 45 -12 82 -36 111c-25 29 -55 43 -92 43c-29 0 -56 -8 -81 -25zM671 785c-21 -23 -51 -35 -88 -35c-18 0 -34 2 -49 7
c-15 4 -32 10 -51 18c-21 9 -36 13 -44 13c-11 0 -20 -3 -25 -8c-5 -6 -9 -15 -12 -28h-100c10 51 26 88 47 112s50 36 87 36c19 0 35 -2 50 -6c14 -5 31 -11 51 -19l24 -9c7 -3 14 -4 19 -4c11 0 19 3 25 9c5 5 10 14 13 26h99c-10 -51 -25 -89 -46 -112zM395 1060h320
l-23 -119h-320z" />
    <glyph glyph-name="OE" unicode="&#x152;" horiz-adv-x="1133" 
d="M808 525l-17 -86h328l-35 -176h-328l-17 -87h370l-36 -176h-655c-67 0 -127 14 -180 42c-53 27 -95 66 -126 116c-31 49 -46 106 -46 170c0 69 19 133 56 190s88 101 153 134s136 49 214 49h716l-36 -176h-361zM508 183l66 331h-104c-31 0 -58 -8 -83 -23
c-25 -16 -45 -38 -60 -65s-22 -57 -22 -90c0 -45 12 -81 37 -110c24 -29 56 -43 95 -43h71z" />
    <glyph glyph-name="P" unicode="P" horiz-adv-x="699" 
d="M639 649c42 -35 63 -85 63 -149c0 -63 -14 -119 -42 -167s-68 -85 -120 -111c-53 -27 -114 -40 -185 -40h-97l-36 -182h-232l140 701h329c78 0 138 -17 180 -52zM451 387c17 19 26 44 26 75c0 20 -6 36 -17 47s-27 16 -48 16h-85l-33 -167h85c30 0 54 10 72 29z" />
    <glyph glyph-name="Thorn" unicode="&#xde;" horiz-adv-x="711" 
d="M630 560c45 -37 67 -87 67 -150c0 -59 -15 -111 -45 -158c-31 -47 -73 -84 -127 -110c-54 -27 -115 -40 -183 -40h-100l-20 -102h-232l140 701h232l-17 -86h100c79 0 140 -18 185 -55zM430 307c16 19 24 42 24 71c0 19 -5 34 -14 45c-10 11 -23 16 -40 16h-90l-32 -161
h90c25 0 45 10 62 29z" />
    <glyph glyph-name="Q" unicode="Q" horiz-adv-x="810" 
d="M704 2c19 7 44 19 74 36l51 -137c-32 -23 -69 -42 -111 -56c-43 -15 -82 -22 -119 -22c-51 0 -93 15 -128 44s-57 68 -67 117c-67 1 -125 17 -176 46s-91 69 -119 119c-29 50 -43 106 -43 169c0 75 19 143 56 204s88 108 153 143c65 34 136 51 215 51
c69 0 130 -14 183 -42c53 -29 94 -68 123 -118s44 -107 44 -171c0 -81 -22 -154 -66 -219s-103 -114 -176 -145c5 -9 11 -17 20 -22c8 -6 17 -9 28 -9c19 0 38 4 58 12zM323 254c12 -24 28 -43 49 -56c20 -14 42 -21 66 -21c29 0 56 9 81 26s45 40 60 69s22 62 22 97
c0 45 -12 82 -36 111c-25 29 -55 43 -92 43c-29 0 -56 -8 -81 -25c-26 -17 -47 -39 -63 -68s-24 -61 -24 -96c0 -29 6 -56 18 -80z" />
    <glyph glyph-name="R" unicode="R" horiz-adv-x="725" 
d="M683 335c-28 -47 -68 -84 -120 -110l92 -225h-262l-48 182h-87l-36 -182h-232l140 701h339c82 0 145 -17 189 -52s66 -85 66 -150c0 -62 -14 -117 -41 -164zM294 358h107c30 0 54 10 72 29c17 19 26 44 26 75c0 20 -6 36 -17 47s-27 16 -48 16h-107z" />
    <glyph glyph-name="Racute" unicode="&#x154;" horiz-adv-x="725" 
d="M683 335c-28 -47 -68 -84 -120 -110l92 -225h-262l-48 182h-87l-36 -182h-232l140 701h339c82 0 145 -17 189 -52s66 -85 66 -150c0 -62 -14 -117 -41 -164zM294 358h107c30 0 54 10 72 29c17 19 26 44 26 75c0 20 -6 36 -17 47s-27 16 -48 16h-107zM465 934l169 -60
l-162 -129l-142 10z" />
    <glyph glyph-name="Rcaron" unicode="&#x158;" horiz-adv-x="725" 
d="M683 335c-28 -47 -68 -84 -120 -110l92 -225h-262l-48 182h-87l-36 -182h-232l140 701h339c82 0 145 -17 189 -52s66 -85 66 -150c0 -62 -14 -117 -41 -164zM294 358h107c30 0 54 10 72 29c17 19 26 44 26 75c0 20 -6 36 -17 47s-27 16 -48 16h-107zM538 914h140
l-142 -162h-188l-80 162h140l51 -71z" />
    <glyph glyph-name="Rcommaaccent" unicode="&#x156;" horiz-adv-x="725" 
d="M683 335c-28 -47 -68 -84 -120 -110l92 -225h-262l-48 182h-87l-36 -182h-232l140 701h339c82 0 145 -17 189 -52s66 -85 66 -150c0 -62 -14 -117 -41 -164zM294 358h107c30 0 54 10 72 29c17 19 26 44 26 75c0 20 -6 36 -17 47s-27 16 -48 16h-107zM197 -61h175
l-118 -183h-120z" />
    <glyph glyph-name="uni0210" unicode="&#x210;" horiz-adv-x="725" 
d="M683 335c-28 -47 -68 -84 -120 -110l92 -225h-262l-48 182h-87l-36 -182h-232l140 701h339c82 0 145 -17 189 -52s66 -85 66 -150c0 -62 -14 -117 -41 -164zM294 358h107c30 0 54 10 72 29c17 19 26 44 26 75c0 20 -6 36 -17 47s-27 16 -48 16h-107zM383 931l48 -179
l-157 -10l-63 136zM604 931l48 -179l-157 -10l-63 136z" />
    <glyph glyph-name="Rdotbelow" unicode="&#x1e5a;" horiz-adv-x="725" 
d="M683 335c-28 -47 -68 -84 -120 -110l92 -225h-262l-48 182h-87l-36 -182h-232l140 701h339c82 0 145 -17 189 -52s66 -85 66 -150c0 -62 -14 -117 -41 -164zM294 358h107c30 0 54 10 72 29c17 19 26 44 26 75c0 20 -6 36 -17 47s-27 16 -48 16h-107zM356 -90
c17 -17 25 -40 25 -68c0 -25 -6 -48 -18 -69c-13 -21 -30 -37 -51 -48c-21 -12 -45 -18 -70 -18c-29 0 -51 9 -68 26s-26 39 -26 67c0 25 6 48 19 69c12 21 29 37 50 49c21 11 45 17 70 17c29 0 52 -8 69 -25z" />
    <glyph glyph-name="uni0212" unicode="&#x212;" horiz-adv-x="725" 
d="M683 335c-28 -47 -68 -84 -120 -110l92 -225h-262l-48 182h-87l-36 -182h-232l140 701h339c82 0 145 -17 189 -52s66 -85 66 -150c0 -62 -14 -117 -41 -164zM294 358h107c30 0 54 10 72 29c17 19 26 44 26 75c0 20 -6 36 -17 47s-27 16 -48 16h-107zM482 789
c-7 9 -18 13 -31 13s-25 -4 -36 -13s-18 -22 -23 -37h-135c13 53 40 96 79 127s86 47 139 47c47 0 85 -13 112 -38s41 -60 41 -103c0 -10 -1 -21 -3 -33h-135c1 15 -1 28 -8 37z" />
    <glyph glyph-name="uni1E5E" unicode="&#x1e5e;" horiz-adv-x="725" 
d="M683 335c-28 -47 -68 -84 -120 -110l92 -225h-262l-48 182h-87l-36 -182h-232l140 701h339c82 0 145 -17 189 -52s66 -85 66 -150c0 -62 -14 -117 -41 -164zM294 358h107c30 0 54 10 72 29c17 19 26 44 26 75c0 20 -6 36 -17 47s-27 16 -48 16h-107zM135 -75h300
l-25 -128h-300z" />
    <glyph glyph-name="S" unicode="S" horiz-adv-x="650" 
d="M523 695c53 -15 98 -36 136 -61l-103 -177c-35 22 -75 41 -120 58s-83 25 -112 25c-14 0 -25 -3 -33 -8c-9 -5 -13 -14 -13 -25c0 -15 9 -26 26 -35s43 -18 80 -28c45 -13 83 -27 113 -40c29 -13 55 -34 77 -61s33 -63 33 -108c0 -55 -14 -101 -43 -138
c-29 -38 -68 -66 -116 -84c-49 -18 -102 -27 -160 -27c-62 0 -123 10 -184 31c-61 20 -113 48 -156 83l104 175c32 -31 74 -57 125 -78c51 -22 94 -33 130 -33c19 0 33 4 44 11s16 17 16 31c0 15 -9 27 -26 36c-17 8 -45 17 -83 27c-45 12 -82 24 -111 37
c-30 13 -56 32 -77 59c-22 26 -33 60 -33 103c0 50 14 94 41 132s66 67 115 88c49 20 105 30 169 30c55 0 108 -8 161 -23z" />
    <glyph glyph-name="Sacute" unicode="&#x15a;" horiz-adv-x="650" 
d="M523 695c53 -15 98 -36 136 -61l-103 -177c-35 22 -75 41 -120 58s-83 25 -112 25c-14 0 -25 -3 -33 -8c-9 -5 -13 -14 -13 -25c0 -15 9 -26 26 -35s43 -18 80 -28c45 -13 83 -27 113 -40c29 -13 55 -34 77 -61s33 -63 33 -108c0 -55 -14 -101 -43 -138
c-29 -38 -68 -66 -116 -84c-49 -18 -102 -27 -160 -27c-62 0 -123 10 -184 31c-61 20 -113 48 -156 83l104 175c32 -31 74 -57 125 -78c51 -22 94 -33 130 -33c19 0 33 4 44 11s16 17 16 31c0 15 -9 27 -26 36c-17 8 -45 17 -83 27c-45 12 -82 24 -111 37
c-30 13 -56 32 -77 59c-22 26 -33 60 -33 103c0 50 14 94 41 132s66 67 115 88c49 20 105 30 169 30c55 0 108 -8 161 -23zM393 934l169 -60l-162 -129l-142 10z" />
    <glyph glyph-name="uni1E64" unicode="&#x1e64;" horiz-adv-x="650" 
d="M523 695c53 -15 98 -36 136 -61l-103 -177c-35 22 -75 41 -120 58s-83 25 -112 25c-14 0 -25 -3 -33 -8c-9 -5 -13 -14 -13 -25c0 -15 9 -26 26 -35s43 -18 80 -28c45 -13 83 -27 113 -40c29 -13 55 -34 77 -61s33 -63 33 -108c0 -55 -14 -101 -43 -138
c-29 -38 -68 -66 -116 -84c-49 -18 -102 -27 -160 -27c-62 0 -123 10 -184 31c-61 20 -113 48 -156 83l104 175c32 -31 74 -57 125 -78c51 -22 94 -33 130 -33c19 0 33 4 44 11s16 17 16 31c0 15 -9 27 -26 36c-17 8 -45 17 -83 27c-45 12 -82 24 -111 37
c-30 13 -56 32 -77 59c-22 26 -33 60 -33 103c0 50 14 94 41 132s66 67 115 88c49 20 105 30 169 30c55 0 108 -8 161 -23zM390 916l139 -81l-174 -93l-121 31zM510 1117c14 -15 21 -34 21 -57c0 -33 -11 -60 -33 -81c-23 -22 -51 -33 -84 -33c-24 0 -43 7 -57 22
c-15 15 -22 34 -22 57c0 32 11 59 34 81c23 21 50 32 83 32c24 0 43 -7 58 -21z" />
    <glyph glyph-name="uniA78B" unicode="&#xa78b;" horiz-adv-x="342" 
d="M200 701h232l-110 -405h-202z" />
    <glyph glyph-name="Scaron" unicode="&#x160;" horiz-adv-x="650" 
d="M523 695c53 -15 98 -36 136 -61l-103 -177c-35 22 -75 41 -120 58s-83 25 -112 25c-14 0 -25 -3 -33 -8c-9 -5 -13 -14 -13 -25c0 -15 9 -26 26 -35s43 -18 80 -28c45 -13 83 -27 113 -40c29 -13 55 -34 77 -61s33 -63 33 -108c0 -55 -14 -101 -43 -138
c-29 -38 -68 -66 -116 -84c-49 -18 -102 -27 -160 -27c-62 0 -123 10 -184 31c-61 20 -113 48 -156 83l104 175c32 -31 74 -57 125 -78c51 -22 94 -33 130 -33c19 0 33 4 44 11s16 17 16 31c0 15 -9 27 -26 36c-17 8 -45 17 -83 27c-45 12 -82 24 -111 37
c-30 13 -56 32 -77 59c-22 26 -33 60 -33 103c0 50 14 94 41 132s66 67 115 88c49 20 105 30 169 30c55 0 108 -8 161 -23zM466 914h140l-142 -162h-188l-80 162h140l51 -71z" />
    <glyph glyph-name="uni1E66" unicode="&#x1e66;" horiz-adv-x="650" 
d="M523 695c53 -15 98 -36 136 -61l-103 -177c-35 22 -75 41 -120 58s-83 25 -112 25c-14 0 -25 -3 -33 -8c-9 -5 -13 -14 -13 -25c0 -15 9 -26 26 -35s43 -18 80 -28c45 -13 83 -27 113 -40c29 -13 55 -34 77 -61s33 -63 33 -108c0 -55 -14 -101 -43 -138
c-29 -38 -68 -66 -116 -84c-49 -18 -102 -27 -160 -27c-62 0 -123 10 -184 31c-61 20 -113 48 -156 83l104 175c32 -31 74 -57 125 -78c51 -22 94 -33 130 -33c19 0 33 4 44 11s16 17 16 31c0 15 -9 27 -26 36c-17 8 -45 17 -83 27c-45 12 -82 24 -111 37
c-30 13 -56 32 -77 59c-22 26 -33 60 -33 103c0 50 14 94 41 132s66 67 115 88c49 20 105 30 169 30c55 0 108 -8 161 -23zM460 890h160l-148 -138h-201l-101 138h161l51 -71zM496 1096c14 -15 21 -34 21 -57c0 -33 -11 -60 -33 -81c-23 -22 -51 -33 -84 -33
c-24 0 -43 7 -57 22c-15 15 -22 34 -22 57c0 32 11 59 34 81c23 21 50 32 83 32c24 0 43 -7 58 -21z" />
    <glyph glyph-name="Scedilla" unicode="&#x15e;" horiz-adv-x="650" 
d="M304 472c17 -9 43 -18 80 -28c45 -13 83 -27 113 -40c29 -13 55 -34 77 -61s33 -63 33 -108c0 -51 -13 -95 -38 -131c-26 -37 -60 -64 -103 -83s-92 -31 -145 -34l-24 -41c24 -7 42 -16 54 -29c11 -13 17 -29 17 -46c0 -38 -15 -67 -46 -86s-69 -29 -114 -29
c-40 0 -79 7 -117 21l49 93c15 -6 31 -9 47 -9c13 0 25 2 34 7s13 11 13 18s-5 13 -16 17s-23 6 -38 6h-20l43 84c-48 7 -94 20 -139 39c-45 18 -83 41 -116 68l104 175c32 -31 74 -57 125 -78c51 -22 94 -33 130 -33c19 0 33 4 44 11s16 17 16 31c0 15 -9 27 -26 36
c-17 8 -45 17 -83 27c-45 12 -82 24 -111 37c-30 13 -56 32 -77 59c-22 26 -33 60 -33 103c0 50 14 94 41 132s66 67 115 88c49 20 105 30 169 30c55 0 108 -8 161 -23s98 -36 136 -61l-103 -177c-35 22 -75 41 -120 58s-83 25 -112 25c-14 0 -25 -3 -33 -8
c-9 -5 -13 -14 -13 -25c0 -15 9 -26 26 -35z" />
    <glyph glyph-name="Scircumflex" unicode="&#x15c;" horiz-adv-x="650" 
d="M523 695c53 -15 98 -36 136 -61l-103 -177c-35 22 -75 41 -120 58s-83 25 -112 25c-14 0 -25 -3 -33 -8c-9 -5 -13 -14 -13 -25c0 -15 9 -26 26 -35s43 -18 80 -28c45 -13 83 -27 113 -40c29 -13 55 -34 77 -61s33 -63 33 -108c0 -55 -14 -101 -43 -138
c-29 -38 -68 -66 -116 -84c-49 -18 -102 -27 -160 -27c-62 0 -123 10 -184 31c-61 20 -113 48 -156 83l104 175c32 -31 74 -57 125 -78c51 -22 94 -33 130 -33c19 0 33 4 44 11s16 17 16 31c0 15 -9 27 -26 36c-17 8 -45 17 -83 27c-45 12 -82 24 -111 37
c-30 13 -56 32 -77 59c-22 26 -33 60 -33 103c0 50 14 94 41 132s66 67 115 88c49 20 105 30 169 30c55 0 108 -8 161 -23zM575 752h-140l-51 72l-79 -72h-140l142 162h188z" />
    <glyph glyph-name="Scommaaccent" unicode="&#x218;" horiz-adv-x="650" 
d="M523 695c53 -15 98 -36 136 -61l-103 -177c-35 22 -75 41 -120 58s-83 25 -112 25c-14 0 -25 -3 -33 -8c-9 -5 -13 -14 -13 -25c0 -15 9 -26 26 -35s43 -18 80 -28c45 -13 83 -27 113 -40c29 -13 55 -34 77 -61s33 -63 33 -108c0 -55 -14 -101 -43 -138
c-29 -38 -68 -66 -116 -84c-49 -18 -102 -27 -160 -27c-62 0 -123 10 -184 31c-61 20 -113 48 -156 83l104 175c32 -31 74 -57 125 -78c51 -22 94 -33 130 -33c19 0 33 4 44 11s16 17 16 31c0 15 -9 27 -26 36c-17 8 -45 17 -83 27c-45 12 -82 24 -111 37
c-30 13 -56 32 -77 59c-22 26 -33 60 -33 103c0 50 14 94 41 132s66 67 115 88c49 20 105 30 169 30c55 0 108 -8 161 -23zM163 -61h175l-118 -183h-120z" />
    <glyph glyph-name="uni1E60" unicode="&#x1e60;" horiz-adv-x="650" 
d="M523 695c53 -15 98 -36 136 -61l-103 -177c-35 22 -75 41 -120 58s-83 25 -112 25c-14 0 -25 -3 -33 -8c-9 -5 -13 -14 -13 -25c0 -15 9 -26 26 -35s43 -18 80 -28c45 -13 83 -27 113 -40c29 -13 55 -34 77 -61s33 -63 33 -108c0 -55 -14 -101 -43 -138
c-29 -38 -68 -66 -116 -84c-49 -18 -102 -27 -160 -27c-62 0 -123 10 -184 31c-61 20 -113 48 -156 83l104 175c32 -31 74 -57 125 -78c51 -22 94 -33 130 -33c19 0 33 4 44 11s16 17 16 31c0 15 -9 27 -26 36c-17 8 -45 17 -83 27c-45 12 -82 24 -111 37
c-30 13 -56 32 -77 59c-22 26 -33 60 -33 103c0 50 14 94 41 132s66 67 115 88c49 20 105 30 169 30c55 0 108 -8 161 -23zM484 955c17 -17 25 -40 25 -68c0 -25 -6 -48 -18 -69c-13 -21 -30 -37 -51 -48c-21 -12 -45 -18 -70 -18c-29 0 -51 9 -68 26s-26 39 -26 67
c0 25 6 48 19 69c12 21 29 37 50 49c21 11 45 17 70 17c29 0 52 -8 69 -25z" />
    <glyph glyph-name="Sdotbelow" unicode="&#x1e62;" horiz-adv-x="650" 
d="M523 695c53 -15 98 -36 136 -61l-103 -177c-35 22 -75 41 -120 58s-83 25 -112 25c-14 0 -25 -3 -33 -8c-9 -5 -13 -14 -13 -25c0 -15 9 -26 26 -35s43 -18 80 -28c45 -13 83 -27 113 -40c29 -13 55 -34 77 -61s33 -63 33 -108c0 -55 -14 -101 -43 -138
c-29 -38 -68 -66 -116 -84c-49 -18 -102 -27 -160 -27c-62 0 -123 10 -184 31c-61 20 -113 48 -156 83l104 175c32 -31 74 -57 125 -78c51 -22 94 -33 130 -33c19 0 33 4 44 11s16 17 16 31c0 15 -9 27 -26 36c-17 8 -45 17 -83 27c-45 12 -82 24 -111 37
c-30 13 -56 32 -77 59c-22 26 -33 60 -33 103c0 50 14 94 41 132s66 67 115 88c49 20 105 30 169 30c55 0 108 -8 161 -23zM322 -90c17 -17 25 -40 25 -68c0 -25 -6 -48 -18 -69c-13 -21 -30 -37 -51 -48c-21 -12 -45 -18 -70 -18c-29 0 -51 9 -68 26s-26 39 -26 67
c0 25 6 48 19 69c12 21 29 37 50 49c21 11 45 17 70 17c29 0 52 -8 69 -25z" />
    <glyph glyph-name="uni1E68" unicode="&#x1e68;" horiz-adv-x="650" 
d="M523 695c53 -15 98 -36 136 -61l-103 -177c-35 22 -75 41 -120 58s-83 25 -112 25c-14 0 -25 -3 -33 -8c-9 -5 -13 -14 -13 -25c0 -15 9 -26 26 -35s43 -18 80 -28c45 -13 83 -27 113 -40c29 -13 55 -34 77 -61s33 -63 33 -108c0 -55 -14 -101 -43 -138
c-29 -38 -68 -66 -116 -84c-49 -18 -102 -27 -160 -27c-62 0 -123 10 -184 31c-61 20 -113 48 -156 83l104 175c32 -31 74 -57 125 -78c51 -22 94 -33 130 -33c19 0 33 4 44 11s16 17 16 31c0 15 -9 27 -26 36c-17 8 -45 17 -83 27c-45 12 -82 24 -111 37
c-30 13 -56 32 -77 59c-22 26 -33 60 -33 103c0 50 14 94 41 132s66 67 115 88c49 20 105 30 169 30c55 0 108 -8 161 -23zM322 -90c17 -17 25 -40 25 -68c0 -25 -6 -48 -18 -69c-13 -21 -30 -37 -51 -48c-21 -12 -45 -18 -70 -18c-29 0 -51 9 -68 26s-26 39 -26 67
c0 25 6 48 19 69c12 21 29 37 50 49c21 11 45 17 70 17c29 0 52 -8 69 -25zM492 955c17 -17 25 -40 25 -68c0 -25 -6 -48 -18 -69c-13 -21 -30 -37 -51 -48c-21 -12 -45 -18 -70 -18c-29 0 -51 9 -68 26s-26 39 -26 67c0 25 6 48 19 69c12 21 29 37 50 49c21 11 45 17 70 17
c29 0 52 -8 69 -25z" />
    <glyph glyph-name="Germandbls" unicode="&#x1e9e;" horiz-adv-x="747" 
d="M679 338c17 -25 26 -54 26 -88c0 -15 -1 -29 -4 -42c-13 -64 -47 -115 -103 -152s-131 -56 -224 -56h-82l33 170h41c30 0 54 7 73 20c18 13 27 30 27 52c0 15 -7 27 -20 36c-13 8 -32 12 -56 12h-16l23 120l114 112c-17 3 -34 5 -51 5c-48 0 -88 -14 -120 -42
c-33 -28 -54 -67 -63 -116l-72 -369h-231l68 349c15 75 42 140 81 195c39 54 89 95 149 124s128 43 203 43c49 0 95 -6 137 -18c41 -13 78 -30 109 -52l-31 -159l-87 -89c33 -13 59 -31 76 -55z" />
    <glyph glyph-name="Schwa" unicode="&#x18f;" horiz-adv-x="788" 
d="M662 674c52 -28 93 -67 122 -116c29 -50 43 -107 43 -170c0 -75 -18 -143 -54 -204c-37 -62 -86 -111 -148 -146c-63 -36 -131 -54 -206 -54c-69 0 -130 15 -181 45c-51 29 -91 71 -118 126c-28 54 -42 118 -42 191c0 11 1 28 2 52h508c-4 37 -16 68 -37 91
s-48 34 -81 34c-27 0 -53 -8 -78 -23s-45 -36 -61 -62l-143 165c37 36 81 64 132 84c51 19 105 29 163 29c67 0 127 -14 179 -42zM519 202c22 17 39 40 51 69h-249c9 -29 23 -52 44 -69c20 -17 44 -25 73 -25c31 0 58 8 81 25z" />
    <glyph glyph-name="T" unicode="T" horiz-adv-x="642" 
d="M776 701l-37 -183h-200l-104 -518h-232l104 518h-199l37 183h631z" />
    <glyph glyph-name="Tbar" unicode="&#x166;" horiz-adv-x="642" 
d="M739 518h-200l-32 -159h112l-23 -119h-113l-48 -240h-232l48 240h-110l23 119h111l32 159h-199l37 183h631z" />
    <glyph glyph-name="Tcaron" unicode="&#x164;" horiz-adv-x="642" 
d="M776 701l-37 -183h-200l-104 -518h-232l104 518h-199l37 183h631zM583 914h140l-142 -162h-188l-80 162h140l51 -71z" />
    <glyph glyph-name="Tcedilla" unicode="&#x162;" horiz-adv-x="642" 
d="M739 518h-200l-104 -518h-53l-31 -54c24 -7 42 -16 54 -29c11 -13 17 -29 17 -46c0 -38 -15 -67 -46 -86s-69 -29 -114 -29c-40 0 -79 7 -117 21l49 93c15 -6 31 -9 47 -9c13 0 25 2 34 7s13 11 13 18s-5 13 -16 17s-23 6 -38 6h-20l47 91h-58l104 518h-199l37 183h631z
" />
    <glyph glyph-name="Tcommaaccent" unicode="&#x21a;" horiz-adv-x="642" 
d="M776 701l-37 -183h-200l-104 -518h-232l104 518h-199l37 183h631zM217 -61h175l-118 -183h-120z" />
    <glyph glyph-name="Tdotbelow" unicode="&#x1e6c;" horiz-adv-x="642" 
d="M776 701l-37 -183h-200l-104 -518h-232l104 518h-199l37 183h631zM376 -90c17 -17 25 -40 25 -68c0 -25 -6 -48 -18 -69c-13 -21 -30 -37 -51 -48c-21 -12 -45 -18 -70 -18c-29 0 -51 9 -68 26s-26 39 -26 67c0 25 6 48 19 69c12 21 29 37 50 49c21 11 45 17 70 17
c29 0 52 -8 69 -25z" />
    <glyph glyph-name="uni1E6E" unicode="&#x1e6e;" horiz-adv-x="642" 
d="M776 701l-37 -183h-200l-104 -518h-232l104 518h-199l37 183h631zM155 -75h300l-25 -128h-300z" />
    <glyph glyph-name="U" unicode="U" horiz-adv-x="754" 
d="M756 297c-12 -62 -36 -116 -71 -162s-80 -82 -133 -107c-54 -25 -114 -38 -181 -38c-59 0 -111 10 -155 30c-45 19 -79 47 -103 84c-25 37 -37 80 -37 129c0 17 2 39 7 64l81 404h232l-81 -404c-2 -9 -3 -17 -3 -26c0 -27 8 -48 25 -64s38 -24 63 -24c29 0 56 11 79 32
s38 48 45 82l81 404h232z" />
    <glyph glyph-name="Uacute" unicode="&#xda;" horiz-adv-x="754" 
d="M756 297c-12 -62 -36 -116 -71 -162s-80 -82 -133 -107c-54 -25 -114 -38 -181 -38c-59 0 -111 10 -155 30c-45 19 -79 47 -103 84c-25 37 -37 80 -37 129c0 17 2 39 7 64l81 404h232l-81 -404c-2 -9 -3 -17 -3 -26c0 -27 8 -48 25 -64s38 -24 63 -24c29 0 56 11 79 32
s38 48 45 82l81 404h232zM533 934l169 -60l-162 -129l-142 10z" />
    <glyph glyph-name="Ubreve" unicode="&#x16c;" horiz-adv-x="754" 
d="M756 297c-12 -62 -36 -116 -71 -162s-80 -82 -133 -107c-54 -25 -114 -38 -181 -38c-59 0 -111 10 -155 30c-45 19 -79 47 -103 84c-25 37 -37 80 -37 129c0 17 2 39 7 64l81 404h232l-81 -404c-2 -9 -3 -17 -3 -26c0 -27 8 -48 25 -64s38 -24 63 -24c29 0 56 11 79 32
s38 48 45 82l81 404h232zM503 885c7 -9 17 -14 30 -14s25 5 36 14s18 21 23 36h135c-13 -53 -40 -96 -79 -127s-86 -47 -139 -47c-47 0 -85 13 -112 38s-41 60 -41 103c0 10 1 21 3 33h135c-1 -15 2 -27 9 -36z" />
    <glyph glyph-name="Ucircumflex" unicode="&#xdb;" horiz-adv-x="754" 
d="M756 297c-12 -62 -36 -116 -71 -162s-80 -82 -133 -107c-54 -25 -114 -38 -181 -38c-59 0 -111 10 -155 30c-45 19 -79 47 -103 84c-25 37 -37 80 -37 129c0 17 2 39 7 64l81 404h232l-81 -404c-2 -9 -3 -17 -3 -26c0 -27 8 -48 25 -64s38 -24 63 -24c29 0 56 11 79 32
s38 48 45 82l81 404h232zM715 752h-140l-51 72l-79 -72h-140l142 162h188z" />
    <glyph glyph-name="uni0214" unicode="&#x214;" horiz-adv-x="754" 
d="M756 297c-12 -62 -36 -116 -71 -162s-80 -82 -133 -107c-54 -25 -114 -38 -181 -38c-59 0 -111 10 -155 30c-45 19 -79 47 -103 84c-25 37 -37 80 -37 129c0 17 2 39 7 64l81 404h232l-81 -404c-2 -9 -3 -17 -3 -26c0 -27 8 -48 25 -64s38 -24 63 -24c29 0 56 11 79 32
s38 48 45 82l81 404h232zM451 931l48 -179l-157 -10l-63 136zM672 931l48 -179l-157 -10l-63 136z" />
    <glyph glyph-name="Udieresis" unicode="&#xdc;" horiz-adv-x="754" 
d="M756 297c-12 -62 -36 -116 -71 -162s-80 -82 -133 -107c-54 -25 -114 -38 -181 -38c-59 0 -111 10 -155 30c-45 19 -79 47 -103 84c-25 37 -37 80 -37 129c0 17 2 39 7 64l81 404h232l-81 -404c-2 -9 -3 -17 -3 -26c0 -27 8 -48 25 -64s38 -24 63 -24c29 0 56 11 79 32
s38 48 45 82l81 404h232zM496 909c13 -13 20 -31 20 -53c0 -29 -10 -53 -31 -73c-21 -21 -47 -31 -76 -31c-22 0 -40 7 -53 20s-20 31 -20 52c0 29 11 54 32 75c21 20 46 30 75 30c22 0 40 -7 53 -20zM698 909c13 -13 20 -31 20 -53c0 -29 -10 -53 -31 -73
c-21 -21 -47 -31 -76 -31c-22 0 -40 7 -53 20s-20 31 -20 52c0 29 11 54 32 75c21 20 46 30 75 30c22 0 40 -7 53 -20z" />
    <glyph glyph-name="uni1EE4" unicode="&#x1ee4;" horiz-adv-x="754" 
d="M756 297c-12 -62 -36 -116 -71 -162s-80 -82 -133 -107c-54 -25 -114 -38 -181 -38c-59 0 -111 10 -155 30c-45 19 -79 47 -103 84c-25 37 -37 80 -37 129c0 17 2 39 7 64l81 404h232l-81 -404c-2 -9 -3 -17 -3 -26c0 -27 8 -48 25 -64s38 -24 63 -24c29 0 56 11 79 32
s38 48 45 82l81 404h232zM417 -90c17 -17 25 -40 25 -68c0 -25 -6 -48 -18 -69c-13 -21 -30 -37 -51 -48c-21 -12 -45 -18 -70 -18c-29 0 -51 9 -68 26s-26 39 -26 67c0 25 6 48 19 69c12 21 29 37 50 49c21 11 45 17 70 17c29 0 52 -8 69 -25z" />
    <glyph glyph-name="Ugrave" unicode="&#xd9;" horiz-adv-x="754" 
d="M756 297c-12 -62 -36 -116 -71 -162s-80 -82 -133 -107c-54 -25 -114 -38 -181 -38c-59 0 -111 10 -155 30c-45 19 -79 47 -103 84c-25 37 -37 80 -37 129c0 17 2 39 7 64l81 404h232l-81 -404c-2 -9 -3 -17 -3 -26c0 -27 8 -48 25 -64s38 -24 63 -24c29 0 56 11 79 32
s38 48 45 82l81 404h232zM527 934l111 -179l-143 -10l-138 129z" />
    <glyph glyph-name="uni1EE6" unicode="&#x1ee6;" horiz-adv-x="754" 
d="M756 297c-12 -62 -36 -116 -71 -162s-80 -82 -133 -107c-54 -25 -114 -38 -181 -38c-59 0 -111 10 -155 30c-45 19 -79 47 -103 84c-25 37 -37 80 -37 129c0 17 2 39 7 64l81 404h232l-81 -404c-2 -9 -3 -17 -3 -26c0 -27 8 -48 25 -64s38 -24 63 -24c29 0 56 11 79 32
s38 48 45 82l81 404h232zM645 968c17 -15 26 -36 26 -61c0 -56 -42 -111 -125 -166l-85 37c19 14 35 28 46 42s16 26 16 37c0 7 -2 12 -6 16s-10 6 -17 6c-14 0 -28 -5 -42 -15l-38 83c53 29 102 44 148 44c34 0 60 -8 77 -23z" />
    <glyph glyph-name="Uhorn" unicode="&#x1af;" horiz-adv-x="853" 
d="M981 794c0 -50 -14 -91 -42 -124s-69 -55 -122 -68l-61 -305c-12 -62 -36 -116 -71 -162s-80 -82 -133 -107c-54 -25 -114 -38 -181 -38c-59 0 -111 10 -155 30c-45 19 -79 47 -103 84c-25 37 -37 80 -37 129c0 17 2 39 7 64l81 404h232l-81 -404c-2 -9 -3 -17 -3 -26
c0 -27 8 -48 25 -64s38 -24 63 -24c29 0 56 11 79 32s38 48 45 82l81 404h152c20 0 35 7 46 20c10 13 15 29 15 47c0 14 -3 25 -8 34l164 57c5 -21 7 -43 7 -65z" />
    <glyph glyph-name="uni1EE8" unicode="&#x1ee8;" horiz-adv-x="853" 
d="M981 794c0 -50 -14 -91 -42 -124s-69 -55 -122 -68l-61 -305c-12 -62 -36 -116 -71 -162s-80 -82 -133 -107c-54 -25 -114 -38 -181 -38c-59 0 -111 10 -155 30c-45 19 -79 47 -103 84c-25 37 -37 80 -37 129c0 17 2 39 7 64l81 404h232l-81 -404c-2 -9 -3 -17 -3 -26
c0 -27 8 -48 25 -64s38 -24 63 -24c29 0 56 11 79 32s38 48 45 82l81 404h152c20 0 35 7 46 20c10 13 15 29 15 47c0 14 -3 25 -8 34l164 57c5 -21 7 -43 7 -65zM533 934l169 -60l-162 -129l-142 10z" />
    <glyph glyph-name="uni1EF0" unicode="&#x1ef0;" horiz-adv-x="852" 
d="M981 794c0 -50 -14 -91 -42 -124s-69 -55 -122 -68l-61 -305c-12 -62 -36 -116 -71 -162s-80 -82 -133 -107c-54 -25 -114 -38 -181 -38c-59 0 -111 10 -155 30c-45 19 -79 47 -103 84c-25 37 -37 80 -37 129c0 17 2 39 7 64l81 404h232l-81 -404c-2 -9 -3 -17 -3 -26
c0 -27 8 -48 25 -64s38 -24 63 -24c29 0 56 11 79 32s38 48 45 82l81 404h152c20 0 35 7 46 20c10 13 15 29 15 47c0 14 -3 25 -8 34l164 57c5 -21 7 -43 7 -65zM417 -90c17 -17 25 -40 25 -68c0 -25 -6 -48 -18 -69c-13 -21 -30 -37 -51 -48c-21 -12 -45 -18 -70 -18
c-29 0 -51 9 -68 26s-26 39 -26 67c0 25 6 48 19 69c12 21 29 37 50 49c21 11 45 17 70 17c29 0 52 -8 69 -25z" />
    <glyph glyph-name="uni1EEA" unicode="&#x1eea;" horiz-adv-x="853" 
d="M981 794c0 -50 -14 -91 -42 -124s-69 -55 -122 -68l-61 -305c-12 -62 -36 -116 -71 -162s-80 -82 -133 -107c-54 -25 -114 -38 -181 -38c-59 0 -111 10 -155 30c-45 19 -79 47 -103 84c-25 37 -37 80 -37 129c0 17 2 39 7 64l81 404h232l-81 -404c-2 -9 -3 -17 -3 -26
c0 -27 8 -48 25 -64s38 -24 63 -24c29 0 56 11 79 32s38 48 45 82l81 404h152c20 0 35 7 46 20c10 13 15 29 15 47c0 14 -3 25 -8 34l164 57c5 -21 7 -43 7 -65zM527 934l111 -179l-143 -10l-138 129z" />
    <glyph glyph-name="uni1EEC" unicode="&#x1eec;" horiz-adv-x="853" 
d="M981 794c0 -50 -14 -91 -42 -124s-69 -55 -122 -68l-61 -305c-12 -62 -36 -116 -71 -162s-80 -82 -133 -107c-54 -25 -114 -38 -181 -38c-59 0 -111 10 -155 30c-45 19 -79 47 -103 84c-25 37 -37 80 -37 129c0 17 2 39 7 64l81 404h232l-81 -404c-2 -9 -3 -17 -3 -26
c0 -27 8 -48 25 -64s38 -24 63 -24c29 0 56 11 79 32s38 48 45 82l81 404h152c20 0 35 7 46 20c10 13 15 29 15 47c0 14 -3 25 -8 34l164 57c5 -21 7 -43 7 -65zM645 968c17 -15 26 -36 26 -61c0 -56 -42 -111 -125 -166l-85 37c19 14 35 28 46 42s16 26 16 37
c0 7 -2 12 -6 16s-10 6 -17 6c-14 0 -28 -5 -42 -15l-38 83c53 29 102 44 148 44c34 0 60 -8 77 -23z" />
    <glyph glyph-name="uni1EEE" unicode="&#x1eee;" horiz-adv-x="853" 
d="M981 794c0 -50 -14 -91 -42 -124s-69 -55 -122 -68l-61 -305c-12 -62 -36 -116 -71 -162s-80 -82 -133 -107c-54 -25 -114 -38 -181 -38c-59 0 -111 10 -155 30c-45 19 -79 47 -103 84c-25 37 -37 80 -37 129c0 17 2 39 7 64l81 404h232l-81 -404c-2 -9 -3 -17 -3 -26
c0 -27 8 -48 25 -64s38 -24 63 -24c29 0 56 11 79 32s38 48 45 82l81 404h152c20 0 35 7 46 20c10 13 15 29 15 47c0 14 -3 25 -8 34l164 57c5 -21 7 -43 7 -65zM694 792c-23 -28 -53 -42 -90 -42c-17 0 -31 2 -44 7s-27 11 -43 20c-3 1 -8 4 -16 8c-9 4 -16 6 -22 6
c-19 0 -31 -13 -37 -39h-117c12 61 30 106 53 135s53 43 90 43c16 0 31 -2 44 -7s28 -11 43 -20c17 -9 29 -14 37 -14c10 0 18 3 24 9c5 6 10 16 13 29h116c-12 -62 -29 -107 -51 -135z" />
    <glyph glyph-name="Uhungarumlaut" unicode="&#x170;" horiz-adv-x="754" 
d="M756 297c-12 -62 -36 -116 -71 -162s-80 -82 -133 -107c-54 -25 -114 -38 -181 -38c-59 0 -111 10 -155 30c-45 19 -79 47 -103 84c-25 37 -37 80 -37 129c0 17 2 39 7 64l81 404h232l-81 -404c-2 -9 -3 -17 -3 -26c0 -27 8 -48 25 -64s38 -24 63 -24c29 0 56 11 79 32
s38 48 45 82l81 404h232zM407 934l151 -53l-91 -136l-154 10zM628 934l151 -53l-91 -136l-154 10z" />
    <glyph glyph-name="uni0216" unicode="&#x216;" horiz-adv-x="754" 
d="M756 297c-12 -62 -36 -116 -71 -162s-80 -82 -133 -107c-54 -25 -114 -38 -181 -38c-59 0 -111 10 -155 30c-45 19 -79 47 -103 84c-25 37 -37 80 -37 129c0 17 2 39 7 64l81 404h232l-81 -404c-2 -9 -3 -17 -3 -26c0 -27 8 -48 25 -64s38 -24 63 -24c29 0 56 11 79 32
s38 48 45 82l81 404h232zM550 789c-7 9 -18 13 -31 13s-25 -4 -36 -13s-18 -22 -23 -37h-135c13 53 40 96 79 127s86 47 139 47c47 0 85 -13 112 -38s41 -60 41 -103c0 -10 -1 -21 -3 -33h-135c1 15 -1 28 -8 37z" />
    <glyph glyph-name="Umacron" unicode="&#x16a;" horiz-adv-x="754" 
d="M756 297c-12 -62 -36 -116 -71 -162s-80 -82 -133 -107c-54 -25 -114 -38 -181 -38c-59 0 -111 10 -155 30c-45 19 -79 47 -103 84c-25 37 -37 80 -37 129c0 17 2 39 7 64l81 404h232l-81 -404c-2 -9 -3 -17 -3 -26c0 -27 8 -48 25 -64s38 -24 63 -24c29 0 56 11 79 32
s38 48 45 82l81 404h232zM355 880h360l-25 -128h-360z" />
    <glyph glyph-name="uni1E7A" unicode="&#x1e7a;" horiz-adv-x="754" 
d="M756 297c-12 -62 -36 -116 -71 -162s-80 -82 -133 -107c-54 -25 -114 -38 -181 -38c-59 0 -111 10 -155 30c-45 19 -79 47 -103 84c-25 37 -37 80 -37 129c0 17 2 39 7 64l81 404h232l-81 -404c-2 -9 -3 -17 -3 -26c0 -27 8 -48 25 -64s38 -24 63 -24c29 0 56 11 79 32
s38 48 45 82l81 404h232zM360 871h320l-23 -119h-320zM509 1074c13 -13 20 -31 20 -53c0 -29 -10 -54 -31 -74c-21 -21 -47 -31 -76 -31c-22 0 -40 7 -53 20s-20 31 -20 52c0 30 10 55 31 75s46 30 76 30c22 0 40 -6 53 -19zM723 1074c13 -13 20 -31 20 -53
c0 -29 -10 -54 -31 -74c-21 -21 -47 -31 -76 -31c-22 0 -40 7 -53 20s-20 31 -20 52c0 30 10 55 31 75s46 30 76 30c22 0 40 -6 53 -19z" />
    <glyph glyph-name="Uogonek" unicode="&#x172;" horiz-adv-x="754" 
d="M837 701l-81 -404c-10 -49 -27 -93 -51 -132s-54 -73 -90 -100c-37 -29 -66 -58 -87 -87c-22 -29 -33 -54 -33 -75c0 -13 5 -19 15 -19c7 0 16 3 27 8l8 -111c-20 -8 -38 -14 -54 -18c-17 -5 -35 -7 -54 -7c-30 0 -54 7 -73 22s-28 37 -28 66c0 28 7 54 20 77
s34 47 63 71c-20 -1 -36 -2 -48 -2c-59 0 -111 10 -155 30c-45 19 -79 47 -103 84c-25 37 -37 80 -37 129c0 17 2 39 7 64l81 404h232l-81 -404c-2 -9 -3 -17 -3 -26c0 -27 8 -48 25 -64s38 -24 63 -24c29 0 56 11 79 32s38 48 45 82l81 404h232z" />
    <glyph glyph-name="Uring" unicode="&#x16e;" horiz-adv-x="754" 
d="M756 297c-12 -62 -36 -116 -71 -162s-80 -82 -133 -107c-54 -25 -114 -38 -181 -38c-59 0 -111 10 -155 30c-45 19 -79 47 -103 84c-25 37 -37 80 -37 129c0 17 2 39 7 64l81 404h232l-81 -404c-2 -9 -3 -17 -3 -26c0 -27 8 -48 25 -64s38 -24 63 -24c29 0 56 11 79 32
s38 48 45 82l81 404h232zM624 950c21 -21 31 -47 31 -78c0 -25 -6 -48 -19 -69s-31 -38 -52 -51c-22 -13 -45 -19 -69 -19c-32 0 -58 10 -79 31s-31 47 -31 78c0 25 7 48 20 69s30 38 52 51c21 13 44 19 68 19c32 0 58 -10 79 -31zM504 883c-9 -9 -13 -19 -13 -32
c0 -9 3 -17 10 -23c6 -7 14 -10 24 -10c12 0 22 4 31 13s13 19 13 32c0 9 -3 17 -9 24c-7 6 -15 9 -25 9c-12 0 -22 -4 -31 -13z" />
    <glyph glyph-name="Utilde" unicode="&#x168;" horiz-adv-x="754" 
d="M756 297c-12 -62 -36 -116 -71 -162s-80 -82 -133 -107c-54 -25 -114 -38 -181 -38c-59 0 -111 10 -155 30c-45 19 -79 47 -103 84c-25 37 -37 80 -37 129c0 17 2 39 7 64l81 404h232l-81 -404c-2 -9 -3 -17 -3 -26c0 -27 8 -48 25 -64s38 -24 63 -24c29 0 56 11 79 32
s38 48 45 82l81 404h232zM694 792c-23 -28 -53 -42 -90 -42c-17 0 -31 2 -44 7s-27 11 -43 20c-3 1 -8 4 -16 8c-9 4 -16 6 -22 6c-19 0 -31 -13 -37 -39h-117c12 61 30 106 53 135s53 43 90 43c16 0 31 -2 44 -7s28 -11 43 -20c17 -9 29 -14 37 -14c10 0 18 3 24 9
c5 6 10 16 13 29h116c-12 -62 -29 -107 -51 -135z" />
    <glyph glyph-name="uni1E78" unicode="&#x1e78;" horiz-adv-x="754" 
d="M756 297c-12 -62 -36 -116 -71 -162s-80 -82 -133 -107c-54 -25 -114 -38 -181 -38c-59 0 -111 10 -155 30c-45 19 -79 47 -103 84c-25 37 -37 80 -37 129c0 17 2 39 7 64l81 404h232l-81 -404c-2 -9 -3 -17 -3 -26c0 -27 8 -48 25 -64s38 -24 63 -24c29 0 56 11 79 32
s38 48 45 82l81 404h232zM717 785c-21 -23 -51 -35 -88 -35c-18 0 -34 2 -49 7c-15 4 -32 10 -51 18c-21 9 -36 13 -44 13c-11 0 -20 -3 -25 -8c-5 -6 -9 -15 -12 -28h-100c10 51 26 88 47 112s50 36 87 36c19 0 35 -2 50 -6c14 -5 31 -11 51 -19l24 -9c7 -3 14 -4 19 -4
c11 0 19 3 25 9c5 5 10 14 13 26h99c-10 -51 -25 -89 -46 -112zM623 1115l139 -81l-174 -93l-121 31z" />
    <glyph glyph-name="V" unicode="V" horiz-adv-x="764" 
d="M697 701h237l-384 -701h-240l-150 701h248l69 -459z" />
    <glyph glyph-name="W" unicode="W" horiz-adv-x="1121" 
d="M1054 701h237l-345 -701h-239l-27 418l-170 -418h-239l-111 701h248l30 -459l180 458l226 1l30 -459z" />
    <glyph glyph-name="Wacute" unicode="&#x1e82;" horiz-adv-x="1121" 
d="M1054 701h237l-345 -701h-239l-27 418l-170 -418h-239l-111 701h248l30 -459l180 458l226 1l30 -459zM704 934l169 -60l-162 -129l-142 10z" />
    <glyph glyph-name="Wcircumflex" unicode="&#x174;" horiz-adv-x="1121" 
d="M1054 701h237l-345 -701h-239l-27 418l-170 -418h-239l-111 701h248l30 -459l180 458l226 1l30 -459zM886 752h-140l-51 72l-79 -72h-140l142 162h188z" />
    <glyph glyph-name="Wdieresis" unicode="&#x1e84;" horiz-adv-x="1121" 
d="M1054 701h237l-345 -701h-239l-27 418l-170 -418h-239l-111 701h248l30 -459l180 458l226 1l30 -459zM667 909c13 -13 20 -31 20 -53c0 -29 -10 -53 -31 -73c-21 -21 -47 -31 -76 -31c-22 0 -40 7 -53 20s-20 31 -20 52c0 29 11 54 32 75c21 20 46 30 75 30
c22 0 40 -7 53 -20zM869 909c13 -13 20 -31 20 -53c0 -29 -10 -53 -31 -73c-21 -21 -47 -31 -76 -31c-22 0 -40 7 -53 20s-20 31 -20 52c0 29 11 54 32 75c21 20 46 30 75 30c22 0 40 -7 53 -20z" />
    <glyph glyph-name="Wgrave" unicode="&#x1e80;" horiz-adv-x="1121" 
d="M1054 701h237l-345 -701h-239l-27 418l-170 -418h-239l-111 701h248l30 -459l180 458l226 1l30 -459zM698 934l111 -179l-143 -10l-138 129z" />
    <glyph glyph-name="X" unicode="X" horiz-adv-x="782" 
d="M776 701l-283 -334l188 -367h-278l-88 181l-146 -181h-271l305 356l-174 345h270l75 -165l129 165h273z" />
    <glyph glyph-name="Y" unicode="Y" horiz-adv-x="719" 
d="M889 701l-331 -485l-36 -216h-232l35 213l-175 488h231l96 -270l181 270h231z" />
    <glyph glyph-name="Yacute" unicode="&#xdd;" horiz-adv-x="719" 
d="M889 701l-331 -485l-36 -216h-232l35 213l-175 488h231l96 -270l181 270h231zM553 934l169 -60l-162 -129l-142 10z" />
    <glyph glyph-name="Ycircumflex" unicode="&#x176;" horiz-adv-x="719" 
d="M889 701l-331 -485l-36 -216h-232l35 213l-175 488h231l96 -270l181 270h231zM735 752h-140l-51 72l-79 -72h-140l142 162h188z" />
    <glyph glyph-name="Ydieresis" unicode="&#x178;" horiz-adv-x="719" 
d="M889 701l-331 -485l-36 -216h-232l35 213l-175 488h231l96 -270l181 270h231zM516 909c13 -13 20 -31 20 -53c0 -29 -10 -53 -31 -73c-21 -21 -47 -31 -76 -31c-22 0 -40 7 -53 20s-20 31 -20 52c0 29 11 54 32 75c21 20 46 30 75 30c22 0 40 -7 53 -20zM718 909
c13 -13 20 -31 20 -53c0 -29 -10 -53 -31 -73c-21 -21 -47 -31 -76 -31c-22 0 -40 7 -53 20s-20 31 -20 52c0 29 11 54 32 75c21 20 46 30 75 30c22 0 40 -7 53 -20z" />
    <glyph glyph-name="uni1E8E" unicode="&#x1e8e;" horiz-adv-x="719" 
d="M889 701l-331 -485l-36 -216h-232l35 213l-175 488h231l96 -270l181 270h231zM644 955c17 -17 25 -40 25 -68c0 -25 -6 -48 -18 -69c-13 -21 -30 -37 -51 -48c-21 -12 -45 -18 -70 -18c-29 0 -51 9 -68 26s-26 39 -26 67c0 25 6 48 19 69c12 21 29 37 50 49
c21 11 45 17 70 17c29 0 52 -8 69 -25z" />
    <glyph glyph-name="uni1EF4" unicode="&#x1ef4;" horiz-adv-x="719" 
d="M889 701l-331 -485l-36 -216h-232l35 213l-175 488h231l96 -270l181 270h231zM467 -90c17 -17 25 -40 25 -68c0 -25 -6 -48 -18 -69c-13 -21 -30 -37 -51 -48c-21 -12 -45 -18 -70 -18c-29 0 -51 9 -68 26s-26 39 -26 67c0 25 6 48 19 69c12 21 29 37 50 49
c21 11 45 17 70 17c29 0 52 -8 69 -25z" />
    <glyph glyph-name="Ygrave" unicode="&#x1ef2;" horiz-adv-x="719" 
d="M889 701l-331 -485l-36 -216h-232l35 213l-175 488h231l96 -270l181 270h231zM547 934l111 -179l-143 -10l-138 129z" />
    <glyph glyph-name="uni1EF6" unicode="&#x1ef6;" horiz-adv-x="719" 
d="M889 701l-331 -485l-36 -216h-232l35 213l-175 488h231l96 -270l181 270h231zM665 968c17 -15 26 -36 26 -61c0 -56 -42 -111 -125 -166l-85 37c19 14 35 28 46 42s16 26 16 37c0 7 -2 12 -6 16s-10 6 -17 6c-14 0 -28 -5 -42 -15l-38 83c53 29 102 44 148 44
c34 0 60 -8 77 -23z" />
    <glyph glyph-name="uni0232" unicode="&#x232;" horiz-adv-x="719" 
d="M889 701l-331 -485l-36 -216h-232l35 213l-175 488h231l96 -270l181 270h231zM375 880h360l-25 -128h-360z" />
    <glyph glyph-name="Ytilde" unicode="&#x1ef8;" horiz-adv-x="719" 
d="M889 701l-331 -485l-36 -216h-232l35 213l-175 488h231l96 -270l181 270h231zM714 792c-23 -28 -53 -42 -90 -42c-17 0 -31 2 -44 7s-27 11 -43 20c-3 1 -8 4 -16 8c-9 4 -16 6 -22 6c-19 0 -31 -13 -37 -39h-117c12 61 30 106 53 135s53 43 90 43c16 0 31 -2 44 -7
s28 -11 43 -20c17 -9 29 -14 37 -14c10 0 18 3 24 9c5 6 10 16 13 29h116c-12 -62 -29 -107 -51 -135z" />
    <glyph glyph-name="Z" unicode="Z" horiz-adv-x="695" 
d="M706 701l-24 -145l-389 -378h334l-30 -178h-643l24 145l391 378h-316l29 178h624z" />
    <glyph glyph-name="Zacute" unicode="&#x179;" horiz-adv-x="695" 
d="M706 701l-24 -145l-389 -378h334l-30 -178h-643l24 145l391 378h-316l29 178h624zM433 934l169 -60l-162 -129l-142 10z" />
    <glyph glyph-name="Zcaron" unicode="&#x17d;" horiz-adv-x="695" 
d="M706 701l-24 -145l-389 -378h334l-30 -178h-643l24 145l391 378h-316l29 178h624zM506 914h140l-142 -162h-188l-80 162h140l51 -71z" />
    <glyph glyph-name="Zdotaccent" unicode="&#x17b;" horiz-adv-x="695" 
d="M706 701l-24 -145l-389 -378h334l-30 -178h-643l24 145l391 378h-316l29 178h624zM524 955c17 -17 25 -40 25 -68c0 -25 -6 -48 -18 -69c-13 -21 -30 -37 -51 -48c-21 -12 -45 -18 -70 -18c-29 0 -51 9 -68 26s-26 39 -26 67c0 25 6 48 19 69c12 21 29 37 50 49
c21 11 45 17 70 17c29 0 52 -8 69 -25z" />
    <glyph glyph-name="uni1E92" unicode="&#x1e92;" horiz-adv-x="695" 
d="M706 701l-24 -145l-389 -378h334l-30 -178h-643l24 145l391 378h-316l29 178h624zM347 -90c17 -17 25 -40 25 -68c0 -25 -6 -48 -18 -69c-13 -21 -30 -37 -51 -48c-21 -12 -45 -18 -70 -18c-29 0 -51 9 -68 26s-26 39 -26 67c0 25 6 48 19 69c12 21 29 37 50 49
c21 11 45 17 70 17c29 0 52 -8 69 -25z" />
    <glyph glyph-name="Iacute_J.loclNLD" horiz-adv-x="902" 
d="M362 701l-140 -701h-232l140 701h232zM274 934l169 -60l-162 -129l-142 10zM939 701l-114 -573c-16 -77 -50 -136 -102 -177c-53 -41 -118 -61 -197 -61c-109 0 -195 43 -258 128l125 138c20 -25 41 -44 64 -55c23 -12 43 -18 60 -18c19 0 37 6 52 19s24 29 28 49l74 367
h-239l36 183h471zM737 934l169 -60l-162 -129l-142 10z" />
    <glyph glyph-name="Adieresis.alt" horiz-adv-x="799" 
d="M73 586c-10 10 -15 23 -15 39c0 22 8 41 24 56c15 15 34 23 56 23c17 0 31 -5 41 -15c10 -11 15 -24 15 -40c0 -21 -8 -40 -24 -55s-35 -23 -57 -23c-17 0 -30 5 -40 15zM697 689c10 -11 15 -24 15 -40c0 -21 -8 -40 -24 -55s-35 -23 -57 -23c-17 0 -30 5 -40 15
s-15 23 -15 39c0 22 8 41 24 56s35 23 57 23c17 0 30 -5 40 -15zM282 701h238l169 -701h-249l-18 99h-263l-53 -99h-236zM247 265h146l-37 204z" />
    <glyph glyph-name="Udieresis.alt" horiz-adv-x="754" 
d="M541 688c10 -11 15 -24 15 -40c0 -21 -8 -40 -24 -55s-35 -23 -57 -23c-17 0 -30 5 -40 15s-15 23 -15 39c0 22 8 41 24 56c15 15 34 23 56 23c17 0 31 -5 41 -15zM756 297c-12 -62 -36 -116 -71 -162s-80 -82 -133 -107c-54 -25 -114 -38 -181 -38
c-59 0 -111 10 -155 30c-45 19 -79 47 -103 84c-25 37 -37 80 -37 129c0 17 2 39 7 64l81 404h232l-81 -404c-2 -9 -3 -17 -3 -26c0 -27 8 -48 25 -64s38 -24 63 -24c29 0 56 11 79 32s38 48 45 82l81 404h232zM506 523c10 -11 15 -24 15 -40c0 -21 -8 -40 -24 -55
s-35 -23 -57 -23c-17 0 -30 5 -40 15s-15 23 -15 39c0 22 8 41 24 56s35 23 57 23c17 0 30 -5 40 -15z" />
    <glyph glyph-name="Udieresis.ss01.alt" horiz-adv-x="761" 
d="M530 688c10 -11 15 -24 15 -40c0 -21 -8 -40 -24 -55s-35 -23 -57 -23c-17 0 -30 5 -40 15s-15 23 -15 39c0 22 8 41 24 56c15 15 34 23 56 23c17 0 31 -5 41 -15zM105 36c-34 33 -51 79 -51 138c0 23 2 46 7 69l92 458h235l-80 -402c-2 -11 -3 -21 -3 -30
c0 -24 6 -43 19 -56s31 -20 55 -20c34 0 63 10 87 31c24 20 40 47 47 82l79 395h232l-140 -701h-232l20 98c-30 -37 -64 -65 -103 -84s-80 -29 -124 -29c-60 0 -107 17 -140 51zM495 523c10 -11 15 -24 15 -40c0 -21 -8 -40 -24 -55s-35 -23 -57 -23c-17 0 -30 5 -40 15
s-15 23 -15 39c0 22 8 41 24 56s35 23 57 23c17 0 30 -5 40 -15z" />
    <glyph glyph-name="A.ss01" horiz-adv-x="751" 
d="M598 687c43 -20 75 -48 98 -84s34 -78 34 -127c0 -23 -2 -45 -7 -68l-78 -408h-232l28 149h-203l-28 -149h-232l78 408c12 61 36 115 72 162s82 83 137 108s115 38 181 38c59 0 109 -10 152 -29zM494 437c0 27 -7 48 -22 63s-35 23 -61 23c-31 0 -57 -10 -79 -31
c-23 -21 -37 -49 -44 -84l-18 -93h203l18 93c2 10 3 20 3 29z" />
    <glyph glyph-name="Aacute.ss01" horiz-adv-x="751" 
d="M598 687c43 -20 75 -48 98 -84s34 -78 34 -127c0 -23 -2 -45 -7 -68l-78 -408h-232l28 149h-203l-28 -149h-232l78 408c12 61 36 115 72 162s82 83 137 108s115 38 181 38c59 0 109 -10 152 -29zM494 437c0 27 -7 48 -22 63s-35 23 -61 23c-31 0 -57 -10 -79 -31
c-23 -21 -37 -49 -44 -84l-18 -93h203l18 93c2 10 3 20 3 29zM483 934l169 -60l-162 -129l-142 10z" />
    <glyph glyph-name="Abreve.ss01" horiz-adv-x="751" 
d="M598 687c43 -20 75 -48 98 -84s34 -78 34 -127c0 -23 -2 -45 -7 -68l-78 -408h-232l28 149h-203l-28 -149h-232l78 408c12 61 36 115 72 162s82 83 137 108s115 38 181 38c59 0 109 -10 152 -29zM494 437c0 27 -7 48 -22 63s-35 23 -61 23c-31 0 -57 -10 -79 -31
c-23 -21 -37 -49 -44 -84l-18 -93h203l18 93c2 10 3 20 3 29zM453 885c7 -9 17 -14 30 -14s25 5 36 14s18 21 23 36h135c-13 -53 -40 -96 -79 -127s-86 -47 -139 -47c-47 0 -85 13 -112 38s-41 60 -41 103c0 10 1 21 3 33h135c-1 -15 2 -27 9 -36z" />
    <glyph glyph-name="uni1EAE.ss01" horiz-adv-x="751" 
d="M598 687c43 -20 75 -48 98 -84s34 -78 34 -127c0 -23 -2 -45 -7 -68l-78 -408h-232l28 149h-203l-28 -149h-232l78 408c12 61 36 115 72 162s82 83 137 108s115 38 181 38c59 0 109 -10 152 -29zM494 437c0 27 -7 48 -22 63s-35 23 -61 23c-31 0 -57 -10 -79 -31
c-23 -21 -37 -49 -44 -84l-18 -93h203l18 93c2 10 3 20 3 29zM445 868c9 -9 22 -13 39 -13s31 4 44 13c13 8 21 19 25 32h125c-12 -48 -37 -86 -76 -115s-86 -43 -140 -43c-49 0 -87 12 -114 35c-28 23 -42 55 -42 96c0 6 1 15 2 27h125c-1 -13 3 -24 12 -32zM539 1084
l139 -81l-174 -93l-121 31z" />
    <glyph glyph-name="uni1EB6.ss01" horiz-adv-x="751" 
d="M598 687c43 -20 75 -48 98 -84s34 -78 34 -127c0 -23 -2 -45 -7 -68l-78 -408h-232l28 149h-203l-28 -149h-232l78 408c12 61 36 115 72 162s82 83 137 108s115 38 181 38c59 0 109 -10 152 -29zM494 437c0 27 -7 48 -22 63s-35 23 -61 23c-31 0 -57 -10 -79 -31
c-23 -21 -37 -49 -44 -84l-18 -93h203l18 93c2 10 3 20 3 29zM367 -90c17 -17 25 -40 25 -68c0 -25 -6 -48 -18 -69c-13 -21 -30 -37 -51 -48c-21 -12 -45 -18 -70 -18c-29 0 -51 9 -68 26s-26 39 -26 67c0 25 6 48 19 69c12 21 29 37 50 49c21 11 45 17 70 17
c29 0 52 -8 69 -25zM416 885c7 -9 17 -14 30 -14s25 5 36 14s18 21 23 36h135c-13 -53 -40 -96 -79 -127s-86 -47 -139 -47c-47 0 -85 13 -112 38s-41 60 -41 103c0 10 1 21 3 33h135c-1 -15 2 -27 9 -36z" />
    <glyph glyph-name="uni1EB0.ss01" horiz-adv-x="751" 
d="M598 687c43 -20 75 -48 98 -84s34 -78 34 -127c0 -23 -2 -45 -7 -68l-78 -408h-232l28 149h-203l-28 -149h-232l78 408c12 61 36 115 72 162s82 83 137 108s115 38 181 38c59 0 109 -10 152 -29zM494 437c0 27 -7 48 -22 63s-35 23 -61 23c-31 0 -57 -10 -79 -31
c-23 -21 -37 -49 -44 -84l-18 -93h203l18 93c2 10 3 20 3 29zM445 868c9 -9 22 -13 39 -13s31 4 44 13c13 8 21 19 25 32h125c-12 -48 -37 -86 -76 -115s-86 -43 -140 -43c-49 0 -87 12 -114 35c-28 23 -42 55 -42 96c0 6 1 15 2 27h125c-1 -13 3 -24 12 -32zM450 1084
l156 -143l-121 -31l-174 93z" />
    <glyph glyph-name="uni1EB2.ss01" horiz-adv-x="751" 
d="M598 687c43 -20 75 -48 98 -84s34 -78 34 -127c0 -23 -2 -45 -7 -68l-78 -408h-232l28 149h-203l-28 -149h-232l78 408c12 61 36 115 72 162s82 83 137 108s115 38 181 38c59 0 109 -10 152 -29zM494 437c0 27 -7 48 -22 63s-35 23 -61 23c-31 0 -57 -10 -79 -31
c-23 -21 -37 -49 -44 -84l-18 -93h203l18 93c2 10 3 20 3 29zM446 868c9 -9 22 -13 39 -13s31 4 44 13c13 8 21 19 25 32h125c-12 -48 -37 -86 -76 -115s-86 -43 -140 -43c-49 0 -87 12 -114 35c-28 23 -42 55 -42 96c0 6 1 15 2 27h125c-1 -13 3 -24 12 -32zM598 1073
c14 -13 21 -28 21 -46c0 -22 -8 -42 -23 -59c-15 -18 -41 -37 -78 -58l-77 31c16 7 28 14 36 21c7 6 11 13 11 20c0 9 -6 13 -18 13c-13 0 -24 -4 -34 -11l-35 70c47 25 90 38 130 38c31 0 53 -6 67 -19z" />
    <glyph glyph-name="uni1EB4.ss01" horiz-adv-x="751" 
d="M598 687c43 -20 75 -48 98 -84s34 -78 34 -127c0 -23 -2 -45 -7 -68l-78 -408h-232l28 149h-203l-28 -149h-232l78 408c12 61 36 115 72 162s82 83 137 108s115 38 181 38c59 0 109 -10 152 -29zM494 437c0 27 -7 48 -22 63s-35 23 -61 23c-31 0 -57 -10 -79 -31
c-23 -21 -37 -49 -44 -84l-18 -93h203l18 93c2 10 3 20 3 29zM438 868c9 -9 22 -13 39 -13s31 4 44 13c13 8 21 19 25 32h125c-12 -48 -37 -86 -76 -115s-86 -43 -140 -43c-49 0 -87 12 -114 35c-28 23 -42 55 -42 96c0 6 1 15 2 27h125c-1 -13 3 -24 12 -32zM654 973
c-21 -23 -51 -35 -88 -35c-18 0 -34 2 -49 7c-15 4 -32 10 -51 18c-21 9 -36 13 -44 13c-11 0 -20 -3 -25 -8c-5 -6 -9 -15 -12 -28h-100c10 51 26 88 47 112s50 36 87 36c19 0 35 -2 50 -6c14 -5 31 -11 51 -19l24 -9c7 -3 14 -4 19 -4c11 0 19 3 25 9c5 5 10 14 13 26h99
c-10 -51 -25 -89 -46 -112z" />
    <glyph glyph-name="Acircumflex.ss01" horiz-adv-x="751" 
d="M598 687c43 -20 75 -48 98 -84s34 -78 34 -127c0 -23 -2 -45 -7 -68l-78 -408h-232l28 149h-203l-28 -149h-232l78 408c12 61 36 115 72 162s82 83 137 108s115 38 181 38c59 0 109 -10 152 -29zM494 437c0 27 -7 48 -22 63s-35 23 -61 23c-31 0 -57 -10 -79 -31
c-23 -21 -37 -49 -44 -84l-18 -93h203l18 93c2 10 3 20 3 29zM665 752h-140l-51 72l-79 -72h-140l142 162h188z" />
    <glyph glyph-name="uni1EA4.ss01" horiz-adv-x="751" 
d="M598 687c43 -20 75 -48 98 -84s34 -78 34 -127c0 -23 -2 -45 -7 -68l-78 -408h-232l28 149h-203l-28 -149h-232l78 408c12 61 36 115 72 162s82 83 137 108s115 38 181 38c59 0 109 -10 152 -29zM494 437c0 27 -7 48 -22 63s-35 23 -61 23c-31 0 -57 -10 -79 -31
c-23 -21 -37 -49 -44 -84l-18 -93h203l18 93c2 10 3 20 3 29zM685 752h-161l-51 71l-78 -71h-160l148 138h201zM537 1098l139 -81l-174 -93l-121 31z" />
    <glyph glyph-name="uni1EAC.ss01" horiz-adv-x="751" 
d="M598 687c43 -20 75 -48 98 -84s34 -78 34 -127c0 -23 -2 -45 -7 -68l-78 -408h-232l28 149h-203l-28 -149h-232l78 408c12 61 36 115 72 162s82 83 137 108s115 38 181 38c59 0 109 -10 152 -29zM494 437c0 27 -7 48 -22 63s-35 23 -61 23c-31 0 -57 -10 -79 -31
c-23 -21 -37 -49 -44 -84l-18 -93h203l18 93c2 10 3 20 3 29zM367 -90c17 -17 25 -40 25 -68c0 -25 -6 -48 -18 -69c-13 -21 -30 -37 -51 -48c-21 -12 -45 -18 -70 -18c-29 0 -51 9 -68 26s-26 39 -26 67c0 25 6 48 19 69c12 21 29 37 50 49c21 11 45 17 70 17
c29 0 52 -8 69 -25zM628 752h-140l-51 72l-79 -72h-140l142 162h188z" />
    <glyph glyph-name="uni1EA6.ss01" horiz-adv-x="751" 
d="M598 687c43 -20 75 -48 98 -84s34 -78 34 -127c0 -23 -2 -45 -7 -68l-78 -408h-232l28 149h-203l-28 -149h-232l78 408c12 61 36 115 72 162s82 83 137 108s115 38 181 38c59 0 109 -10 152 -29zM494 437c0 27 -7 48 -22 63s-35 23 -61 23c-31 0 -57 -10 -79 -31
c-23 -21 -37 -49 -44 -84l-18 -93h203l18 93c2 10 3 20 3 29zM690 752h-161l-51 71l-78 -71h-160l148 138h201zM453 1098l156 -143l-121 -31l-174 93z" />
    <glyph glyph-name="uni1EA8.ss01" horiz-adv-x="751" 
d="M598 687c43 -20 75 -48 98 -84s34 -78 34 -127c0 -23 -2 -45 -7 -68l-78 -408h-232l28 149h-203l-28 -149h-232l78 408c12 61 36 115 72 162s82 83 137 108s115 38 181 38c59 0 109 -10 152 -29zM494 437c0 27 -7 48 -22 63s-35 23 -61 23c-31 0 -57 -10 -79 -31
c-23 -21 -37 -49 -44 -84l-18 -93h203l18 93c2 10 3 20 3 29zM703 752h-161l-51 71l-78 -71h-160l148 138h201zM613 1087c14 -13 21 -28 21 -46c0 -22 -8 -42 -23 -59c-15 -18 -41 -37 -78 -58l-77 31c16 7 28 14 36 21c7 6 11 13 11 20c0 9 -6 13 -18 13
c-13 0 -24 -4 -34 -11l-35 70c47 25 90 38 130 38c31 0 53 -6 67 -19z" />
    <glyph glyph-name="uni1EAA.ss01" horiz-adv-x="751" 
d="M598 687c43 -20 75 -48 98 -84s34 -78 34 -127c0 -23 -2 -45 -7 -68l-78 -408h-232l28 149h-203l-28 -149h-232l78 408c12 61 36 115 72 162s82 83 137 108s115 38 181 38c59 0 109 -10 152 -29zM494 437c0 27 -7 48 -22 63s-35 23 -61 23c-31 0 -57 -10 -79 -31
c-23 -21 -37 -49 -44 -84l-18 -93h203l18 93c2 10 3 20 3 29zM704 752h-161l-51 71l-78 -71h-160l148 138h201zM685 957c-21 -23 -51 -35 -88 -35c-18 0 -34 2 -49 7c-15 4 -32 10 -51 18c-21 9 -36 13 -44 13c-11 0 -20 -3 -25 -8c-5 -6 -9 -15 -12 -28h-100
c10 51 26 88 47 112s50 36 87 36c19 0 35 -2 50 -6c14 -5 31 -11 51 -19l24 -9c7 -3 14 -4 19 -4c11 0 19 3 25 9c5 5 10 14 13 26h99c-10 -51 -25 -89 -46 -112z" />
    <glyph glyph-name="uni0200.ss01" horiz-adv-x="751" 
d="M598 687c43 -20 75 -48 98 -84s34 -78 34 -127c0 -23 -2 -45 -7 -68l-78 -408h-232l28 149h-203l-28 -149h-232l78 408c12 61 36 115 72 162s82 83 137 108s115 38 181 38c59 0 109 -10 152 -29zM494 437c0 27 -7 48 -22 63s-35 23 -61 23c-31 0 -57 -10 -79 -31
c-23 -21 -37 -49 -44 -84l-18 -93h203l18 93c2 10 3 20 3 29zM401 931l48 -179l-157 -10l-63 136zM622 931l48 -179l-157 -10l-63 136z" />
    <glyph glyph-name="Adieresis.ss01" horiz-adv-x="751" 
d="M598 687c43 -20 75 -48 98 -84s34 -78 34 -127c0 -23 -2 -45 -7 -68l-78 -408h-232l28 149h-203l-28 -149h-232l78 408c12 61 36 115 72 162s82 83 137 108s115 38 181 38c59 0 109 -10 152 -29zM494 437c0 27 -7 48 -22 63s-35 23 -61 23c-31 0 -57 -10 -79 -31
c-23 -21 -37 -49 -44 -84l-18 -93h203l18 93c2 10 3 20 3 29zM446 909c13 -13 20 -31 20 -53c0 -29 -10 -53 -31 -73c-21 -21 -47 -31 -76 -31c-22 0 -40 7 -53 20s-20 31 -20 52c0 29 11 54 32 75c21 20 46 30 75 30c22 0 40 -7 53 -20zM648 909c13 -13 20 -31 20 -53
c0 -29 -10 -53 -31 -73c-21 -21 -47 -31 -76 -31c-22 0 -40 7 -53 20s-20 31 -20 52c0 29 11 54 32 75c21 20 46 30 75 30c22 0 40 -7 53 -20z" />
    <glyph glyph-name="uni1EA0.ss01" horiz-adv-x="751" 
d="M598 687c43 -20 75 -48 98 -84s34 -78 34 -127c0 -23 -2 -45 -7 -68l-78 -408h-232l28 149h-203l-28 -149h-232l78 408c12 61 36 115 72 162s82 83 137 108s115 38 181 38c59 0 109 -10 152 -29zM494 437c0 27 -7 48 -22 63s-35 23 -61 23c-31 0 -57 -10 -79 -31
c-23 -21 -37 -49 -44 -84l-18 -93h203l18 93c2 10 3 20 3 29zM367 -90c17 -17 25 -40 25 -68c0 -25 -6 -48 -18 -69c-13 -21 -30 -37 -51 -48c-21 -12 -45 -18 -70 -18c-29 0 -51 9 -68 26s-26 39 -26 67c0 25 6 48 19 69c12 21 29 37 50 49c21 11 45 17 70 17
c29 0 52 -8 69 -25z" />
    <glyph glyph-name="Agrave.ss01" horiz-adv-x="751" 
d="M598 687c43 -20 75 -48 98 -84s34 -78 34 -127c0 -23 -2 -45 -7 -68l-78 -408h-232l28 149h-203l-28 -149h-232l78 408c12 61 36 115 72 162s82 83 137 108s115 38 181 38c59 0 109 -10 152 -29zM494 437c0 27 -7 48 -22 63s-35 23 -61 23c-31 0 -57 -10 -79 -31
c-23 -21 -37 -49 -44 -84l-18 -93h203l18 93c2 10 3 20 3 29zM477 934l111 -179l-143 -10l-138 129z" />
    <glyph glyph-name="uni1EA2.ss01" horiz-adv-x="751" 
d="M598 687c43 -20 75 -48 98 -84s34 -78 34 -127c0 -23 -2 -45 -7 -68l-78 -408h-232l28 149h-203l-28 -149h-232l78 408c12 61 36 115 72 162s82 83 137 108s115 38 181 38c59 0 109 -10 152 -29zM494 437c0 27 -7 48 -22 63s-35 23 -61 23c-31 0 -57 -10 -79 -31
c-23 -21 -37 -49 -44 -84l-18 -93h203l18 93c2 10 3 20 3 29zM595 968c17 -15 26 -36 26 -61c0 -56 -42 -111 -125 -166l-85 37c19 14 35 28 46 42s16 26 16 37c0 7 -2 12 -6 16s-10 6 -17 6c-14 0 -28 -5 -42 -15l-38 83c53 29 102 44 148 44c34 0 60 -8 77 -23z" />
    <glyph glyph-name="uni0202.ss01" horiz-adv-x="751" 
d="M598 687c43 -20 75 -48 98 -84s34 -78 34 -127c0 -23 -2 -45 -7 -68l-78 -408h-232l28 149h-203l-28 -149h-232l78 408c12 61 36 115 72 162s82 83 137 108s115 38 181 38c59 0 109 -10 152 -29zM494 437c0 27 -7 48 -22 63s-35 23 -61 23c-31 0 -57 -10 -79 -31
c-23 -21 -37 -49 -44 -84l-18 -93h203l18 93c2 10 3 20 3 29zM500 789c-7 9 -18 13 -31 13s-25 -4 -36 -13s-18 -22 -23 -37h-135c13 53 40 96 79 127s86 47 139 47c47 0 85 -13 112 -38s41 -60 41 -103c0 -10 -1 -21 -3 -33h-135c1 15 -1 28 -8 37z" />
    <glyph glyph-name="Amacron.ss01" horiz-adv-x="751" 
d="M598 687c43 -20 75 -48 98 -84s34 -78 34 -127c0 -23 -2 -45 -7 -68l-78 -408h-232l28 149h-203l-28 -149h-232l78 408c12 61 36 115 72 162s82 83 137 108s115 38 181 38c59 0 109 -10 152 -29zM494 437c0 27 -7 48 -22 63s-35 23 -61 23c-31 0 -57 -10 -79 -31
c-23 -21 -37 -49 -44 -84l-18 -93h203l18 93c2 10 3 20 3 29zM305 880h360l-25 -128h-360z" />
    <glyph glyph-name="Aogonek.ss01" horiz-adv-x="751" 
d="M598 687c43 -20 75 -48 98 -84s34 -78 34 -127c0 -23 -2 -45 -7 -68l-78 -408h-65c-27 -17 -48 -33 -63 -49c-16 -16 -24 -32 -24 -49c0 -12 5 -18 16 -18c7 0 16 3 27 8l8 -111c-42 -17 -80 -25 -113 -25c-32 0 -56 9 -71 26c-16 17 -24 39 -24 67c0 51 26 101 78 151
h-1l28 149h-203l-28 -149h-232l78 408c12 61 36 115 72 162s82 83 137 108s115 38 181 38c59 0 109 -10 152 -29zM473 315l18 93c2 10 3 20 3 29c0 27 -7 48 -22 63s-35 23 -61 23c-31 0 -57 -10 -79 -31c-23 -21 -37 -49 -44 -84l-18 -93h203z" />
    <glyph glyph-name="Aring.ss01" horiz-adv-x="751" 
d="M598 687c43 -20 75 -48 98 -84s34 -78 34 -127c0 -23 -2 -45 -7 -68l-78 -408h-232l28 149h-203l-28 -149h-232l78 408c12 61 36 115 72 162s82 83 137 108s115 38 181 38c59 0 109 -10 152 -29zM494 437c0 27 -7 48 -22 63s-35 23 -61 23c-31 0 -57 -10 -79 -31
c-23 -21 -37 -49 -44 -84l-18 -93h203l18 93c2 10 3 20 3 29zM574 950c21 -21 31 -47 31 -78c0 -25 -6 -48 -19 -69s-31 -38 -52 -51c-22 -13 -45 -19 -69 -19c-32 0 -58 10 -79 31s-31 47 -31 78c0 25 7 48 20 69s30 38 52 51c21 13 44 19 68 19c32 0 58 -10 79 -31z
M454 883c-9 -9 -13 -19 -13 -32c0 -9 3 -17 10 -23c6 -7 14 -10 24 -10c12 0 22 4 31 13s13 19 13 32c0 9 -3 17 -9 24c-7 6 -15 9 -25 9c-12 0 -22 -4 -31 -13z" />
    <glyph glyph-name="Aringacute.ss01" horiz-adv-x="751" 
d="M598 687c43 -20 75 -48 98 -84s34 -78 34 -127c0 -23 -2 -45 -7 -68l-78 -408h-232l28 149h-203l-28 -149h-232l78 408c12 61 36 115 72 162s82 83 137 108s115 38 181 38c59 0 109 -10 152 -29zM494 437c0 27 -7 48 -22 63s-35 23 -61 23c-31 0 -57 -10 -79 -31
c-23 -21 -37 -49 -44 -84l-18 -93h203l18 93c2 10 3 20 3 29zM572 950c21 -21 31 -47 31 -78c0 -25 -6 -48 -19 -69s-31 -38 -52 -51c-22 -13 -45 -19 -69 -19c-32 0 -58 10 -79 31s-31 47 -31 78c0 25 7 48 20 69s30 38 52 51c21 13 44 19 68 19c32 0 58 -10 79 -31z
M452 883c-9 -9 -13 -19 -13 -32c0 -9 3 -17 10 -23c6 -7 14 -10 24 -10c12 0 22 4 31 13s13 19 13 32c0 9 -3 17 -9 24c-7 6 -15 9 -25 9c-12 0 -22 -4 -31 -13zM551 1177l139 -81l-174 -93l-121 31z" />
    <glyph glyph-name="Atilde.ss01" horiz-adv-x="751" 
d="M598 687c43 -20 75 -48 98 -84s34 -78 34 -127c0 -23 -2 -45 -7 -68l-78 -408h-232l28 149h-203l-28 -149h-232l78 408c12 61 36 115 72 162s82 83 137 108s115 38 181 38c59 0 109 -10 152 -29zM494 437c0 27 -7 48 -22 63s-35 23 -61 23c-31 0 -57 -10 -79 -31
c-23 -21 -37 -49 -44 -84l-18 -93h203l18 93c2 10 3 20 3 29zM644 792c-23 -28 -53 -42 -90 -42c-17 0 -31 2 -44 7s-27 11 -43 20c-3 1 -8 4 -16 8c-9 4 -16 6 -22 6c-19 0 -31 -13 -37 -39h-117c12 61 30 106 53 135s53 43 90 43c16 0 31 -2 44 -7s28 -11 43 -20
c17 -9 29 -14 37 -14c10 0 18 3 24 9c5 6 10 16 13 29h116c-12 -62 -29 -107 -51 -135z" />
    <glyph glyph-name="uni01C4.ss01" horiz-adv-x="1456" 
d="M611 663c51 -26 90 -63 116 -110c25 -48 36 -104 33 -167c-4 -77 -25 -144 -64 -202c-39 -59 -92 -104 -158 -136s-141 -48 -225 -48h-321l139 701h297c71 0 132 -13 183 -38zM488 484c-23 25 -54 37 -93 37h-68l-67 -341h95c31 0 60 9 85 26s45 41 60 72
c14 31 21 66 21 105c0 42 -11 76 -33 101zM1486 701l-24 -145l-144 -140h77l-28 -139h-192l-102 -99h334l-30 -178h-643l24 145l157 152h-81l28 139h197l90 87h-316l29 178h624zM1286 914h140l-142 -162h-188l-80 162h140l51 -71z" />
    <glyph glyph-name="uni01C5.ss01" horiz-adv-x="1332" 
d="M611 663c51 -26 90 -63 116 -110c25 -48 36 -104 33 -167c-4 -77 -25 -144 -64 -202c-39 -59 -92 -104 -158 -136s-141 -48 -225 -48h-321l139 701h297c71 0 132 -13 183 -38zM488 484c-23 25 -54 37 -93 37h-68l-67 -341h95c31 0 60 9 85 26s45 41 60 72
c14 31 21 66 21 105c0 42 -11 76 -33 101zM1351 547l-24 -131l-104 -93h53l-21 -108h-153l-52 -47h236l-34 -168h-522l24 131l108 96h-57l21 108h157l49 44h-216l33 168h502zM1205 769h140l-142 -162h-188l-80 162h140l51 -71z" />
    <glyph glyph-name="E.ss01" horiz-adv-x="686" 
d="M616 704c49 -11 87 -24 116 -41l-106 -169c-27 12 -56 22 -87 29c-32 7 -63 10 -93 10c-35 0 -62 -5 -81 -15c-20 -11 -30 -24 -30 -41c0 -12 6 -21 18 -27c11 -7 25 -10 42 -10h193l-33 -168h-193c-30 0 -54 -5 -72 -14s-27 -22 -27 -39c0 -15 9 -27 27 -36
c17 -9 40 -13 68 -13c40 0 81 6 123 19c41 12 77 27 108 45l54 -167c-45 -25 -98 -45 -159 -60c-62 -15 -124 -23 -185 -23c-52 0 -100 7 -143 21s-78 35 -103 62c-26 27 -39 58 -39 94c0 9 1 19 3 29c8 42 28 79 59 110s71 55 120 70c-23 13 -41 30 -54 51s-19 46 -19 73
c0 11 1 22 3 34c11 59 47 106 107 140s137 51 230 51c53 0 104 -5 153 -15z" />
    <glyph glyph-name="Eacute.ss01" horiz-adv-x="686" 
d="M616 704c49 -11 87 -24 116 -41l-106 -169c-27 12 -56 22 -87 29c-32 7 -63 10 -93 10c-35 0 -62 -5 -81 -15c-20 -11 -30 -24 -30 -41c0 -12 6 -21 18 -27c11 -7 25 -10 42 -10h193l-33 -168h-193c-30 0 -54 -5 -72 -14s-27 -22 -27 -39c0 -15 9 -27 27 -36
c17 -9 40 -13 68 -13c40 0 81 6 123 19c41 12 77 27 108 45l54 -167c-45 -25 -98 -45 -159 -60c-62 -15 -124 -23 -185 -23c-52 0 -100 7 -143 21s-78 35 -103 62c-26 27 -39 58 -39 94c0 9 1 19 3 29c8 42 28 79 59 110s71 55 120 70c-23 13 -41 30 -54 51s-19 46 -19 73
c0 11 1 22 3 34c11 59 47 106 107 140s137 51 230 51c53 0 104 -5 153 -15zM498 944l169 -60l-162 -129l-142 10z" />
    <glyph glyph-name="Ebreve.ss01" horiz-adv-x="686" 
d="M616 704c49 -11 87 -24 116 -41l-106 -169c-27 12 -56 22 -87 29c-32 7 -63 10 -93 10c-35 0 -62 -5 -81 -15c-20 -11 -30 -24 -30 -41c0 -12 6 -21 18 -27c11 -7 25 -10 42 -10h193l-33 -168h-193c-30 0 -54 -5 -72 -14s-27 -22 -27 -39c0 -15 9 -27 27 -36
c17 -9 40 -13 68 -13c40 0 81 6 123 19c41 12 77 27 108 45l54 -167c-45 -25 -98 -45 -159 -60c-62 -15 -124 -23 -185 -23c-52 0 -100 7 -143 21s-78 35 -103 62c-26 27 -39 58 -39 94c0 9 1 19 3 29c8 42 28 79 59 110s71 55 120 70c-23 13 -41 30 -54 51s-19 46 -19 73
c0 11 1 22 3 34c11 59 47 106 107 140s137 51 230 51c53 0 104 -5 153 -15zM468 895c7 -9 17 -14 30 -14s25 5 36 14s18 21 23 36h135c-13 -53 -40 -96 -79 -127s-86 -47 -139 -47c-47 0 -85 13 -112 38s-41 60 -41 103c0 10 1 21 3 33h135c-1 -15 2 -27 9 -36z" />
    <glyph glyph-name="Ecaron.ss01" horiz-adv-x="686" 
d="M616 704c49 -11 87 -24 116 -41l-106 -169c-27 12 -56 22 -87 29c-32 7 -63 10 -93 10c-35 0 -62 -5 -81 -15c-20 -11 -30 -24 -30 -41c0 -12 6 -21 18 -27c11 -7 25 -10 42 -10h193l-33 -168h-193c-30 0 -54 -5 -72 -14s-27 -22 -27 -39c0 -15 9 -27 27 -36
c17 -9 40 -13 68 -13c40 0 81 6 123 19c41 12 77 27 108 45l54 -167c-45 -25 -98 -45 -159 -60c-62 -15 -124 -23 -185 -23c-52 0 -100 7 -143 21s-78 35 -103 62c-26 27 -39 58 -39 94c0 9 1 19 3 29c8 42 28 79 59 110s71 55 120 70c-23 13 -41 30 -54 51s-19 46 -19 73
c0 11 1 22 3 34c11 59 47 106 107 140s137 51 230 51c53 0 104 -5 153 -15zM571 924h140l-142 -162h-188l-80 162h140l51 -71z" />
    <glyph glyph-name="uni1E1C.ss01" horiz-adv-x="686" 
d="M330 785c-27 25 -41 60 -41 103c0 10 1 21 3 33h135c-1 -15 2 -27 9 -36s17 -14 30 -14s25 5 36 14s18 21 23 36h135c-13 -53 -40 -96 -79 -127s-86 -47 -139 -47c-47 0 -85 13 -112 38zM520 16c-47 -14 -95 -23 -144 -28l-24 -42c24 -7 42 -16 54 -29
c11 -13 17 -29 17 -46c0 -38 -15 -67 -46 -86s-69 -29 -114 -29c-40 0 -79 7 -117 21l49 93c15 -6 31 -9 47 -9c13 0 25 2 34 7s13 11 13 18s-5 13 -16 17s-23 6 -38 6h-20l40 77c-70 6 -128 24 -173 55s-68 70 -68 119c0 10 1 20 3 30c8 42 28 79 59 110s71 55 120 70
c-23 13 -41 30 -54 51s-19 46 -19 73c0 11 1 22 3 34c11 59 47 106 107 140s137 51 230 51c53 0 104 -5 153 -15c49 -11 87 -24 116 -41l-106 -169c-27 12 -56 22 -87 29c-32 7 -63 10 -93 10c-35 0 -62 -5 -81 -15c-20 -11 -30 -24 -30 -41c0 -12 6 -21 18 -27
c11 -7 25 -10 42 -10h193l-33 -168h-193c-30 0 -54 -5 -72 -14s-27 -22 -27 -39c0 -15 9 -27 27 -36c17 -9 40 -13 68 -13c40 0 81 6 123 19c41 12 77 27 108 45l54 -167c-35 -20 -76 -37 -123 -51z" />
    <glyph glyph-name="Ecircumflex.ss01" horiz-adv-x="686" 
d="M616 704c49 -11 87 -24 116 -41l-106 -169c-27 12 -56 22 -87 29c-32 7 -63 10 -93 10c-35 0 -62 -5 -81 -15c-20 -11 -30 -24 -30 -41c0 -12 6 -21 18 -27c11 -7 25 -10 42 -10h193l-33 -168h-193c-30 0 -54 -5 -72 -14s-27 -22 -27 -39c0 -15 9 -27 27 -36
c17 -9 40 -13 68 -13c40 0 81 6 123 19c41 12 77 27 108 45l54 -167c-45 -25 -98 -45 -159 -60c-62 -15 -124 -23 -185 -23c-52 0 -100 7 -143 21s-78 35 -103 62c-26 27 -39 58 -39 94c0 9 1 19 3 29c8 42 28 79 59 110s71 55 120 70c-23 13 -41 30 -54 51s-19 46 -19 73
c0 11 1 22 3 34c11 59 47 106 107 140s137 51 230 51c53 0 104 -5 153 -15zM680 762h-140l-51 72l-79 -72h-140l142 162h188z" />
    <glyph glyph-name="uni1EBE.ss01" horiz-adv-x="686" 
d="M616 704c49 -11 87 -24 116 -41l-106 -169c-27 12 -56 22 -87 29c-32 7 -63 10 -93 10c-35 0 -62 -5 -81 -15c-20 -11 -30 -24 -30 -41c0 -12 6 -21 18 -27c11 -7 25 -10 42 -10h193l-33 -168h-193c-30 0 -54 -5 -72 -14s-27 -22 -27 -39c0 -15 9 -27 27 -36
c17 -9 40 -13 68 -13c40 0 81 6 123 19c41 12 77 27 108 45l54 -167c-45 -25 -98 -45 -159 -60c-62 -15 -124 -23 -185 -23c-52 0 -100 7 -143 21s-78 35 -103 62c-26 27 -39 58 -39 94c0 9 1 19 3 29c8 42 28 79 59 110s71 55 120 70c-23 13 -41 30 -54 51s-19 46 -19 73
c0 11 1 22 3 34c11 59 47 106 107 140s137 51 230 51c53 0 104 -5 153 -15zM700 762h-161l-51 71l-78 -71h-160l148 138h201zM552 1108l139 -81l-174 -93l-121 31z" />
    <glyph glyph-name="uni1EC6.ss01" horiz-adv-x="686" 
d="M616 704c49 -11 87 -24 116 -41l-106 -169c-27 12 -56 22 -87 29c-32 7 -63 10 -93 10c-35 0 -62 -5 -81 -15c-20 -11 -30 -24 -30 -41c0 -12 6 -21 18 -27c11 -7 25 -10 42 -10h193l-33 -168h-193c-30 0 -54 -5 -72 -14s-27 -22 -27 -39c0 -15 9 -27 27 -36
c17 -9 40 -13 68 -13c40 0 81 6 123 19c41 12 77 27 108 45l54 -167c-45 -25 -98 -45 -159 -60c-62 -15 -124 -23 -185 -23c-52 0 -100 7 -143 21s-78 35 -103 62c-26 27 -39 58 -39 94c0 9 1 19 3 29c8 42 28 79 59 110s71 55 120 70c-23 13 -41 30 -54 51s-19 46 -19 73
c0 11 1 22 3 34c11 59 47 106 107 140s137 51 230 51c53 0 104 -5 153 -15zM377 -90c17 -17 25 -40 25 -68c0 -25 -6 -48 -18 -69c-13 -21 -30 -37 -51 -48c-21 -12 -45 -18 -70 -18c-29 0 -51 9 -68 26s-26 39 -26 67c0 25 6 48 19 69c12 21 29 37 50 49c21 11 45 17 70 17
c29 0 52 -8 69 -25zM638 752h-140l-51 72l-79 -72h-140l142 162h188z" />
    <glyph glyph-name="uni1EC0.ss01" horiz-adv-x="686" 
d="M616 704c49 -11 87 -24 116 -41l-106 -169c-27 12 -56 22 -87 29c-32 7 -63 10 -93 10c-35 0 -62 -5 -81 -15c-20 -11 -30 -24 -30 -41c0 -12 6 -21 18 -27c11 -7 25 -10 42 -10h193l-33 -168h-193c-30 0 -54 -5 -72 -14s-27 -22 -27 -39c0 -15 9 -27 27 -36
c17 -9 40 -13 68 -13c40 0 81 6 123 19c41 12 77 27 108 45l54 -167c-45 -25 -98 -45 -159 -60c-62 -15 -124 -23 -185 -23c-52 0 -100 7 -143 21s-78 35 -103 62c-26 27 -39 58 -39 94c0 9 1 19 3 29c8 42 28 79 59 110s71 55 120 70c-23 13 -41 30 -54 51s-19 46 -19 73
c0 11 1 22 3 34c11 59 47 106 107 140s137 51 230 51c53 0 104 -5 153 -15zM705 762h-161l-51 71l-78 -71h-160l148 138h201zM468 1108l156 -143l-121 -31l-174 93z" />
    <glyph glyph-name="uni1EC2.ss01" horiz-adv-x="686" 
d="M616 704c49 -11 87 -24 116 -41l-106 -169c-27 12 -56 22 -87 29c-32 7 -63 10 -93 10c-35 0 -62 -5 -81 -15c-20 -11 -30 -24 -30 -41c0 -12 6 -21 18 -27c11 -7 25 -10 42 -10h193l-33 -168h-193c-30 0 -54 -5 -72 -14s-27 -22 -27 -39c0 -15 9 -27 27 -36
c17 -9 40 -13 68 -13c40 0 81 6 123 19c41 12 77 27 108 45l54 -167c-45 -25 -98 -45 -159 -60c-62 -15 -124 -23 -185 -23c-52 0 -100 7 -143 21s-78 35 -103 62c-26 27 -39 58 -39 94c0 9 1 19 3 29c8 42 28 79 59 110s71 55 120 70c-23 13 -41 30 -54 51s-19 46 -19 73
c0 11 1 22 3 34c11 59 47 106 107 140s137 51 230 51c53 0 104 -5 153 -15zM718 762h-161l-51 71l-78 -71h-160l148 138h201zM628 1097c14 -13 21 -28 21 -46c0 -22 -8 -42 -23 -59c-15 -18 -41 -37 -78 -58l-77 31c16 7 28 14 36 21c7 6 11 13 11 20c0 9 -6 13 -18 13
c-13 0 -24 -4 -34 -11l-35 70c47 25 90 38 130 38c31 0 53 -6 67 -19z" />
    <glyph glyph-name="uni1EC4.ss01" horiz-adv-x="686" 
d="M616 704c49 -11 87 -24 116 -41l-106 -169c-27 12 -56 22 -87 29c-32 7 -63 10 -93 10c-35 0 -62 -5 -81 -15c-20 -11 -30 -24 -30 -41c0 -12 6 -21 18 -27c11 -7 25 -10 42 -10h193l-33 -168h-193c-30 0 -54 -5 -72 -14s-27 -22 -27 -39c0 -15 9 -27 27 -36
c17 -9 40 -13 68 -13c40 0 81 6 123 19c41 12 77 27 108 45l54 -167c-45 -25 -98 -45 -159 -60c-62 -15 -124 -23 -185 -23c-52 0 -100 7 -143 21s-78 35 -103 62c-26 27 -39 58 -39 94c0 9 1 19 3 29c8 42 28 79 59 110s71 55 120 70c-23 13 -41 30 -54 51s-19 46 -19 73
c0 11 1 22 3 34c11 59 47 106 107 140s137 51 230 51c53 0 104 -5 153 -15zM719 762h-161l-51 71l-78 -71h-160l148 138h201zM700 967c-21 -23 -51 -35 -88 -35c-18 0 -34 2 -49 7c-15 4 -32 10 -51 18c-21 9 -36 13 -44 13c-11 0 -20 -3 -25 -8c-5 -6 -9 -15 -12 -28h-100
c10 51 26 88 47 112s50 36 87 36c19 0 35 -2 50 -6c14 -5 31 -11 51 -19l24 -9c7 -3 14 -4 19 -4c11 0 19 3 25 9c5 5 10 14 13 26h99c-10 -51 -25 -89 -46 -112z" />
    <glyph glyph-name="uni0204.ss01" horiz-adv-x="686" 
d="M616 704c49 -11 87 -24 116 -41l-106 -169c-27 12 -56 22 -87 29c-32 7 -63 10 -93 10c-35 0 -62 -5 -81 -15c-20 -11 -30 -24 -30 -41c0 -12 6 -21 18 -27c11 -7 25 -10 42 -10h193l-33 -168h-193c-30 0 -54 -5 -72 -14s-27 -22 -27 -39c0 -15 9 -27 27 -36
c17 -9 40 -13 68 -13c40 0 81 6 123 19c41 12 77 27 108 45l54 -167c-45 -25 -98 -45 -159 -60c-62 -15 -124 -23 -185 -23c-52 0 -100 7 -143 21s-78 35 -103 62c-26 27 -39 58 -39 94c0 9 1 19 3 29c8 42 28 79 59 110s71 55 120 70c-23 13 -41 30 -54 51s-19 46 -19 73
c0 11 1 22 3 34c11 59 47 106 107 140s137 51 230 51c53 0 104 -5 153 -15zM416 941l48 -179l-157 -10l-63 136zM637 941l48 -179l-157 -10l-63 136z" />
    <glyph glyph-name="Edieresis.ss01" horiz-adv-x="686" 
d="M616 704c49 -11 87 -24 116 -41l-106 -169c-27 12 -56 22 -87 29c-32 7 -63 10 -93 10c-35 0 -62 -5 -81 -15c-20 -11 -30 -24 -30 -41c0 -12 6 -21 18 -27c11 -7 25 -10 42 -10h193l-33 -168h-193c-30 0 -54 -5 -72 -14s-27 -22 -27 -39c0 -15 9 -27 27 -36
c17 -9 40 -13 68 -13c40 0 81 6 123 19c41 12 77 27 108 45l54 -167c-45 -25 -98 -45 -159 -60c-62 -15 -124 -23 -185 -23c-52 0 -100 7 -143 21s-78 35 -103 62c-26 27 -39 58 -39 94c0 9 1 19 3 29c8 42 28 79 59 110s71 55 120 70c-23 13 -41 30 -54 51s-19 46 -19 73
c0 11 1 22 3 34c11 59 47 106 107 140s137 51 230 51c53 0 104 -5 153 -15zM461 919c13 -13 20 -31 20 -53c0 -29 -10 -53 -31 -73c-21 -21 -47 -31 -76 -31c-22 0 -40 7 -53 20s-20 31 -20 52c0 29 11 54 32 75c21 20 46 30 75 30c22 0 40 -7 53 -20zM663 919
c13 -13 20 -31 20 -53c0 -29 -10 -53 -31 -73c-21 -21 -47 -31 -76 -31c-22 0 -40 7 -53 20s-20 31 -20 52c0 29 11 54 32 75c21 20 46 30 75 30c22 0 40 -7 53 -20z" />
    <glyph glyph-name="Edotaccent.ss01" horiz-adv-x="686" 
d="M616 704c49 -11 87 -24 116 -41l-106 -169c-27 12 -56 22 -87 29c-32 7 -63 10 -93 10c-35 0 -62 -5 -81 -15c-20 -11 -30 -24 -30 -41c0 -12 6 -21 18 -27c11 -7 25 -10 42 -10h193l-33 -168h-193c-30 0 -54 -5 -72 -14s-27 -22 -27 -39c0 -15 9 -27 27 -36
c17 -9 40 -13 68 -13c40 0 81 6 123 19c41 12 77 27 108 45l54 -167c-45 -25 -98 -45 -159 -60c-62 -15 -124 -23 -185 -23c-52 0 -100 7 -143 21s-78 35 -103 62c-26 27 -39 58 -39 94c0 9 1 19 3 29c8 42 28 79 59 110s71 55 120 70c-23 13 -41 30 -54 51s-19 46 -19 73
c0 11 1 22 3 34c11 59 47 106 107 140s137 51 230 51c53 0 104 -5 153 -15zM589 965c17 -17 25 -40 25 -68c0 -25 -6 -48 -18 -69c-13 -21 -30 -37 -51 -48c-21 -12 -45 -18 -70 -18c-29 0 -51 9 -68 26s-26 39 -26 67c0 25 6 48 19 69c12 21 29 37 50 49c21 11 45 17 70 17
c29 0 52 -8 69 -25z" />
    <glyph glyph-name="uni1EB8.ss01" horiz-adv-x="686" 
d="M616 704c49 -11 87 -24 116 -41l-106 -169c-27 12 -56 22 -87 29c-32 7 -63 10 -93 10c-35 0 -62 -5 -81 -15c-20 -11 -30 -24 -30 -41c0 -12 6 -21 18 -27c11 -7 25 -10 42 -10h193l-33 -168h-193c-30 0 -54 -5 -72 -14s-27 -22 -27 -39c0 -15 9 -27 27 -36
c17 -9 40 -13 68 -13c40 0 81 6 123 19c41 12 77 27 108 45l54 -167c-45 -25 -98 -45 -159 -60c-62 -15 -124 -23 -185 -23c-52 0 -100 7 -143 21s-78 35 -103 62c-26 27 -39 58 -39 94c0 9 1 19 3 29c8 42 28 79 59 110s71 55 120 70c-23 13 -41 30 -54 51s-19 46 -19 73
c0 11 1 22 3 34c11 59 47 106 107 140s137 51 230 51c53 0 104 -5 153 -15zM377 -90c17 -17 25 -40 25 -68c0 -25 -6 -48 -18 -69c-13 -21 -30 -37 -51 -48c-21 -12 -45 -18 -70 -18c-29 0 -51 9 -68 26s-26 39 -26 67c0 25 6 48 19 69c12 21 29 37 50 49c21 11 45 17 70 17
c29 0 52 -8 69 -25z" />
    <glyph glyph-name="Egrave.ss01" horiz-adv-x="686" 
d="M616 704c49 -11 87 -24 116 -41l-106 -169c-27 12 -56 22 -87 29c-32 7 -63 10 -93 10c-35 0 -62 -5 -81 -15c-20 -11 -30 -24 -30 -41c0 -12 6 -21 18 -27c11 -7 25 -10 42 -10h193l-33 -168h-193c-30 0 -54 -5 -72 -14s-27 -22 -27 -39c0 -15 9 -27 27 -36
c17 -9 40 -13 68 -13c40 0 81 6 123 19c41 12 77 27 108 45l54 -167c-45 -25 -98 -45 -159 -60c-62 -15 -124 -23 -185 -23c-52 0 -100 7 -143 21s-78 35 -103 62c-26 27 -39 58 -39 94c0 9 1 19 3 29c8 42 28 79 59 110s71 55 120 70c-23 13 -41 30 -54 51s-19 46 -19 73
c0 11 1 22 3 34c11 59 47 106 107 140s137 51 230 51c53 0 104 -5 153 -15zM492 944l111 -179l-143 -10l-138 129z" />
    <glyph glyph-name="uni1EBA.ss01" horiz-adv-x="686" 
d="M616 704c49 -11 87 -24 116 -41l-106 -169c-27 12 -56 22 -87 29c-32 7 -63 10 -93 10c-35 0 -62 -5 -81 -15c-20 -11 -30 -24 -30 -41c0 -12 6 -21 18 -27c11 -7 25 -10 42 -10h193l-33 -168h-193c-30 0 -54 -5 -72 -14s-27 -22 -27 -39c0 -15 9 -27 27 -36
c17 -9 40 -13 68 -13c40 0 81 6 123 19c41 12 77 27 108 45l54 -167c-45 -25 -98 -45 -159 -60c-62 -15 -124 -23 -185 -23c-52 0 -100 7 -143 21s-78 35 -103 62c-26 27 -39 58 -39 94c0 9 1 19 3 29c8 42 28 79 59 110s71 55 120 70c-23 13 -41 30 -54 51s-19 46 -19 73
c0 11 1 22 3 34c11 59 47 106 107 140s137 51 230 51c53 0 104 -5 153 -15zM610 978c17 -15 26 -36 26 -61c0 -56 -42 -111 -125 -166l-85 37c19 14 35 28 46 42s16 26 16 37c0 7 -2 12 -6 16s-10 6 -17 6c-14 0 -28 -5 -42 -15l-38 83c53 29 102 44 148 44
c34 0 60 -8 77 -23z" />
    <glyph glyph-name="uni0206.ss01" horiz-adv-x="686" 
d="M616 704c49 -11 87 -24 116 -41l-106 -169c-27 12 -56 22 -87 29c-32 7 -63 10 -93 10c-35 0 -62 -5 -81 -15c-20 -11 -30 -24 -30 -41c0 -12 6 -21 18 -27c11 -7 25 -10 42 -10h193l-33 -168h-193c-30 0 -54 -5 -72 -14s-27 -22 -27 -39c0 -15 9 -27 27 -36
c17 -9 40 -13 68 -13c40 0 81 6 123 19c41 12 77 27 108 45l54 -167c-45 -25 -98 -45 -159 -60c-62 -15 -124 -23 -185 -23c-52 0 -100 7 -143 21s-78 35 -103 62c-26 27 -39 58 -39 94c0 9 1 19 3 29c8 42 28 79 59 110s71 55 120 70c-23 13 -41 30 -54 51s-19 46 -19 73
c0 11 1 22 3 34c11 59 47 106 107 140s137 51 230 51c53 0 104 -5 153 -15zM515 799c-7 9 -18 13 -31 13s-25 -4 -36 -13s-18 -22 -23 -37h-135c13 53 40 96 79 127s86 47 139 47c47 0 85 -13 112 -38s41 -60 41 -103c0 -10 -1 -21 -3 -33h-135c1 15 -1 28 -8 37z" />
    <glyph glyph-name="Emacron.ss01" horiz-adv-x="686" 
d="M616 704c49 -11 87 -24 116 -41l-106 -169c-27 12 -56 22 -87 29c-32 7 -63 10 -93 10c-35 0 -62 -5 -81 -15c-20 -11 -30 -24 -30 -41c0 -12 6 -21 18 -27c11 -7 25 -10 42 -10h193l-33 -168h-193c-30 0 -54 -5 -72 -14s-27 -22 -27 -39c0 -15 9 -27 27 -36
c17 -9 40 -13 68 -13c40 0 81 6 123 19c41 12 77 27 108 45l54 -167c-45 -25 -98 -45 -159 -60c-62 -15 -124 -23 -185 -23c-52 0 -100 7 -143 21s-78 35 -103 62c-26 27 -39 58 -39 94c0 9 1 19 3 29c8 42 28 79 59 110s71 55 120 70c-23 13 -41 30 -54 51s-19 46 -19 73
c0 11 1 22 3 34c11 59 47 106 107 140s137 51 230 51c53 0 104 -5 153 -15zM320 890h360l-25 -128h-360z" />
    <glyph glyph-name="uni1E16.ss01" horiz-adv-x="686" 
d="M616 704c49 -11 87 -24 116 -41l-106 -169c-27 12 -56 22 -87 29c-32 7 -63 10 -93 10c-35 0 -62 -5 -81 -15c-20 -11 -30 -24 -30 -41c0 -12 6 -21 18 -27c11 -7 25 -10 42 -10h193l-33 -168h-193c-30 0 -54 -5 -72 -14s-27 -22 -27 -39c0 -15 9 -27 27 -36
c17 -9 40 -13 68 -13c40 0 81 6 123 19c41 12 77 27 108 45l54 -167c-45 -25 -98 -45 -159 -60c-62 -15 -124 -23 -185 -23c-52 0 -100 7 -143 21s-78 35 -103 62c-26 27 -39 58 -39 94c0 9 1 19 3 29c8 42 28 79 59 110s71 55 120 70c-23 13 -41 30 -54 51s-19 46 -19 73
c0 11 1 22 3 34c11 59 47 106 107 140s137 51 230 51c53 0 104 -5 153 -15zM334 881h320l-23 -119h-320zM547 1100l139 -81l-174 -93l-121 31z" />
    <glyph glyph-name="uni1E14.ss01" horiz-adv-x="686" 
d="M616 704c49 -11 87 -24 116 -41l-106 -169c-27 12 -56 22 -87 29c-32 7 -63 10 -93 10c-35 0 -62 -5 -81 -15c-20 -11 -30 -24 -30 -41c0 -12 6 -21 18 -27c11 -7 25 -10 42 -10h193l-33 -168h-193c-30 0 -54 -5 -72 -14s-27 -22 -27 -39c0 -15 9 -27 27 -36
c17 -9 40 -13 68 -13c40 0 81 6 123 19c41 12 77 27 108 45l54 -167c-45 -25 -98 -45 -159 -60c-62 -15 -124 -23 -185 -23c-52 0 -100 7 -143 21s-78 35 -103 62c-26 27 -39 58 -39 94c0 9 1 19 3 29c8 42 28 79 59 110s71 55 120 70c-23 13 -41 30 -54 51s-19 46 -19 73
c0 11 1 22 3 34c11 59 47 106 107 140s137 51 230 51c53 0 104 -5 153 -15zM340 881h320l-23 -119h-320zM464 1100l156 -143l-121 -31l-174 93z" />
    <glyph glyph-name="Eogonek.ss01" horiz-adv-x="686" 
d="M481 189c41 12 77 27 108 45l54 -167c-37 -29 -66 -58 -88 -88c-23 -30 -34 -55 -34 -76c0 -13 5 -19 15 -19c7 0 16 3 27 8l8 -111c-20 -8 -38 -14 -54 -18c-17 -5 -35 -7 -54 -7c-30 0 -54 7 -73 22s-28 37 -28 66s7 55 22 80s38 50 71 76c-55 -11 -107 -16 -156 -16
c-52 0 -100 7 -143 21s-78 35 -103 62c-26 27 -39 58 -39 94c0 9 1 19 3 29c8 42 28 79 59 110s71 55 120 70c-23 13 -41 30 -54 51s-19 46 -19 73c0 11 1 22 3 34c11 59 47 106 107 140s137 51 230 51c53 0 104 -5 153 -15c49 -11 87 -24 116 -41l-106 -169
c-27 12 -56 22 -87 29c-32 7 -63 10 -93 10c-35 0 -62 -5 -81 -15c-20 -11 -30 -24 -30 -41c0 -12 6 -21 18 -27c11 -7 25 -10 42 -10h193l-33 -168h-193c-30 0 -54 -5 -72 -14s-27 -22 -27 -39c0 -15 9 -27 27 -36c17 -9 40 -13 68 -13c40 0 81 6 123 19z" />
    <glyph glyph-name="uni1EBC.ss01" horiz-adv-x="686" 
d="M616 704c49 -11 87 -24 116 -41l-106 -169c-27 12 -56 22 -87 29c-32 7 -63 10 -93 10c-35 0 -62 -5 -81 -15c-20 -11 -30 -24 -30 -41c0 -12 6 -21 18 -27c11 -7 25 -10 42 -10h193l-33 -168h-193c-30 0 -54 -5 -72 -14s-27 -22 -27 -39c0 -15 9 -27 27 -36
c17 -9 40 -13 68 -13c40 0 81 6 123 19c41 12 77 27 108 45l54 -167c-45 -25 -98 -45 -159 -60c-62 -15 -124 -23 -185 -23c-52 0 -100 7 -143 21s-78 35 -103 62c-26 27 -39 58 -39 94c0 9 1 19 3 29c8 42 28 79 59 110s71 55 120 70c-23 13 -41 30 -54 51s-19 46 -19 73
c0 11 1 22 3 34c11 59 47 106 107 140s137 51 230 51c53 0 104 -5 153 -15zM659 802c-23 -28 -53 -42 -90 -42c-17 0 -31 2 -44 7s-27 11 -43 20c-3 1 -8 4 -16 8c-9 4 -16 6 -22 6c-19 0 -31 -13 -37 -39h-117c12 61 30 106 53 135s53 43 90 43c16 0 31 -2 44 -7
s28 -11 43 -20c17 -9 29 -14 37 -14c10 0 18 3 24 9c5 6 10 16 13 29h116c-12 -62 -29 -107 -51 -135z" />
    <glyph glyph-name="F.ss01" horiz-adv-x="575" 
d="M327 500c-19 -15 -31 -34 -35 -55l-8 -40h251l-35 -176h-251l-46 -229h-233l94 468c15 77 51 138 108 182s126 66 209 66c51 0 101 -5 149 -14c48 -10 87 -23 118 -38l-78 -183c-28 13 -59 23 -92 31c-33 7 -62 11 -87 11c-24 0 -45 -8 -64 -23z" />
    <glyph glyph-name="G.ss01" horiz-adv-x="747" 
d="M574 370h199l-73 -370h-169l6 30c-52 -31 -103 -46 -154 -46c-63 0 -118 14 -166 43c-49 28 -86 67 -113 118c-27 50 -40 107 -40 170c0 75 19 144 57 205s90 109 156 144c65 35 138 52 217 52c55 0 110 -10 164 -30c53 -20 97 -47 132 -80l-147 -159
c-21 23 -46 41 -76 55c-31 14 -61 21 -90 21c-31 0 -60 -8 -87 -25s-48 -40 -63 -69c-16 -29 -24 -62 -24 -97c0 -45 12 -82 35 -111s54 -44 92 -44c19 0 39 4 60 13s39 20 56 35z" />
    <glyph glyph-name="Gbreve.ss01" horiz-adv-x="747" 
d="M574 370h199l-73 -370h-169l6 30c-52 -31 -103 -46 -154 -46c-63 0 -118 14 -166 43c-49 28 -86 67 -113 118c-27 50 -40 107 -40 170c0 75 19 144 57 205s90 109 156 144c65 35 138 52 217 52c55 0 110 -10 164 -30c53 -20 97 -47 132 -80l-147 -159
c-21 23 -46 41 -76 55c-31 14 -61 21 -90 21c-31 0 -60 -8 -87 -25s-48 -40 -63 -69c-16 -29 -24 -62 -24 -97c0 -45 12 -82 35 -111s54 -44 92 -44c19 0 39 4 60 13s39 20 56 35zM488 885c7 -9 17 -14 30 -14s25 5 36 14s18 21 23 36h135c-13 -53 -40 -96 -79 -127
s-86 -47 -139 -47c-47 0 -85 13 -112 38s-41 60 -41 103c0 10 1 21 3 33h135c-1 -15 2 -27 9 -36z" />
    <glyph glyph-name="Gcaron.ss01" horiz-adv-x="747" 
d="M574 370h199l-73 -370h-169l6 30c-52 -31 -103 -46 -154 -46c-63 0 -118 14 -166 43c-49 28 -86 67 -113 118c-27 50 -40 107 -40 170c0 75 19 144 57 205s90 109 156 144c65 35 138 52 217 52c55 0 110 -10 164 -30c53 -20 97 -47 132 -80l-147 -159
c-21 23 -46 41 -76 55c-31 14 -61 21 -90 21c-31 0 -60 -8 -87 -25s-48 -40 -63 -69c-16 -29 -24 -62 -24 -97c0 -45 12 -82 35 -111s54 -44 92 -44c19 0 39 4 60 13s39 20 56 35zM591 914h140l-142 -162h-188l-80 162h140l51 -71z" />
    <glyph glyph-name="Gcircumflex.ss01" horiz-adv-x="747" 
d="M574 370h199l-73 -370h-169l6 30c-52 -31 -103 -46 -154 -46c-63 0 -118 14 -166 43c-49 28 -86 67 -113 118c-27 50 -40 107 -40 170c0 75 19 144 57 205s90 109 156 144c65 35 138 52 217 52c55 0 110 -10 164 -30c53 -20 97 -47 132 -80l-147 -159
c-21 23 -46 41 -76 55c-31 14 -61 21 -90 21c-31 0 -60 -8 -87 -25s-48 -40 -63 -69c-16 -29 -24 -62 -24 -97c0 -45 12 -82 35 -111s54 -44 92 -44c19 0 39 4 60 13s39 20 56 35zM700 752h-140l-51 72l-79 -72h-140l142 162h188z" />
    <glyph glyph-name="Gcommaaccent.ss01" horiz-adv-x="747" 
d="M574 370h199l-73 -370h-169l6 30c-52 -31 -103 -46 -154 -46c-63 0 -118 14 -166 43c-49 28 -86 67 -113 118c-27 50 -40 107 -40 170c0 75 19 144 57 205s90 109 156 144c65 35 138 52 217 52c55 0 110 -10 164 -30c53 -20 97 -47 132 -80l-147 -159
c-21 23 -46 41 -76 55c-31 14 -61 21 -90 21c-31 0 -60 -8 -87 -25s-48 -40 -63 -69c-16 -29 -24 -62 -24 -97c0 -45 12 -82 35 -111s54 -44 92 -44c19 0 39 4 60 13s39 20 56 35zM330 -61h175l-118 -183h-120z" />
    <glyph glyph-name="Gdotaccent.ss01" horiz-adv-x="747" 
d="M574 370h199l-73 -370h-169l6 30c-52 -31 -103 -46 -154 -46c-63 0 -118 14 -166 43c-49 28 -86 67 -113 118c-27 50 -40 107 -40 170c0 75 19 144 57 205s90 109 156 144c65 35 138 52 217 52c55 0 110 -10 164 -30c53 -20 97 -47 132 -80l-147 -159
c-21 23 -46 41 -76 55c-31 14 -61 21 -90 21c-31 0 -60 -8 -87 -25s-48 -40 -63 -69c-16 -29 -24 -62 -24 -97c0 -45 12 -82 35 -111s54 -44 92 -44c19 0 39 4 60 13s39 20 56 35zM609 955c17 -17 25 -40 25 -68c0 -25 -6 -48 -18 -69c-13 -21 -30 -37 -51 -48
c-21 -12 -45 -18 -70 -18c-29 0 -51 9 -68 26s-26 39 -26 67c0 25 6 48 19 69c12 21 29 37 50 49c21 11 45 17 70 17c29 0 52 -8 69 -25z" />
    <glyph glyph-name="uni1E20.ss01" horiz-adv-x="747" 
d="M574 370h199l-73 -370h-169l6 30c-52 -31 -103 -46 -154 -46c-63 0 -118 14 -166 43c-49 28 -86 67 -113 118c-27 50 -40 107 -40 170c0 75 19 144 57 205s90 109 156 144c65 35 138 52 217 52c55 0 110 -10 164 -30c53 -20 97 -47 132 -80l-147 -159
c-21 23 -46 41 -76 55c-31 14 -61 21 -90 21c-31 0 -60 -8 -87 -25s-48 -40 -63 -69c-16 -29 -24 -62 -24 -97c0 -45 12 -82 35 -111s54 -44 92 -44c19 0 39 4 60 13s39 20 56 35zM340 880h360l-25 -128h-360z" />
    <glyph glyph-name="I.ss01" horiz-adv-x="525" 
d="M521 525h-106l-70 -349h106l-35 -176h-444l35 176h106l70 349h-106l35 176h444z" />
    <glyph glyph-name="IJ.ss01" horiz-adv-x="1092" 
d="M521 525h-106l-70 -349h106l-35 -176h-444l35 176h106l70 349h-106l35 176h444zM1123 701l-114 -573c-16 -77 -50 -136 -102 -177c-53 -41 -118 -61 -197 -61c-109 0 -195 43 -258 128l125 138c20 -25 41 -44 64 -55c23 -12 43 -18 60 -18c19 0 37 6 52 19s24 29 28 49
l74 367h-239l36 183h471z" />
    <glyph glyph-name="Iacute.ss01" horiz-adv-x="525" 
d="M521 525h-106l-70 -349h106l-35 -176h-444l35 176h106l70 349h-106l35 176h444zM367 934l169 -60l-162 -129l-142 10z" />
    <glyph glyph-name="Iacute_J.loclNLD.ss01" horiz-adv-x="1092" 
d="M521 525h-106l-70 -349h106l-35 -176h-444l35 176h106l70 349h-106l35 176h444zM367 934l169 -60l-162 -129l-142 10zM1123 701l-114 -573c-16 -77 -50 -136 -102 -177c-53 -41 -118 -61 -197 -61c-109 0 -195 43 -258 128l125 138c20 -25 41 -44 64 -55
c23 -12 43 -18 60 -18c19 0 37 6 52 19s24 29 28 49l74 367h-239l36 183h471zM912 934l169 -60l-162 -129l-142 10z" />
    <glyph glyph-name="Ibreve.ss01" horiz-adv-x="525" 
d="M521 525h-106l-70 -349h106l-35 -176h-444l35 176h106l70 349h-106l35 176h444zM337 885c7 -9 17 -14 30 -14s25 5 36 14s18 21 23 36h135c-13 -53 -40 -96 -79 -127s-86 -47 -139 -47c-47 0 -85 13 -112 38s-41 60 -41 103c0 10 1 21 3 33h135c-1 -15 2 -27 9 -36z" />
    <glyph glyph-name="Icircumflex.ss01" horiz-adv-x="525" 
d="M521 525h-106l-70 -349h106l-35 -176h-444l35 176h106l70 349h-106l35 176h444zM549 752h-140l-51 72l-79 -72h-140l142 162h188z" />
    <glyph glyph-name="uni0208.ss01" horiz-adv-x="525" 
d="M521 525h-106l-70 -349h106l-35 -176h-444l35 176h106l70 349h-106l35 176h444zM285 931l48 -179l-157 -10l-63 136zM506 931l48 -179l-157 -10l-63 136z" />
    <glyph glyph-name="Idieresis.ss01" horiz-adv-x="525" 
d="M521 525h-106l-70 -349h106l-35 -176h-444l35 176h106l70 349h-106l35 176h444zM330 909c13 -13 20 -31 20 -53c0 -29 -10 -53 -31 -73c-21 -21 -47 -31 -76 -31c-22 0 -40 7 -53 20s-20 31 -20 52c0 29 11 54 32 75c21 20 46 30 75 30c22 0 40 -7 53 -20zM532 909
c13 -13 20 -31 20 -53c0 -29 -10 -53 -31 -73c-21 -21 -47 -31 -76 -31c-22 0 -40 7 -53 20s-20 31 -20 52c0 29 11 54 32 75c21 20 46 30 75 30c22 0 40 -7 53 -20z" />
    <glyph glyph-name="uni1E2E.ss01" horiz-adv-x="525" 
d="M521 525h-106l-70 -349h106l-35 -176h-444l35 176h106l70 349h-106l35 176h444zM323 910c13 -13 20 -31 20 -53c0 -29 -10 -54 -31 -74c-21 -21 -47 -31 -76 -31c-22 0 -40 7 -53 20s-20 31 -20 52c0 30 10 55 31 75s46 30 76 30c22 0 40 -6 53 -19zM537 910
c13 -13 20 -31 20 -53c0 -29 -10 -54 -31 -74c-21 -21 -47 -31 -76 -31c-22 0 -40 7 -53 20s-20 31 -20 52c0 30 10 55 31 75s46 30 76 30c22 0 40 -6 53 -19zM427 1131l139 -81l-174 -93l-121 31z" />
    <glyph glyph-name="Idotaccent.ss01" horiz-adv-x="525" 
d="M521 525h-106l-70 -349h106l-35 -176h-444l35 176h106l70 349h-106l35 176h444zM458 955c17 -17 25 -40 25 -68c0 -25 -6 -48 -18 -69c-13 -21 -30 -37 -51 -48c-21 -12 -45 -18 -70 -18c-29 0 -51 9 -68 26s-26 39 -26 67c0 25 6 48 19 69c12 21 29 37 50 49
c21 11 45 17 70 17c29 0 52 -8 69 -25z" />
    <glyph glyph-name="uni1ECA.ss01" horiz-adv-x="525" 
d="M521 525h-106l-70 -349h106l-35 -176h-444l35 176h106l70 349h-106l35 176h444zM255 -90c17 -17 25 -40 25 -68c0 -25 -6 -48 -18 -69c-13 -21 -30 -37 -51 -48c-21 -12 -45 -18 -70 -18c-29 0 -51 9 -68 26s-26 39 -26 67c0 25 6 48 19 69c12 21 29 37 50 49
c21 11 45 17 70 17c29 0 52 -8 69 -25z" />
    <glyph glyph-name="Igrave.ss01" horiz-adv-x="525" 
d="M521 525h-106l-70 -349h106l-35 -176h-444l35 176h106l70 349h-106l35 176h444zM361 934l111 -179l-143 -10l-138 129z" />
    <glyph glyph-name="uni1EC8.ss01" horiz-adv-x="525" 
d="M521 525h-106l-70 -349h106l-35 -176h-444l35 176h106l70 349h-106l35 176h444zM479 968c17 -15 26 -36 26 -61c0 -56 -42 -111 -125 -166l-85 37c19 14 35 28 46 42s16 26 16 37c0 7 -2 12 -6 16s-10 6 -17 6c-14 0 -28 -5 -42 -15l-38 83c53 29 102 44 148 44
c34 0 60 -8 77 -23z" />
    <glyph glyph-name="uni020A.ss01" horiz-adv-x="525" 
d="M521 525h-106l-70 -349h106l-35 -176h-444l35 176h106l70 349h-106l35 176h444zM384 789c-7 9 -18 13 -31 13s-25 -4 -36 -13s-18 -22 -23 -37h-135c13 53 40 96 79 127s86 47 139 47c47 0 85 -13 112 -38s41 -60 41 -103c0 -10 -1 -21 -3 -33h-135c1 15 -1 28 -8 37z
" />
    <glyph glyph-name="Imacron.ss01" horiz-adv-x="525" 
d="M521 525h-106l-70 -349h106l-35 -176h-444l35 176h106l70 349h-106l35 176h444zM189 880h360l-25 -128h-360z" />
    <glyph glyph-name="Iogonek.ss01" horiz-adv-x="525" 
d="M415 525l-70 -349h106l-35 -176h-175c-27 -17 -48 -33 -63 -49c-16 -16 -24 -32 -24 -49c0 -12 5 -18 16 -18c7 0 16 3 27 8l8 -111c-42 -17 -80 -25 -113 -25c-32 0 -56 9 -71 26c-16 17 -24 39 -24 67c0 51 26 101 78 151h-103l35 176h106l70 349h-106l35 176h444
l-35 -176h-106z" />
    <glyph glyph-name="Itilde.ss01" horiz-adv-x="525" 
d="M521 525h-106l-70 -349h106l-35 -176h-444l35 176h106l70 349h-106l35 176h444zM528 792c-23 -28 -53 -42 -90 -42c-17 0 -31 2 -44 7s-27 11 -43 20c-3 1 -8 4 -16 8c-9 4 -16 6 -22 6c-19 0 -31 -13 -37 -39h-117c12 61 30 106 53 135s53 43 90 43c16 0 31 -2 44 -7
s28 -11 43 -20c17 -9 29 -14 37 -14c10 0 18 3 24 9c5 6 10 16 13 29h116c-12 -62 -29 -107 -51 -135z" />
    <glyph glyph-name="J.ss01" horiz-adv-x="567" 
d="M553 701l-114 -573c-16 -77 -50 -136 -102 -177c-53 -41 -118 -61 -197 -61c-109 0 -195 43 -258 128l125 138c20 -25 41 -44 64 -55c23 -12 43 -18 60 -18c19 0 37 6 52 19s24 29 28 49l74 367h-239l36 183h471z" />
    <glyph glyph-name="Jcircumflex.ss01" horiz-adv-x="567" 
d="M553 701l-114 -573c-16 -77 -50 -136 -102 -177c-53 -41 -118 -61 -197 -61c-109 0 -195 43 -258 128l125 138c20 -25 41 -44 64 -55c23 -12 43 -18 60 -18c19 0 37 6 52 19s24 29 28 49l74 367h-239l36 183h471zM524 752h-140l-51 72l-79 -72h-140l142 162h188z" />
    <glyph glyph-name="uni01C7.ss01" horiz-adv-x="1151" 
d="M261 193h292l-39 -193h-524l140 701h232zM1191 701l-114 -573c-16 -77 -50 -136 -102 -177c-53 -41 -118 -61 -197 -61c-109 0 -195 43 -258 128l125 138c20 -25 41 -44 64 -55c23 -12 43 -18 60 -18c19 0 37 6 52 19s24 29 28 49l74 367h-239l36 183h471z" />
    <glyph glyph-name="M.ss01" horiz-adv-x="1160" 
d="M1112 666c32 -33 48 -79 48 -136c0 -21 -3 -45 -8 -72l-92 -458h-235l80 402c3 16 4 27 4 34c0 23 -6 40 -17 53c-12 13 -29 19 -52 19c-29 0 -55 -10 -77 -31s-36 -48 -43 -82l-79 -395h-235l80 402c3 16 4 27 4 34c0 23 -6 40 -17 53c-12 13 -29 19 -52 19
c-29 0 -55 -10 -77 -31s-36 -48 -43 -82l-79 -395h-232l140 701h232l-19 -95c28 35 61 63 98 82s77 28 119 28c49 0 89 -13 120 -38s50 -61 57 -107c29 46 64 82 106 107s87 38 136 38c57 0 101 -17 133 -50z" />
    <glyph glyph-name="uni1E42.ss01" horiz-adv-x="1160" 
d="M1112 666c32 -33 48 -79 48 -136c0 -21 -3 -45 -8 -72l-92 -458h-235l80 402c3 16 4 27 4 34c0 23 -6 40 -17 53c-12 13 -29 19 -52 19c-29 0 -55 -10 -77 -31s-36 -48 -43 -82l-79 -395h-235l80 402c3 16 4 27 4 34c0 23 -6 40 -17 53c-12 13 -29 19 -52 19
c-29 0 -55 -10 -77 -31s-36 -48 -43 -82l-79 -395h-232l140 701h232l-19 -95c28 35 61 63 98 82s77 28 119 28c49 0 89 -13 120 -38s50 -61 57 -107c29 46 64 82 106 107s87 38 136 38c57 0 101 -17 133 -50zM577 -90c17 -17 25 -40 25 -68c0 -25 -6 -48 -18 -69
c-13 -21 -30 -37 -51 -48c-21 -12 -45 -18 -70 -18c-29 0 -51 9 -68 26s-26 39 -26 67c0 25 6 48 19 69c12 21 29 37 50 49c21 11 45 17 70 17c29 0 52 -8 69 -25z" />
    <glyph glyph-name="N.ss01" horiz-adv-x="761" 
d="M710 666c33 -34 50 -80 50 -139c0 -23 -2 -46 -7 -69l-92 -458h-235l80 402c2 11 3 21 3 30c0 24 -6 43 -19 56s-31 20 -55 20c-34 0 -63 -10 -87 -30c-24 -21 -40 -48 -47 -83l-79 -395h-232l140 701h232l-20 -98c30 37 64 65 103 84s80 29 124 29c60 0 107 -17 141 -50
z" />
    <glyph glyph-name="uni01CA.ss01" horiz-adv-x="1328" 
d="M710 666c33 -34 50 -80 50 -139c0 -23 -2 -46 -7 -69l-92 -458h-235l80 402c2 11 3 21 3 30c0 24 -6 43 -19 56s-31 20 -55 20c-34 0 -63 -10 -87 -30c-24 -21 -40 -48 -47 -83l-79 -395h-232l140 701h232l-20 -98c30 37 64 65 103 84s80 29 124 29c60 0 107 -17 141 -50
zM1368 701l-114 -573c-16 -77 -50 -136 -102 -177c-53 -41 -118 -61 -197 -61c-109 0 -195 43 -258 128l125 138c20 -25 41 -44 64 -55c23 -12 43 -18 60 -18c19 0 37 6 52 19s24 29 28 49l74 367h-239l36 183h471z" />
    <glyph glyph-name="Nacute.ss01" horiz-adv-x="761" 
d="M710 666c33 -34 50 -80 50 -139c0 -23 -2 -46 -7 -69l-92 -458h-235l80 402c2 11 3 21 3 30c0 24 -6 43 -19 56s-31 20 -55 20c-34 0 -63 -10 -87 -30c-24 -21 -40 -48 -47 -83l-79 -395h-232l140 701h232l-20 -98c30 37 64 65 103 84s80 29 124 29c60 0 107 -17 141 -50
zM542 934l169 -60l-162 -129l-142 10z" />
    <glyph glyph-name="Ncaron.ss01" horiz-adv-x="761" 
d="M710 666c33 -34 50 -80 50 -139c0 -23 -2 -46 -7 -69l-92 -458h-235l80 402c2 11 3 21 3 30c0 24 -6 43 -19 56s-31 20 -55 20c-34 0 -63 -10 -87 -30c-24 -21 -40 -48 -47 -83l-79 -395h-232l140 701h232l-20 -98c30 37 64 65 103 84s80 29 124 29c60 0 107 -17 141 -50
zM615 914h140l-142 -162h-188l-80 162h140l51 -71z" />
    <glyph glyph-name="Ncommaaccent.ss01" horiz-adv-x="761" 
d="M710 666c33 -34 50 -80 50 -139c0 -23 -2 -46 -7 -69l-92 -458h-235l80 402c2 11 3 21 3 30c0 24 -6 43 -19 56s-31 20 -55 20c-34 0 -63 -10 -87 -30c-24 -21 -40 -48 -47 -83l-79 -395h-232l140 701h232l-20 -98c30 37 64 65 103 84s80 29 124 29c60 0 107 -17 141 -50
zM219 -61h175l-118 -183h-120z" />
    <glyph glyph-name="uni1E44.ss01" horiz-adv-x="761" 
d="M710 666c33 -34 50 -80 50 -139c0 -23 -2 -46 -7 -69l-92 -458h-235l80 402c2 11 3 21 3 30c0 24 -6 43 -19 56s-31 20 -55 20c-34 0 -63 -10 -87 -30c-24 -21 -40 -48 -47 -83l-79 -395h-232l140 701h232l-20 -98c30 37 64 65 103 84s80 29 124 29c60 0 107 -17 141 -50
zM633 955c17 -17 25 -40 25 -68c0 -25 -6 -48 -18 -69c-13 -21 -30 -37 -51 -48c-21 -12 -45 -18 -70 -18c-29 0 -51 9 -68 26s-26 39 -26 67c0 25 6 48 19 69c12 21 29 37 50 49c21 11 45 17 70 17c29 0 52 -8 69 -25z" />
    <glyph glyph-name="uni1E46.ss01" horiz-adv-x="761" 
d="M710 666c33 -34 50 -80 50 -139c0 -23 -2 -46 -7 -69l-92 -458h-235l80 402c2 11 3 21 3 30c0 24 -6 43 -19 56s-31 20 -55 20c-34 0 -63 -10 -87 -30c-24 -21 -40 -48 -47 -83l-79 -395h-232l140 701h232l-20 -98c30 37 64 65 103 84s80 29 124 29c60 0 107 -17 141 -50
zM378 -90c17 -17 25 -40 25 -68c0 -25 -6 -48 -18 -69c-13 -21 -30 -37 -51 -48c-21 -12 -45 -18 -70 -18c-29 0 -51 9 -68 26s-26 39 -26 67c0 25 6 48 19 69c12 21 29 37 50 49c21 11 45 17 70 17c29 0 52 -8 69 -25z" />
    <glyph glyph-name="Eng.ss01" horiz-adv-x="761" 
d="M707 651c33 -34 50 -81 50 -140c0 -23 -2 -45 -7 -68l-89 -443c-19 -71 -55 -126 -110 -165c-55 -40 -122 -60 -199 -60c-61 0 -115 13 -161 40l106 175c30 -15 56 -22 79 -22c29 0 46 15 52 44l75 375c2 11 3 21 3 30c0 24 -6 43 -19 56s-31 20 -55 20
c-34 0 -63 -10 -87 -30c-24 -21 -40 -48 -47 -83l-76 -380h-232l140 701h232l-23 -113c30 37 64 65 103 84s80 29 124 29c60 0 107 -17 141 -50z" />
    <glyph glyph-name="uni01CB.ss01" horiz-adv-x="1097" 
d="M710 666c33 -34 50 -80 50 -139c0 -23 -2 -46 -7 -69l-92 -458h-235l80 402c2 11 3 21 3 30c0 24 -6 43 -19 56s-31 20 -55 20c-34 0 -63 -10 -87 -30c-24 -21 -40 -48 -47 -83l-79 -395h-232l140 701h232l-20 -98c30 37 64 65 103 84s80 29 124 29c60 0 107 -17 141 -50
zM696 -29c16 0 30 5 43 16c12 11 20 24 23 39l104 521h225l-114 -573c-11 -57 -38 -100 -80 -131s-94 -46 -157 -46c-47 0 -92 8 -133 25l62 151c7 -1 16 -2 27 -2zM1092 792c17 -17 25 -40 25 -68c0 -25 -6 -48 -18 -69c-13 -21 -30 -37 -51 -48c-21 -12 -45 -18 -70 -18
c-29 0 -51 9 -68 26s-26 39 -26 67c0 25 6 48 19 69c12 21 29 37 50 49c21 11 45 17 70 17c29 0 52 -8 69 -25z" />
    <glyph glyph-name="uni1E48.ss01" horiz-adv-x="761" 
d="M710 666c33 -34 50 -80 50 -139c0 -23 -2 -46 -7 -69l-92 -458h-235l80 402c2 11 3 21 3 30c0 24 -6 43 -19 56s-31 20 -55 20c-34 0 -63 -10 -87 -30c-24 -21 -40 -48 -47 -83l-79 -395h-232l140 701h232l-20 -98c30 37 64 65 103 84s80 29 124 29c60 0 107 -17 141 -50
zM157 -75h300l-25 -128h-300z" />
    <glyph glyph-name="Ntilde.ss01" horiz-adv-x="761" 
d="M710 666c33 -34 50 -80 50 -139c0 -23 -2 -46 -7 -69l-92 -458h-235l80 402c2 11 3 21 3 30c0 24 -6 43 -19 56s-31 20 -55 20c-34 0 -63 -10 -87 -30c-24 -21 -40 -48 -47 -83l-79 -395h-232l140 701h232l-20 -98c30 37 64 65 103 84s80 29 124 29c60 0 107 -17 141 -50
zM703 792c-23 -28 -53 -42 -90 -42c-17 0 -31 2 -44 7s-27 11 -43 20c-3 1 -8 4 -16 8c-9 4 -16 6 -22 6c-19 0 -31 -13 -37 -39h-117c12 61 30 106 53 135s53 43 90 43c16 0 31 -2 44 -7s28 -11 43 -20c17 -9 29 -14 37 -14c10 0 18 3 24 9c5 6 10 16 13 29h116
c-12 -62 -29 -107 -51 -135z" />
    <glyph glyph-name="Q.ss01" horiz-adv-x="807" 
d="M790 190c-34 -59 -80 -106 -139 -142c-59 -37 -125 -58 -198 -63l-20 -101h-140l22 112c-76 19 -136 57 -181 115s-68 127 -68 207c0 75 19 143 56 204s88 108 153 143c65 34 136 51 215 51c69 0 130 -14 183 -42c53 -29 94 -68 123 -118s44 -107 44 -171
c0 -71 -17 -136 -50 -195zM571 258c20 33 30 70 30 111c0 45 -12 82 -36 111c-25 29 -55 43 -92 43c-29 0 -56 -8 -81 -25c-26 -17 -47 -39 -63 -68s-24 -61 -24 -96c0 -26 5 -50 14 -71c9 -22 22 -40 39 -55l21 106h140l-25 -125c31 13 57 36 77 69z" />
    <glyph glyph-name="uni018F.ss01" horiz-adv-x="757" 
d="M606 674c52 -28 93 -67 122 -116c29 -50 43 -107 43 -170c0 -75 -18 -143 -54 -204c-37 -62 -86 -111 -148 -146c-63 -36 -131 -54 -206 -54c-69 0 -127 13 -174 40c-48 26 -85 60 -111 102s-43 88 -50 138l488 191c-10 22 -24 39 -42 51c-18 11 -38 17 -60 17
c-28 0 -54 -8 -79 -23s-45 -36 -60 -62l-144 165c38 36 82 64 133 84c51 19 105 29 163 29c67 0 127 -14 179 -42zM480 219c25 27 41 63 48 107l-243 -97c11 -17 24 -29 41 -38s35 -14 56 -14c40 0 73 14 98 42z" />
    <glyph glyph-name="T.ss01" horiz-adv-x="713" 
d="M754 461c-49 26 -101 44 -156 55l-103 -516h-232l103 516c-62 -11 -121 -29 -178 -55l-24 171c55 27 113 48 174 63c61 14 122 21 183 21s120 -7 175 -22s105 -36 150 -63z" />
    <glyph glyph-name="Tbar.ss01" horiz-adv-x="713" 
d="M598 516l-31 -157h105l-23 -119h-106l-48 -240h-232l48 240h-117l23 119h118l31 157c-62 -11 -121 -29 -178 -55l-24 171c55 27 113 48 174 63c61 14 122 21 183 21s120 -7 175 -22s105 -36 150 -63l-92 -170c-49 26 -101 44 -156 55z" />
    <glyph glyph-name="Tcaron.ss01" horiz-adv-x="713" 
d="M754 461c-49 26 -101 44 -156 55l-103 -516h-232l103 516c-62 -11 -121 -29 -178 -55l-24 171c55 27 113 48 174 63c61 14 122 21 183 21s120 -7 175 -22s105 -36 150 -63zM630 914h140l-142 -162h-188l-80 162h140l51 -71z" />
    <glyph glyph-name="uni0162.ss01" horiz-adv-x="713" 
d="M754 461c-49 26 -101 44 -156 55l-103 -516h-54l-31 -54c24 -7 42 -16 54 -29c11 -13 17 -29 17 -46c0 -38 -15 -67 -46 -86s-69 -29 -114 -29c-40 0 -79 7 -117 21l49 93c15 -6 31 -9 47 -9c13 0 25 2 34 7s13 11 13 18s-5 13 -16 17s-23 6 -38 6h-20l47 91h-57l103 516
c-62 -11 -121 -29 -178 -55l-24 171c55 27 113 48 174 63c61 14 122 21 183 21s120 -7 175 -22s105 -36 150 -63z" />
    <glyph glyph-name="uni021A.ss01" horiz-adv-x="713" 
d="M754 461c-49 26 -101 44 -156 55l-103 -516h-232l103 516c-62 -11 -121 -29 -178 -55l-24 171c55 27 113 48 174 63c61 14 122 21 183 21s120 -7 175 -22s105 -36 150 -63zM276 -61h175l-118 -183h-120z" />
    <glyph glyph-name="uni1E6C.ss01" horiz-adv-x="713" 
d="M754 461c-49 26 -101 44 -156 55l-103 -516h-232l103 516c-62 -11 -121 -29 -178 -55l-24 171c55 27 113 48 174 63c61 14 122 21 183 21s120 -7 175 -22s105 -36 150 -63zM435 -90c17 -17 25 -40 25 -68c0 -25 -6 -48 -18 -69c-13 -21 -30 -37 -51 -48
c-21 -12 -45 -18 -70 -18c-29 0 -51 9 -68 26s-26 39 -26 67c0 25 6 48 19 69c12 21 29 37 50 49c21 11 45 17 70 17c29 0 52 -8 69 -25z" />
    <glyph glyph-name="uni1E6E.ss01" horiz-adv-x="713" 
d="M754 461c-49 26 -101 44 -156 55l-103 -516h-232l103 516c-62 -11 -121 -29 -178 -55l-24 171c55 27 113 48 174 63c61 14 122 21 183 21s120 -7 175 -22s105 -36 150 -63zM214 -75h300l-25 -128h-300z" />
    <glyph glyph-name="U.ss01" horiz-adv-x="761" 
d="M105 36c-34 33 -51 79 -51 138c0 23 2 46 7 69l92 458h235l-80 -402c-2 -11 -3 -21 -3 -30c0 -24 6 -43 19 -56s31 -20 55 -20c34 0 63 10 87 31c24 20 40 47 47 82l79 395h232l-140 -701h-232l20 98c-30 -37 -64 -65 -103 -84s-80 -29 -124 -29c-60 0 -107 17 -140 51z
" />
    <glyph glyph-name="Uacute.ss01" horiz-adv-x="761" 
d="M105 36c-34 33 -51 79 -51 138c0 23 2 46 7 69l92 458h235l-80 -402c-2 -11 -3 -21 -3 -30c0 -24 6 -43 19 -56s31 -20 55 -20c34 0 63 10 87 31c24 20 40 47 47 82l79 395h232l-140 -701h-232l20 98c-30 -37 -64 -65 -103 -84s-80 -29 -124 -29c-60 0 -107 17 -140 51z
M526 934l169 -60l-162 -129l-142 10z" />
    <glyph glyph-name="Ubreve.ss01" horiz-adv-x="761" 
d="M105 36c-34 33 -51 79 -51 138c0 23 2 46 7 69l92 458h235l-80 -402c-2 -11 -3 -21 -3 -30c0 -24 6 -43 19 -56s31 -20 55 -20c34 0 63 10 87 31c24 20 40 47 47 82l79 395h232l-140 -701h-232l20 98c-30 -37 -64 -65 -103 -84s-80 -29 -124 -29c-60 0 -107 17 -140 51z
M496 885c7 -9 17 -14 30 -14s25 5 36 14s18 21 23 36h135c-13 -53 -40 -96 -79 -127s-86 -47 -139 -47c-47 0 -85 13 -112 38s-41 60 -41 103c0 10 1 21 3 33h135c-1 -15 2 -27 9 -36z" />
    <glyph glyph-name="Ucircumflex.ss01" horiz-adv-x="761" 
d="M105 36c-34 33 -51 79 -51 138c0 23 2 46 7 69l92 458h235l-80 -402c-2 -11 -3 -21 -3 -30c0 -24 6 -43 19 -56s31 -20 55 -20c34 0 63 10 87 31c24 20 40 47 47 82l79 395h232l-140 -701h-232l20 98c-30 -37 -64 -65 -103 -84s-80 -29 -124 -29c-60 0 -107 17 -140 51z
M708 752h-140l-51 72l-79 -72h-140l142 162h188z" />
    <glyph glyph-name="uni0214.ss01" horiz-adv-x="761" 
d="M105 36c-34 33 -51 79 -51 138c0 23 2 46 7 69l92 458h235l-80 -402c-2 -11 -3 -21 -3 -30c0 -24 6 -43 19 -56s31 -20 55 -20c34 0 63 10 87 31c24 20 40 47 47 82l79 395h232l-140 -701h-232l20 98c-30 -37 -64 -65 -103 -84s-80 -29 -124 -29c-60 0 -107 17 -140 51z
M444 931l48 -179l-157 -10l-63 136zM665 931l48 -179l-157 -10l-63 136z" />
    <glyph glyph-name="Udieresis.ss01" horiz-adv-x="761" 
d="M105 36c-34 33 -51 79 -51 138c0 23 2 46 7 69l92 458h235l-80 -402c-2 -11 -3 -21 -3 -30c0 -24 6 -43 19 -56s31 -20 55 -20c34 0 63 10 87 31c24 20 40 47 47 82l79 395h232l-140 -701h-232l20 98c-30 -37 -64 -65 -103 -84s-80 -29 -124 -29c-60 0 -107 17 -140 51z
M489 909c13 -13 20 -31 20 -53c0 -29 -10 -53 -31 -73c-21 -21 -47 -31 -76 -31c-22 0 -40 7 -53 20s-20 31 -20 52c0 29 11 54 32 75c21 20 46 30 75 30c22 0 40 -7 53 -20zM691 909c13 -13 20 -31 20 -53c0 -29 -10 -53 -31 -73c-21 -21 -47 -31 -76 -31
c-22 0 -40 7 -53 20s-20 31 -20 52c0 29 11 54 32 75c21 20 46 30 75 30c22 0 40 -7 53 -20z" />
    <glyph glyph-name="uni1EE4.ss01" horiz-adv-x="761" 
d="M105 36c-34 33 -51 79 -51 138c0 23 2 46 7 69l92 458h235l-80 -402c-2 -11 -3 -21 -3 -30c0 -24 6 -43 19 -56s31 -20 55 -20c34 0 63 10 87 31c24 20 40 47 47 82l79 395h232l-140 -701h-232l20 98c-30 -37 -64 -65 -103 -84s-80 -29 -124 -29c-60 0 -107 17 -140 51z
M410 -90c17 -17 25 -40 25 -68c0 -25 -6 -48 -18 -69c-13 -21 -30 -37 -51 -48c-21 -12 -45 -18 -70 -18c-29 0 -51 9 -68 26s-26 39 -26 67c0 25 6 48 19 69c12 21 29 37 50 49c21 11 45 17 70 17c29 0 52 -8 69 -25z" />
    <glyph glyph-name="Ugrave.ss01" horiz-adv-x="761" 
d="M105 36c-34 33 -51 79 -51 138c0 23 2 46 7 69l92 458h235l-80 -402c-2 -11 -3 -21 -3 -30c0 -24 6 -43 19 -56s31 -20 55 -20c34 0 63 10 87 31c24 20 40 47 47 82l79 395h232l-140 -701h-232l20 98c-30 -37 -64 -65 -103 -84s-80 -29 -124 -29c-60 0 -107 17 -140 51z
M520 934l111 -179l-143 -10l-138 129z" />
    <glyph glyph-name="uni1EE6.ss01" horiz-adv-x="761" 
d="M105 36c-34 33 -51 79 -51 138c0 23 2 46 7 69l92 458h235l-80 -402c-2 -11 -3 -21 -3 -30c0 -24 6 -43 19 -56s31 -20 55 -20c34 0 63 10 87 31c24 20 40 47 47 82l79 395h232l-140 -701h-232l20 98c-30 -37 -64 -65 -103 -84s-80 -29 -124 -29c-60 0 -107 17 -140 51z
M638 968c17 -15 26 -36 26 -61c0 -56 -42 -111 -125 -166l-85 37c19 14 35 28 46 42s16 26 16 37c0 7 -2 12 -6 16s-10 6 -17 6c-14 0 -28 -5 -42 -15l-38 83c53 29 102 44 148 44c34 0 60 -8 77 -23z" />
    <glyph glyph-name="Uhorn.ss01" horiz-adv-x="851" 
d="M968 794c0 -50 -14 -91 -42 -124s-69 -55 -122 -68l-120 -602h-232l20 98c-30 -37 -64 -65 -103 -84s-80 -29 -124 -29c-60 0 -107 17 -140 51c-34 33 -51 79 -51 138c0 23 2 46 7 69l92 458h235l-80 -402c-2 -11 -3 -21 -3 -30c0 -24 6 -43 19 -56s31 -20 55 -20
c34 0 63 10 87 31c24 20 40 47 47 82l79 395h152c20 0 35 7 46 20c10 13 15 29 15 47c0 14 -3 25 -8 34l164 57c5 -21 7 -43 7 -65z" />
    <glyph glyph-name="uni1EE8.ss01" horiz-adv-x="851" 
d="M968 794c0 -50 -14 -91 -42 -124s-69 -55 -122 -68l-120 -602h-232l20 98c-30 -37 -64 -65 -103 -84s-80 -29 -124 -29c-60 0 -107 17 -140 51c-34 33 -51 79 -51 138c0 23 2 46 7 69l92 458h235l-80 -402c-2 -11 -3 -21 -3 -30c0 -24 6 -43 19 -56s31 -20 55 -20
c34 0 63 10 87 31c24 20 40 47 47 82l79 395h152c20 0 35 7 46 20c10 13 15 29 15 47c0 14 -3 25 -8 34l164 57c5 -21 7 -43 7 -65zM526 934l169 -60l-162 -129l-142 10z" />
    <glyph glyph-name="uni1EF0.ss01" horiz-adv-x="850" 
d="M968 794c0 -50 -14 -91 -42 -124s-69 -55 -122 -68l-120 -602h-232l20 98c-30 -37 -64 -65 -103 -84s-80 -29 -124 -29c-60 0 -107 17 -140 51c-34 33 -51 79 -51 138c0 23 2 46 7 69l92 458h235l-80 -402c-2 -11 -3 -21 -3 -30c0 -24 6 -43 19 -56s31 -20 55 -20
c34 0 63 10 87 31c24 20 40 47 47 82l79 395h152c20 0 35 7 46 20c10 13 15 29 15 47c0 14 -3 25 -8 34l164 57c5 -21 7 -43 7 -65zM410 -90c17 -17 25 -40 25 -68c0 -25 -6 -48 -18 -69c-13 -21 -30 -37 -51 -48c-21 -12 -45 -18 -70 -18c-29 0 -51 9 -68 26s-26 39 -26 67
c0 25 6 48 19 69c12 21 29 37 50 49c21 11 45 17 70 17c29 0 52 -8 69 -25z" />
    <glyph glyph-name="uni1EEA.ss01" horiz-adv-x="851" 
d="M968 794c0 -50 -14 -91 -42 -124s-69 -55 -122 -68l-120 -602h-232l20 98c-30 -37 -64 -65 -103 -84s-80 -29 -124 -29c-60 0 -107 17 -140 51c-34 33 -51 79 -51 138c0 23 2 46 7 69l92 458h235l-80 -402c-2 -11 -3 -21 -3 -30c0 -24 6 -43 19 -56s31 -20 55 -20
c34 0 63 10 87 31c24 20 40 47 47 82l79 395h152c20 0 35 7 46 20c10 13 15 29 15 47c0 14 -3 25 -8 34l164 57c5 -21 7 -43 7 -65zM520 934l111 -179l-143 -10l-138 129z" />
    <glyph glyph-name="uni1EEC.ss01" horiz-adv-x="851" 
d="M968 794c0 -50 -14 -91 -42 -124s-69 -55 -122 -68l-120 -602h-232l20 98c-30 -37 -64 -65 -103 -84s-80 -29 -124 -29c-60 0 -107 17 -140 51c-34 33 -51 79 -51 138c0 23 2 46 7 69l92 458h235l-80 -402c-2 -11 -3 -21 -3 -30c0 -24 6 -43 19 -56s31 -20 55 -20
c34 0 63 10 87 31c24 20 40 47 47 82l79 395h152c20 0 35 7 46 20c10 13 15 29 15 47c0 14 -3 25 -8 34l164 57c5 -21 7 -43 7 -65zM638 968c17 -15 26 -36 26 -61c0 -56 -42 -111 -125 -166l-85 37c19 14 35 28 46 42s16 26 16 37c0 7 -2 12 -6 16s-10 6 -17 6
c-14 0 -28 -5 -42 -15l-38 83c53 29 102 44 148 44c34 0 60 -8 77 -23z" />
    <glyph glyph-name="uni1EEE.ss01" horiz-adv-x="851" 
d="M968 794c0 -50 -14 -91 -42 -124s-69 -55 -122 -68l-120 -602h-232l20 98c-30 -37 -64 -65 -103 -84s-80 -29 -124 -29c-60 0 -107 17 -140 51c-34 33 -51 79 -51 138c0 23 2 46 7 69l92 458h235l-80 -402c-2 -11 -3 -21 -3 -30c0 -24 6 -43 19 -56s31 -20 55 -20
c34 0 63 10 87 31c24 20 40 47 47 82l79 395h152c20 0 35 7 46 20c10 13 15 29 15 47c0 14 -3 25 -8 34l164 57c5 -21 7 -43 7 -65zM687 792c-23 -28 -53 -42 -90 -42c-17 0 -31 2 -44 7s-27 11 -43 20c-3 1 -8 4 -16 8c-9 4 -16 6 -22 6c-19 0 -31 -13 -37 -39h-117
c12 61 30 106 53 135s53 43 90 43c16 0 31 -2 44 -7s28 -11 43 -20c17 -9 29 -14 37 -14c10 0 18 3 24 9c5 6 10 16 13 29h116c-12 -62 -29 -107 -51 -135z" />
    <glyph glyph-name="Uhungarumlaut.ss01" horiz-adv-x="761" 
d="M105 36c-34 33 -51 79 -51 138c0 23 2 46 7 69l92 458h235l-80 -402c-2 -11 -3 -21 -3 -30c0 -24 6 -43 19 -56s31 -20 55 -20c34 0 63 10 87 31c24 20 40 47 47 82l79 395h232l-140 -701h-232l20 98c-30 -37 -64 -65 -103 -84s-80 -29 -124 -29c-60 0 -107 17 -140 51z
M400 934l151 -53l-91 -136l-154 10zM621 934l151 -53l-91 -136l-154 10z" />
    <glyph glyph-name="uni0216.ss01" horiz-adv-x="761" 
d="M105 36c-34 33 -51 79 -51 138c0 23 2 46 7 69l92 458h235l-80 -402c-2 -11 -3 -21 -3 -30c0 -24 6 -43 19 -56s31 -20 55 -20c34 0 63 10 87 31c24 20 40 47 47 82l79 395h232l-140 -701h-232l20 98c-30 -37 -64 -65 -103 -84s-80 -29 -124 -29c-60 0 -107 17 -140 51z
M543 789c-7 9 -18 13 -31 13s-25 -4 -36 -13s-18 -22 -23 -37h-135c13 53 40 96 79 127s86 47 139 47c47 0 85 -13 112 -38s41 -60 41 -103c0 -10 -1 -21 -3 -33h-135c1 15 -1 28 -8 37z" />
    <glyph glyph-name="Umacron.ss01" horiz-adv-x="761" 
d="M105 36c-34 33 -51 79 -51 138c0 23 2 46 7 69l92 458h235l-80 -402c-2 -11 -3 -21 -3 -30c0 -24 6 -43 19 -56s31 -20 55 -20c34 0 63 10 87 31c24 20 40 47 47 82l79 395h232l-140 -701h-232l20 98c-30 -37 -64 -65 -103 -84s-80 -29 -124 -29c-60 0 -107 17 -140 51z
M348 880h360l-25 -128h-360z" />
    <glyph glyph-name="uni1E7A.ss01" horiz-adv-x="761" 
d="M105 36c-34 33 -51 79 -51 138c0 23 2 46 7 69l92 458h235l-80 -402c-2 -11 -3 -21 -3 -30c0 -24 6 -43 19 -56s31 -20 55 -20c34 0 63 10 87 31c24 20 40 47 47 82l79 395h232l-140 -701h-232l20 98c-30 -37 -64 -65 -103 -84s-80 -29 -124 -29c-60 0 -107 17 -140 51z
M353 871h320l-23 -119h-320zM502 1074c13 -13 20 -31 20 -53c0 -29 -10 -54 -31 -74c-21 -21 -47 -31 -76 -31c-22 0 -40 7 -53 20s-20 31 -20 52c0 30 10 55 31 75s46 30 76 30c22 0 40 -6 53 -19zM716 1074c13 -13 20 -31 20 -53c0 -29 -10 -54 -31 -74
c-21 -21 -47 -31 -76 -31c-22 0 -40 7 -53 20s-20 31 -20 52c0 30 10 55 31 75s46 30 76 30c22 0 40 -6 53 -19z" />
    <glyph glyph-name="Uogonek.ss01" horiz-adv-x="761" 
d="M824 701l-140 -701h-65c-27 -17 -48 -33 -63 -49c-16 -16 -24 -32 -24 -49c0 -12 5 -18 16 -18c7 0 16 3 27 8l8 -111c-42 -17 -80 -25 -113 -25c-32 0 -56 9 -71 26c-16 17 -24 39 -24 67c0 51 26 101 78 151h-1l20 98c-30 -37 -64 -65 -103 -84s-80 -29 -124 -29
c-60 0 -107 17 -140 51c-34 33 -51 79 -51 138c0 23 2 46 7 69l92 458h235l-80 -402c-2 -11 -3 -21 -3 -30c0 -24 6 -43 19 -56s31 -20 55 -20c34 0 63 10 87 31c24 20 40 47 47 82l79 395h232z" />
    <glyph glyph-name="Uring.ss01" horiz-adv-x="761" 
d="M105 36c-34 33 -51 79 -51 138c0 23 2 46 7 69l92 458h235l-80 -402c-2 -11 -3 -21 -3 -30c0 -24 6 -43 19 -56s31 -20 55 -20c34 0 63 10 87 31c24 20 40 47 47 82l79 395h232l-140 -701h-232l20 98c-30 -37 -64 -65 -103 -84s-80 -29 -124 -29c-60 0 -107 17 -140 51z
M617 950c21 -21 31 -47 31 -78c0 -25 -6 -48 -19 -69s-31 -38 -52 -51c-22 -13 -45 -19 -69 -19c-32 0 -58 10 -79 31s-31 47 -31 78c0 25 7 48 20 69s30 38 52 51c21 13 44 19 68 19c32 0 58 -10 79 -31zM497 883c-9 -9 -13 -19 -13 -32c0 -9 3 -17 10 -23
c6 -7 14 -10 24 -10c12 0 22 4 31 13s13 19 13 32c0 9 -3 17 -9 24c-7 6 -15 9 -25 9c-12 0 -22 -4 -31 -13z" />
    <glyph glyph-name="Utilde.ss01" horiz-adv-x="761" 
d="M105 36c-34 33 -51 79 -51 138c0 23 2 46 7 69l92 458h235l-80 -402c-2 -11 -3 -21 -3 -30c0 -24 6 -43 19 -56s31 -20 55 -20c34 0 63 10 87 31c24 20 40 47 47 82l79 395h232l-140 -701h-232l20 98c-30 -37 -64 -65 -103 -84s-80 -29 -124 -29c-60 0 -107 17 -140 51z
M687 792c-23 -28 -53 -42 -90 -42c-17 0 -31 2 -44 7s-27 11 -43 20c-3 1 -8 4 -16 8c-9 4 -16 6 -22 6c-19 0 -31 -13 -37 -39h-117c12 61 30 106 53 135s53 43 90 43c16 0 31 -2 44 -7s28 -11 43 -20c17 -9 29 -14 37 -14c10 0 18 3 24 9c5 6 10 16 13 29h116
c-12 -62 -29 -107 -51 -135z" />
    <glyph glyph-name="uni1E78.ss01" horiz-adv-x="761" 
d="M105 36c-34 33 -51 79 -51 138c0 23 2 46 7 69l92 458h235l-80 -402c-2 -11 -3 -21 -3 -30c0 -24 6 -43 19 -56s31 -20 55 -20c34 0 63 10 87 31c24 20 40 47 47 82l79 395h232l-140 -701h-232l20 98c-30 -37 -64 -65 -103 -84s-80 -29 -124 -29c-60 0 -107 17 -140 51z
M710 785c-21 -23 -51 -35 -88 -35c-18 0 -34 2 -49 7c-15 4 -32 10 -51 18c-21 9 -36 13 -44 13c-11 0 -20 -3 -25 -8c-5 -6 -9 -15 -12 -28h-100c10 51 26 88 47 112s50 36 87 36c19 0 35 -2 50 -6c14 -5 31 -11 51 -19l24 -9c7 -3 14 -4 19 -4c11 0 19 3 25 9
c5 5 10 14 13 26h99c-10 -51 -25 -89 -46 -112zM616 1115l139 -81l-174 -93l-121 31z" />
    <glyph glyph-name="W.ss01" horiz-adv-x="1137" 
d="M1070 129c-33 -45 -74 -81 -121 -106c-48 -26 -99 -39 -152 -39c-49 0 -94 11 -134 33s-69 50 -88 85c-31 -35 -71 -63 -119 -85s-97 -33 -147 -33c-47 0 -88 10 -123 29s-62 47 -81 82s-29 75 -29 121c0 21 2 42 6 65l81 420h232l-81 -420c-2 -9 -3 -17 -3 -25
c0 -23 7 -42 20 -57s31 -22 53 -22c25 0 48 10 69 30c21 19 34 44 40 74l81 420h232l-81 -420c-1 -5 -2 -13 -2 -24c0 -23 7 -42 21 -57c13 -15 31 -23 53 -23c25 0 48 10 68 30c20 19 33 44 39 74l81 420h232l-81 -420c-11 -57 -33 -107 -66 -152z" />
    <glyph glyph-name="Wacute.ss01" horiz-adv-x="1137" 
d="M1070 129c-33 -45 -74 -81 -121 -106c-48 -26 -99 -39 -152 -39c-49 0 -94 11 -134 33s-69 50 -88 85c-31 -35 -71 -63 -119 -85s-97 -33 -147 -33c-47 0 -88 10 -123 29s-62 47 -81 82s-29 75 -29 121c0 21 2 42 6 65l81 420h232l-81 -420c-2 -9 -3 -17 -3 -25
c0 -23 7 -42 20 -57s31 -22 53 -22c25 0 48 10 69 30c21 19 34 44 40 74l81 420h232l-81 -420c-1 -5 -2 -13 -2 -24c0 -23 7 -42 21 -57c13 -15 31 -23 53 -23c25 0 48 10 68 30c20 19 33 44 39 74l81 420h232l-81 -420c-11 -57 -33 -107 -66 -152zM724 934l169 -60
l-162 -129l-142 10z" />
    <glyph glyph-name="Wcircumflex.ss01" horiz-adv-x="1137" 
d="M1070 129c-33 -45 -74 -81 -121 -106c-48 -26 -99 -39 -152 -39c-49 0 -94 11 -134 33s-69 50 -88 85c-31 -35 -71 -63 -119 -85s-97 -33 -147 -33c-47 0 -88 10 -123 29s-62 47 -81 82s-29 75 -29 121c0 21 2 42 6 65l81 420h232l-81 -420c-2 -9 -3 -17 -3 -25
c0 -23 7 -42 20 -57s31 -22 53 -22c25 0 48 10 69 30c21 19 34 44 40 74l81 420h232l-81 -420c-1 -5 -2 -13 -2 -24c0 -23 7 -42 21 -57c13 -15 31 -23 53 -23c25 0 48 10 68 30c20 19 33 44 39 74l81 420h232l-81 -420c-11 -57 -33 -107 -66 -152zM906 752h-140l-51 72
l-79 -72h-140l142 162h188z" />
    <glyph glyph-name="Wdieresis.ss01" horiz-adv-x="1137" 
d="M1070 129c-33 -45 -74 -81 -121 -106c-48 -26 -99 -39 -152 -39c-49 0 -94 11 -134 33s-69 50 -88 85c-31 -35 -71 -63 -119 -85s-97 -33 -147 -33c-47 0 -88 10 -123 29s-62 47 -81 82s-29 75 -29 121c0 21 2 42 6 65l81 420h232l-81 -420c-2 -9 -3 -17 -3 -25
c0 -23 7 -42 20 -57s31 -22 53 -22c25 0 48 10 69 30c21 19 34 44 40 74l81 420h232l-81 -420c-1 -5 -2 -13 -2 -24c0 -23 7 -42 21 -57c13 -15 31 -23 53 -23c25 0 48 10 68 30c20 19 33 44 39 74l81 420h232l-81 -420c-11 -57 -33 -107 -66 -152zM687 909
c13 -13 20 -31 20 -53c0 -29 -10 -53 -31 -73c-21 -21 -47 -31 -76 -31c-22 0 -40 7 -53 20s-20 31 -20 52c0 29 11 54 32 75c21 20 46 30 75 30c22 0 40 -7 53 -20zM889 909c13 -13 20 -31 20 -53c0 -29 -10 -53 -31 -73c-21 -21 -47 -31 -76 -31c-22 0 -40 7 -53 20
s-20 31 -20 52c0 29 11 54 32 75c21 20 46 30 75 30c22 0 40 -7 53 -20z" />
    <glyph glyph-name="Wgrave.ss01" horiz-adv-x="1137" 
d="M1070 129c-33 -45 -74 -81 -121 -106c-48 -26 -99 -39 -152 -39c-49 0 -94 11 -134 33s-69 50 -88 85c-31 -35 -71 -63 -119 -85s-97 -33 -147 -33c-47 0 -88 10 -123 29s-62 47 -81 82s-29 75 -29 121c0 21 2 42 6 65l81 420h232l-81 -420c-2 -9 -3 -17 -3 -25
c0 -23 7 -42 20 -57s31 -22 53 -22c25 0 48 10 69 30c21 19 34 44 40 74l81 420h232l-81 -420c-1 -5 -2 -13 -2 -24c0 -23 7 -42 21 -57c13 -15 31 -23 53 -23c25 0 48 10 68 30c20 19 33 44 39 74l81 420h232l-81 -420c-11 -57 -33 -107 -66 -152zM718 934l111 -179
l-143 -10l-138 129z" />
    <glyph glyph-name="Y.ss01" horiz-adv-x="747" 
d="M789 701l-102 -513c-13 -61 -37 -114 -73 -159s-81 -79 -136 -103s-116 -36 -183 -36c-59 0 -115 9 -169 28c-54 18 -98 41 -132 70l106 146c24 -16 52 -28 85 -37c32 -9 63 -14 92 -14c46 0 86 12 120 37c34 24 55 54 62 91l6 32c-25 -29 -55 -52 -89 -67
c-34 -16 -71 -24 -110 -24c-63 0 -113 19 -149 58c-37 38 -55 89 -55 153c0 23 2 46 7 69l54 269h232l-53 -265c-2 -9 -3 -17 -3 -25c0 -20 6 -35 19 -45c12 -11 30 -16 53 -16c33 0 63 10 89 31c26 20 42 45 48 76l49 244h232z" />
    <glyph glyph-name="Yacute.ss01" horiz-adv-x="747" 
d="M789 701l-102 -513c-13 -61 -37 -114 -73 -159s-81 -79 -136 -103s-116 -36 -183 -36c-59 0 -115 9 -169 28c-54 18 -98 41 -132 70l106 146c24 -16 52 -28 85 -37c32 -9 63 -14 92 -14c46 0 86 12 120 37c34 24 55 54 62 91l6 32c-25 -29 -55 -52 -89 -67
c-34 -16 -71 -24 -110 -24c-63 0 -113 19 -149 58c-37 38 -55 89 -55 153c0 23 2 46 7 69l54 269h232l-53 -265c-2 -9 -3 -17 -3 -25c0 -20 6 -35 19 -45c12 -11 30 -16 53 -16c33 0 63 10 89 31c26 20 42 45 48 76l49 244h232zM489 934l169 -60l-162 -129l-142 10z" />
    <glyph glyph-name="Ycircumflex.ss01" horiz-adv-x="747" 
d="M789 701l-102 -513c-13 -61 -37 -114 -73 -159s-81 -79 -136 -103s-116 -36 -183 -36c-59 0 -115 9 -169 28c-54 18 -98 41 -132 70l106 146c24 -16 52 -28 85 -37c32 -9 63 -14 92 -14c46 0 86 12 120 37c34 24 55 54 62 91l6 32c-25 -29 -55 -52 -89 -67
c-34 -16 -71 -24 -110 -24c-63 0 -113 19 -149 58c-37 38 -55 89 -55 153c0 23 2 46 7 69l54 269h232l-53 -265c-2 -9 -3 -17 -3 -25c0 -20 6 -35 19 -45c12 -11 30 -16 53 -16c33 0 63 10 89 31c26 20 42 45 48 76l49 244h232zM671 752h-140l-51 72l-79 -72h-140l142 162
h188z" />
    <glyph glyph-name="Ydieresis.ss01" horiz-adv-x="747" 
d="M789 701l-102 -513c-13 -61 -37 -114 -73 -159s-81 -79 -136 -103s-116 -36 -183 -36c-59 0 -115 9 -169 28c-54 18 -98 41 -132 70l106 146c24 -16 52 -28 85 -37c32 -9 63 -14 92 -14c46 0 86 12 120 37c34 24 55 54 62 91l6 32c-25 -29 -55 -52 -89 -67
c-34 -16 -71 -24 -110 -24c-63 0 -113 19 -149 58c-37 38 -55 89 -55 153c0 23 2 46 7 69l54 269h232l-53 -265c-2 -9 -3 -17 -3 -25c0 -20 6 -35 19 -45c12 -11 30 -16 53 -16c33 0 63 10 89 31c26 20 42 45 48 76l49 244h232zM452 909c13 -13 20 -31 20 -53
c0 -29 -10 -53 -31 -73c-21 -21 -47 -31 -76 -31c-22 0 -40 7 -53 20s-20 31 -20 52c0 29 11 54 32 75c21 20 46 30 75 30c22 0 40 -7 53 -20zM654 909c13 -13 20 -31 20 -53c0 -29 -10 -53 -31 -73c-21 -21 -47 -31 -76 -31c-22 0 -40 7 -53 20s-20 31 -20 52
c0 29 11 54 32 75c21 20 46 30 75 30c22 0 40 -7 53 -20z" />
    <glyph glyph-name="uni1E8E.ss01" horiz-adv-x="747" 
d="M789 701l-102 -513c-13 -61 -37 -114 -73 -159s-81 -79 -136 -103s-116 -36 -183 -36c-59 0 -115 9 -169 28c-54 18 -98 41 -132 70l106 146c24 -16 52 -28 85 -37c32 -9 63 -14 92 -14c46 0 86 12 120 37c34 24 55 54 62 91l6 32c-25 -29 -55 -52 -89 -67
c-34 -16 -71 -24 -110 -24c-63 0 -113 19 -149 58c-37 38 -55 89 -55 153c0 23 2 46 7 69l54 269h232l-53 -265c-2 -9 -3 -17 -3 -25c0 -20 6 -35 19 -45c12 -11 30 -16 53 -16c33 0 63 10 89 31c26 20 42 45 48 76l49 244h232zM580 955c17 -17 25 -40 25 -68
c0 -25 -6 -48 -18 -69c-13 -21 -30 -37 -51 -48c-21 -12 -45 -18 -70 -18c-29 0 -51 9 -68 26s-26 39 -26 67c0 25 6 48 19 69c12 21 29 37 50 49c21 11 45 17 70 17c29 0 52 -8 69 -25z" />
    <glyph glyph-name="uni1EF4.ss01" horiz-adv-x="747" 
d="M789 701l-102 -513c-13 -61 -37 -114 -73 -159s-81 -79 -136 -103s-116 -36 -183 -36c-59 0 -115 9 -169 28c-54 18 -98 41 -132 70l106 146c24 -16 52 -28 85 -37c32 -9 63 -14 92 -14c46 0 86 12 120 37c34 24 55 54 62 91l6 32c-25 -29 -55 -52 -89 -67
c-34 -16 -71 -24 -110 -24c-63 0 -113 19 -149 58c-37 38 -55 89 -55 153c0 23 2 46 7 69l54 269h232l-53 -265c-2 -9 -3 -17 -3 -25c0 -20 6 -35 19 -45c12 -11 30 -16 53 -16c33 0 63 10 89 31c26 20 42 45 48 76l49 244h232zM354 -200c17 -17 25 -40 25 -68
c0 -25 -6 -48 -18 -69c-13 -21 -30 -37 -51 -48c-21 -12 -45 -18 -70 -18c-29 0 -51 9 -68 26s-26 39 -26 67c0 25 6 48 19 69c12 21 29 37 50 49c21 11 45 17 70 17c29 0 52 -8 69 -25z" />
    <glyph glyph-name="Ygrave.ss01" horiz-adv-x="747" 
d="M789 701l-102 -513c-13 -61 -37 -114 -73 -159s-81 -79 -136 -103s-116 -36 -183 -36c-59 0 -115 9 -169 28c-54 18 -98 41 -132 70l106 146c24 -16 52 -28 85 -37c32 -9 63 -14 92 -14c46 0 86 12 120 37c34 24 55 54 62 91l6 32c-25 -29 -55 -52 -89 -67
c-34 -16 -71 -24 -110 -24c-63 0 -113 19 -149 58c-37 38 -55 89 -55 153c0 23 2 46 7 69l54 269h232l-53 -265c-2 -9 -3 -17 -3 -25c0 -20 6 -35 19 -45c12 -11 30 -16 53 -16c33 0 63 10 89 31c26 20 42 45 48 76l49 244h232zM483 934l111 -179l-143 -10l-138 129z" />
    <glyph glyph-name="uni1EF6.ss01" horiz-adv-x="747" 
d="M789 701l-102 -513c-13 -61 -37 -114 -73 -159s-81 -79 -136 -103s-116 -36 -183 -36c-59 0 -115 9 -169 28c-54 18 -98 41 -132 70l106 146c24 -16 52 -28 85 -37c32 -9 63 -14 92 -14c46 0 86 12 120 37c34 24 55 54 62 91l6 32c-25 -29 -55 -52 -89 -67
c-34 -16 -71 -24 -110 -24c-63 0 -113 19 -149 58c-37 38 -55 89 -55 153c0 23 2 46 7 69l54 269h232l-53 -265c-2 -9 -3 -17 -3 -25c0 -20 6 -35 19 -45c12 -11 30 -16 53 -16c33 0 63 10 89 31c26 20 42 45 48 76l49 244h232zM601 968c17 -15 26 -36 26 -61
c0 -56 -42 -111 -125 -166l-85 37c19 14 35 28 46 42s16 26 16 37c0 7 -2 12 -6 16s-10 6 -17 6c-14 0 -28 -5 -42 -15l-38 83c53 29 102 44 148 44c34 0 60 -8 77 -23z" />
    <glyph glyph-name="uni0232.ss01" horiz-adv-x="747" 
d="M789 701l-102 -513c-13 -61 -37 -114 -73 -159s-81 -79 -136 -103s-116 -36 -183 -36c-59 0 -115 9 -169 28c-54 18 -98 41 -132 70l106 146c24 -16 52 -28 85 -37c32 -9 63 -14 92 -14c46 0 86 12 120 37c34 24 55 54 62 91l6 32c-25 -29 -55 -52 -89 -67
c-34 -16 -71 -24 -110 -24c-63 0 -113 19 -149 58c-37 38 -55 89 -55 153c0 23 2 46 7 69l54 269h232l-53 -265c-2 -9 -3 -17 -3 -25c0 -20 6 -35 19 -45c12 -11 30 -16 53 -16c33 0 63 10 89 31c26 20 42 45 48 76l49 244h232zM311 880h360l-25 -128h-360z" />
    <glyph glyph-name="uni1EF8.ss01" horiz-adv-x="747" 
d="M789 701l-102 -513c-13 -61 -37 -114 -73 -159s-81 -79 -136 -103s-116 -36 -183 -36c-59 0 -115 9 -169 28c-54 18 -98 41 -132 70l106 146c24 -16 52 -28 85 -37c32 -9 63 -14 92 -14c46 0 86 12 120 37c34 24 55 54 62 91l6 32c-25 -29 -55 -52 -89 -67
c-34 -16 -71 -24 -110 -24c-63 0 -113 19 -149 58c-37 38 -55 89 -55 153c0 23 2 46 7 69l54 269h232l-53 -265c-2 -9 -3 -17 -3 -25c0 -20 6 -35 19 -45c12 -11 30 -16 53 -16c33 0 63 10 89 31c26 20 42 45 48 76l49 244h232zM650 792c-23 -28 -53 -42 -90 -42
c-17 0 -31 2 -44 7s-27 11 -43 20c-3 1 -8 4 -16 8c-9 4 -16 6 -22 6c-19 0 -31 -13 -37 -39h-117c12 61 30 106 53 135s53 43 90 43c16 0 31 -2 44 -7s28 -11 43 -20c17 -9 29 -14 37 -14c10 0 18 3 24 9c5 6 10 16 13 29h116c-12 -62 -29 -107 -51 -135z" />
    <glyph glyph-name="Z.ss01" horiz-adv-x="695" 
d="M706 701l-24 -145l-144 -140h77l-28 -139h-192l-102 -99h334l-30 -178h-643l24 145l157 152h-81l28 139h197l90 87h-316l29 178h624z" />
    <glyph glyph-name="Zacute.ss01" horiz-adv-x="695" 
d="M706 701l-24 -145l-144 -140h77l-28 -139h-192l-102 -99h334l-30 -178h-643l24 145l157 152h-81l28 139h197l90 87h-316l29 178h624zM433 934l169 -60l-162 -129l-142 10z" />
    <glyph glyph-name="Zcaron.ss01" horiz-adv-x="695" 
d="M706 701l-24 -145l-144 -140h77l-28 -139h-192l-102 -99h334l-30 -178h-643l24 145l157 152h-81l28 139h197l90 87h-316l29 178h624zM506 914h140l-142 -162h-188l-80 162h140l51 -71z" />
    <glyph glyph-name="Zdotaccent.ss01" horiz-adv-x="695" 
d="M706 701l-24 -145l-144 -140h77l-28 -139h-192l-102 -99h334l-30 -178h-643l24 145l157 152h-81l28 139h197l90 87h-316l29 178h624zM524 955c17 -17 25 -40 25 -68c0 -25 -6 -48 -18 -69c-13 -21 -30 -37 -51 -48c-21 -12 -45 -18 -70 -18c-29 0 -51 9 -68 26
s-26 39 -26 67c0 25 6 48 19 69c12 21 29 37 50 49c21 11 45 17 70 17c29 0 52 -8 69 -25z" />
    <glyph glyph-name="uni1E92.ss01" horiz-adv-x="695" 
d="M706 701l-24 -145l-144 -140h77l-28 -139h-192l-102 -99h334l-30 -178h-643l24 145l157 152h-81l28 139h197l90 87h-316l29 178h624zM347 -90c17 -17 25 -40 25 -68c0 -25 -6 -48 -18 -69c-13 -21 -30 -37 -51 -48c-21 -12 -45 -18 -70 -18c-29 0 -51 9 -68 26
s-26 39 -26 67c0 25 6 48 19 69c12 21 29 37 50 49c21 11 45 17 70 17c29 0 52 -8 69 -25z" />
    <glyph glyph-name="a" unicode="a" horiz-adv-x="690" 
d="M125 22c-31 20 -54 48 -71 84s-26 77 -26 123c0 60 13 115 38 165c25 49 59 89 102 118s90 43 142 43c35 0 65 -7 92 -20c26 -14 47 -34 62 -60l14 72h225l-109 -547h-225l11 54c-45 -41 -95 -62 -150 -62c-39 0 -74 10 -105 30zM373 178c15 11 28 27 37 47
c9 19 13 40 13 63c0 25 -6 46 -19 61s-30 22 -51 22c-27 0 -50 -12 -69 -37s-29 -55 -29 -90c0 -27 6 -47 18 -62c11 -15 28 -22 49 -22c18 0 35 6 51 18z" />
    <glyph glyph-name="aacute" unicode="&#xe1;" horiz-adv-x="690" 
d="M125 22c-31 20 -54 48 -71 84s-26 77 -26 123c0 60 13 115 38 165c25 49 59 89 102 118s90 43 142 43c35 0 65 -7 92 -20c26 -14 47 -34 62 -60l14 72h225l-109 -547h-225l11 54c-45 -41 -95 -62 -150 -62c-39 0 -74 10 -105 30zM373 178c15 11 28 27 37 47
c9 19 13 40 13 63c0 25 -6 46 -19 61s-30 22 -51 22c-27 0 -50 -12 -69 -37s-29 -55 -29 -90c0 -27 6 -47 18 -62c11 -15 28 -22 49 -22c18 0 35 6 51 18zM437 780l169 -60l-162 -129l-142 10z" />
    <glyph glyph-name="abreve" unicode="&#x103;" horiz-adv-x="690" 
d="M125 22c-31 20 -54 48 -71 84s-26 77 -26 123c0 60 13 115 38 165c25 49 59 89 102 118s90 43 142 43c35 0 65 -7 92 -20c26 -14 47 -34 62 -60l14 72h225l-109 -547h-225l11 54c-45 -41 -95 -62 -150 -62c-39 0 -74 10 -105 30zM373 178c15 11 28 27 37 47
c9 19 13 40 13 63c0 25 -6 46 -19 61s-30 22 -51 22c-27 0 -50 -12 -69 -37s-29 -55 -29 -90c0 -27 6 -47 18 -62c11 -15 28 -22 49 -22c18 0 35 6 51 18zM407 733c7 -9 17 -14 30 -14s25 5 36 14s18 21 23 36h135c-13 -53 -40 -96 -79 -127s-86 -47 -139 -47
c-47 0 -85 13 -112 38s-41 60 -41 103c0 10 1 21 3 33h135c-1 -15 2 -27 9 -36z" />
    <glyph glyph-name="uni1EAF" unicode="&#x1eaf;" horiz-adv-x="690" 
d="M125 22c-31 20 -54 48 -71 84s-26 77 -26 123c0 60 13 115 38 165c25 49 59 89 102 118s90 43 142 43c35 0 65 -7 92 -20c26 -14 47 -34 62 -60l14 72h225l-109 -547h-225l11 54c-45 -41 -95 -62 -150 -62c-39 0 -74 10 -105 30zM373 178c15 11 28 27 37 47
c9 19 13 40 13 63c0 25 -6 46 -19 61s-30 22 -51 22c-27 0 -50 -12 -69 -37s-29 -55 -29 -90c0 -27 6 -47 18 -62c11 -15 28 -22 49 -22c18 0 35 6 51 18zM397 727c9 -9 22 -13 39 -13s31 4 44 13c13 8 21 19 25 32h125c-12 -48 -37 -86 -76 -115s-86 -43 -140 -43
c-49 0 -87 12 -114 35c-28 23 -42 55 -42 96c0 6 1 15 2 27h125c-1 -13 3 -24 12 -32zM491 943l139 -81l-174 -93l-121 31z" />
    <glyph glyph-name="uni1EB7" unicode="&#x1eb7;" horiz-adv-x="690" 
d="M125 22c-31 20 -54 48 -71 84s-26 77 -26 123c0 60 13 115 38 165c25 49 59 89 102 118s90 43 142 43c35 0 65 -7 92 -20c26 -14 47 -34 62 -60l14 72h225l-109 -547h-225l11 54c-45 -41 -95 -62 -150 -62c-39 0 -74 10 -105 30zM373 178c15 11 28 27 37 47
c9 19 13 40 13 63c0 25 -6 46 -19 61s-30 22 -51 22c-27 0 -50 -12 -69 -37s-29 -55 -29 -90c0 -27 6 -47 18 -62c11 -15 28 -22 49 -22c18 0 35 6 51 18zM361 -90c17 -17 25 -40 25 -68c0 -25 -6 -48 -18 -69c-13 -21 -30 -37 -51 -48c-21 -12 -45 -18 -70 -18
c-29 0 -51 9 -68 26s-26 39 -26 67c0 25 6 48 19 69c12 21 29 37 50 49c21 11 45 17 70 17c29 0 52 -8 69 -25zM390 733c7 -9 17 -14 30 -14s25 5 36 14s18 21 23 36h135c-13 -53 -40 -96 -79 -127s-86 -47 -139 -47c-47 0 -85 13 -112 38s-41 60 -41 103c0 10 1 21 3 33
h135c-1 -15 2 -27 9 -36z" />
    <glyph glyph-name="uni1EB1" unicode="&#x1eb1;" horiz-adv-x="690" 
d="M125 22c-31 20 -54 48 -71 84s-26 77 -26 123c0 60 13 115 38 165c25 49 59 89 102 118s90 43 142 43c35 0 65 -7 92 -20c26 -14 47 -34 62 -60l14 72h225l-109 -547h-225l11 54c-45 -41 -95 -62 -150 -62c-39 0 -74 10 -105 30zM373 178c15 11 28 27 37 47
c9 19 13 40 13 63c0 25 -6 46 -19 61s-30 22 -51 22c-27 0 -50 -12 -69 -37s-29 -55 -29 -90c0 -27 6 -47 18 -62c11 -15 28 -22 49 -22c18 0 35 6 51 18zM397 727c9 -9 22 -13 39 -13s31 4 44 13c13 8 21 19 25 32h125c-12 -48 -37 -86 -76 -115s-86 -43 -140 -43
c-49 0 -87 12 -114 35c-28 23 -42 55 -42 96c0 6 1 15 2 27h125c-1 -13 3 -24 12 -32zM402 943l156 -143l-121 -31l-174 93z" />
    <glyph glyph-name="uni1EB3" unicode="&#x1eb3;" horiz-adv-x="690" 
d="M125 22c-31 20 -54 48 -71 84s-26 77 -26 123c0 60 13 115 38 165c25 49 59 89 102 118s90 43 142 43c35 0 65 -7 92 -20c26 -14 47 -34 62 -60l14 72h225l-109 -547h-225l11 54c-45 -41 -95 -62 -150 -62c-39 0 -74 10 -105 30zM373 178c15 11 28 27 37 47
c9 19 13 40 13 63c0 25 -6 46 -19 61s-30 22 -51 22c-27 0 -50 -12 -69 -37s-29 -55 -29 -90c0 -27 6 -47 18 -62c11 -15 28 -22 49 -22c18 0 35 6 51 18zM396 727c9 -9 22 -13 39 -13s31 4 44 13c13 8 21 19 25 32h125c-12 -48 -37 -86 -76 -115s-86 -43 -140 -43
c-49 0 -87 12 -114 35c-28 23 -42 55 -42 96c0 6 1 15 2 27h125c-1 -13 3 -24 12 -32zM548 932c14 -13 21 -28 21 -46c0 -22 -8 -42 -23 -59c-15 -18 -41 -37 -78 -58l-77 31c16 7 28 14 36 21c7 6 11 13 11 20c0 9 -6 13 -18 13c-13 0 -24 -4 -34 -11l-35 70
c47 25 90 38 130 38c31 0 53 -6 67 -19z" />
    <glyph glyph-name="uni1EB5" unicode="&#x1eb5;" horiz-adv-x="690" 
d="M125 22c-31 20 -54 48 -71 84s-26 77 -26 123c0 60 13 115 38 165c25 49 59 89 102 118s90 43 142 43c35 0 65 -7 92 -20c26 -14 47 -34 62 -60l14 72h225l-109 -547h-225l11 54c-45 -41 -95 -62 -150 -62c-39 0 -74 10 -105 30zM373 178c15 11 28 27 37 47
c9 19 13 40 13 63c0 25 -6 46 -19 61s-30 22 -51 22c-27 0 -50 -12 -69 -37s-29 -55 -29 -90c0 -27 6 -47 18 -62c11 -15 28 -22 49 -22c18 0 35 6 51 18zM396 727c9 -9 22 -13 39 -13s31 4 44 13c13 8 21 19 25 32h125c-12 -48 -37 -86 -76 -115s-86 -43 -140 -43
c-49 0 -87 12 -114 35c-28 23 -42 55 -42 96c0 6 1 15 2 27h125c-1 -13 3 -24 12 -32zM612 832c-21 -23 -51 -35 -88 -35c-18 0 -34 2 -49 7c-15 4 -32 10 -51 18c-21 9 -36 13 -44 13c-11 0 -20 -3 -25 -8c-5 -6 -9 -15 -12 -28h-100c10 51 26 88 47 112s50 36 87 36
c19 0 35 -2 50 -6c14 -5 31 -11 51 -19l24 -9c7 -3 14 -4 19 -4c11 0 19 3 25 9c5 5 10 14 13 26h99c-10 -51 -25 -89 -46 -112z" />
    <glyph glyph-name="acircumflex" unicode="&#xe2;" horiz-adv-x="690" 
d="M125 22c-31 20 -54 48 -71 84s-26 77 -26 123c0 60 13 115 38 165c25 49 59 89 102 118s90 43 142 43c35 0 65 -7 92 -20c26 -14 47 -34 62 -60l14 72h225l-109 -547h-225l11 54c-45 -41 -95 -62 -150 -62c-39 0 -74 10 -105 30zM373 178c15 11 28 27 37 47
c9 19 13 40 13 63c0 25 -6 46 -19 61s-30 22 -51 22c-27 0 -50 -12 -69 -37s-29 -55 -29 -90c0 -27 6 -47 18 -62c11 -15 28 -22 49 -22c18 0 35 6 51 18zM621 607h-140l-51 72l-79 -72h-140l142 162h188z" />
    <glyph glyph-name="uni1EA5" unicode="&#x1ea5;" horiz-adv-x="690" 
d="M125 22c-31 20 -54 48 -71 84s-26 77 -26 123c0 60 13 115 38 165c25 49 59 89 102 118s90 43 142 43c35 0 65 -7 92 -20c26 -14 47 -34 62 -60l14 72h225l-109 -547h-225l11 54c-45 -41 -95 -62 -150 -62c-39 0 -74 10 -105 30zM373 178c15 11 28 27 37 47
c9 19 13 40 13 63c0 25 -6 46 -19 61s-30 22 -51 22c-27 0 -50 -12 -69 -37s-29 -55 -29 -90c0 -27 6 -47 18 -62c11 -15 28 -22 49 -22c18 0 35 6 51 18zM641 601h-161l-51 71l-78 -71h-160l148 138h201zM493 947l139 -81l-174 -93l-121 31z" />
    <glyph glyph-name="uni1EAD" unicode="&#x1ead;" horiz-adv-x="690" 
d="M125 22c-31 20 -54 48 -71 84s-26 77 -26 123c0 60 13 115 38 165c25 49 59 89 102 118s90 43 142 43c35 0 65 -7 92 -20c26 -14 47 -34 62 -60l14 72h225l-109 -547h-225l11 54c-45 -41 -95 -62 -150 -62c-39 0 -74 10 -105 30zM373 178c15 11 28 27 37 47
c9 19 13 40 13 63c0 25 -6 46 -19 61s-30 22 -51 22c-27 0 -50 -12 -69 -37s-29 -55 -29 -90c0 -27 6 -47 18 -62c11 -15 28 -22 49 -22c18 0 35 6 51 18zM361 -90c17 -17 25 -40 25 -68c0 -25 -6 -48 -18 -69c-13 -21 -30 -37 -51 -48c-21 -12 -45 -18 -70 -18
c-29 0 -51 9 -68 26s-26 39 -26 67c0 25 6 48 19 69c12 21 29 37 50 49c21 11 45 17 70 17c29 0 52 -8 69 -25zM604 607h-140l-51 72l-79 -72h-140l142 162h188z" />
    <glyph glyph-name="uni1EA7" unicode="&#x1ea7;" horiz-adv-x="690" 
d="M125 22c-31 20 -54 48 -71 84s-26 77 -26 123c0 60 13 115 38 165c25 49 59 89 102 118s90 43 142 43c35 0 65 -7 92 -20c26 -14 47 -34 62 -60l14 72h225l-109 -547h-225l11 54c-45 -41 -95 -62 -150 -62c-39 0 -74 10 -105 30zM373 178c15 11 28 27 37 47
c9 19 13 40 13 63c0 25 -6 46 -19 61s-30 22 -51 22c-27 0 -50 -12 -69 -37s-29 -55 -29 -90c0 -27 6 -47 18 -62c11 -15 28 -22 49 -22c18 0 35 6 51 18zM641 601h-161l-51 71l-78 -71h-160l148 138h201zM404 947l156 -143l-121 -31l-174 93z" />
    <glyph glyph-name="uni1EA9" unicode="&#x1ea9;" horiz-adv-x="690" 
d="M125 22c-31 20 -54 48 -71 84s-26 77 -26 123c0 60 13 115 38 165c25 49 59 89 102 118s90 43 142 43c35 0 65 -7 92 -20c26 -14 47 -34 62 -60l14 72h225l-109 -547h-225l11 54c-45 -41 -95 -62 -150 -62c-39 0 -74 10 -105 30zM373 178c15 11 28 27 37 47
c9 19 13 40 13 63c0 25 -6 46 -19 61s-30 22 -51 22c-27 0 -50 -12 -69 -37s-29 -55 -29 -90c0 -27 6 -47 18 -62c11 -15 28 -22 49 -22c18 0 35 6 51 18zM639 601h-161l-51 71l-78 -71h-160l148 138h201zM549 936c14 -13 21 -28 21 -46c0 -22 -8 -42 -23 -59
c-15 -18 -41 -37 -78 -58l-77 31c16 7 28 14 36 21c7 6 11 13 11 20c0 9 -6 13 -18 13c-13 0 -24 -4 -34 -11l-35 70c47 25 90 38 130 38c31 0 53 -6 67 -19z" />
    <glyph glyph-name="uni1EAB" unicode="&#x1eab;" horiz-adv-x="690" 
d="M125 22c-31 20 -54 48 -71 84s-26 77 -26 123c0 60 13 115 38 165c25 49 59 89 102 118s90 43 142 43c35 0 65 -7 92 -20c26 -14 47 -34 62 -60l14 72h225l-109 -547h-225l11 54c-45 -41 -95 -62 -150 -62c-39 0 -74 10 -105 30zM373 178c15 11 28 27 37 47
c9 19 13 40 13 63c0 25 -6 46 -19 61s-30 22 -51 22c-27 0 -50 -12 -69 -37s-29 -55 -29 -90c0 -27 6 -47 18 -62c11 -15 28 -22 49 -22c18 0 35 6 51 18zM640 601h-161l-51 71l-78 -71h-160l148 138h201zM621 806c-21 -23 -51 -35 -88 -35c-18 0 -34 2 -49 7
c-15 4 -32 10 -51 18c-21 9 -36 13 -44 13c-11 0 -20 -3 -25 -8c-5 -6 -9 -15 -12 -28h-100c10 51 26 88 47 112s50 36 87 36c19 0 35 -2 50 -6c14 -5 31 -11 51 -19l24 -9c7 -3 14 -4 19 -4c11 0 19 3 25 9c5 5 10 14 13 26h99c-10 -51 -25 -89 -46 -112z" />
    <glyph glyph-name="uni0201" unicode="&#x201;" horiz-adv-x="690" 
d="M125 22c-31 20 -54 48 -71 84s-26 77 -26 123c0 60 13 115 38 165c25 49 59 89 102 118s90 43 142 43c35 0 65 -7 92 -20c26 -14 47 -34 62 -60l14 72h225l-109 -547h-225l11 54c-45 -41 -95 -62 -150 -62c-39 0 -74 10 -105 30zM373 178c15 11 28 27 37 47
c9 19 13 40 13 63c0 25 -6 46 -19 61s-30 22 -51 22c-27 0 -50 -12 -69 -37s-29 -55 -29 -90c0 -27 6 -47 18 -62c11 -15 28 -22 49 -22c18 0 35 6 51 18zM356 780l48 -179l-157 -10l-63 136zM577 780l48 -179l-157 -10l-63 136z" />
    <glyph glyph-name="adieresis" unicode="&#xe4;" horiz-adv-x="690" 
d="M125 22c-31 20 -54 48 -71 84s-26 77 -26 123c0 60 13 115 38 165c25 49 59 89 102 118s90 43 142 43c35 0 65 -7 92 -20c26 -14 47 -34 62 -60l14 72h225l-109 -547h-225l11 54c-45 -41 -95 -62 -150 -62c-39 0 -74 10 -105 30zM373 178c15 11 28 27 37 47
c9 19 13 40 13 63c0 25 -6 46 -19 61s-30 22 -51 22c-27 0 -50 -12 -69 -37s-29 -55 -29 -90c0 -27 6 -47 18 -62c11 -15 28 -22 49 -22c18 0 35 6 51 18zM401 762c13 -13 20 -31 20 -53c0 -29 -10 -53 -31 -73c-21 -21 -47 -31 -76 -31c-22 0 -40 7 -53 20s-20 31 -20 52
c0 29 11 54 32 75c21 20 46 30 75 30c22 0 40 -7 53 -20zM603 762c13 -13 20 -31 20 -53c0 -29 -10 -53 -31 -73c-21 -21 -47 -31 -76 -31c-22 0 -40 7 -53 20s-20 31 -20 52c0 29 11 54 32 75c21 20 46 30 75 30c22 0 40 -7 53 -20z" />
    <glyph glyph-name="uni1EA1" unicode="&#x1ea1;" horiz-adv-x="690" 
d="M125 22c-31 20 -54 48 -71 84s-26 77 -26 123c0 60 13 115 38 165c25 49 59 89 102 118s90 43 142 43c35 0 65 -7 92 -20c26 -14 47 -34 62 -60l14 72h225l-109 -547h-225l11 54c-45 -41 -95 -62 -150 -62c-39 0 -74 10 -105 30zM373 178c15 11 28 27 37 47
c9 19 13 40 13 63c0 25 -6 46 -19 61s-30 22 -51 22c-27 0 -50 -12 -69 -37s-29 -55 -29 -90c0 -27 6 -47 18 -62c11 -15 28 -22 49 -22c18 0 35 6 51 18zM361 -90c17 -17 25 -40 25 -68c0 -25 -6 -48 -18 -69c-13 -21 -30 -37 -51 -48c-21 -12 -45 -18 -70 -18
c-29 0 -51 9 -68 26s-26 39 -26 67c0 25 6 48 19 69c12 21 29 37 50 49c21 11 45 17 70 17c29 0 52 -8 69 -25z" />
    <glyph glyph-name="agrave" unicode="&#xe0;" horiz-adv-x="690" 
d="M125 22c-31 20 -54 48 -71 84s-26 77 -26 123c0 60 13 115 38 165c25 49 59 89 102 118s90 43 142 43c35 0 65 -7 92 -20c26 -14 47 -34 62 -60l14 72h225l-109 -547h-225l11 54c-45 -41 -95 -62 -150 -62c-39 0 -74 10 -105 30zM373 178c15 11 28 27 37 47
c9 19 13 40 13 63c0 25 -6 46 -19 61s-30 22 -51 22c-27 0 -50 -12 -69 -37s-29 -55 -29 -90c0 -27 6 -47 18 -62c11 -15 28 -22 49 -22c18 0 35 6 51 18zM431 780l111 -179l-143 -10l-138 129z" />
    <glyph glyph-name="uni1EA3" unicode="&#x1ea3;" horiz-adv-x="690" 
d="M125 22c-31 20 -54 48 -71 84s-26 77 -26 123c0 60 13 115 38 165c25 49 59 89 102 118s90 43 142 43c35 0 65 -7 92 -20c26 -14 47 -34 62 -60l14 72h225l-109 -547h-225l11 54c-45 -41 -95 -62 -150 -62c-39 0 -74 10 -105 30zM373 178c15 11 28 27 37 47
c9 19 13 40 13 63c0 25 -6 46 -19 61s-30 22 -51 22c-27 0 -50 -12 -69 -37s-29 -55 -29 -90c0 -27 6 -47 18 -62c11 -15 28 -22 49 -22c18 0 35 6 51 18zM549 814c17 -15 26 -36 26 -61c0 -56 -42 -111 -125 -166l-85 37c19 14 35 28 46 42s16 26 16 37c0 7 -2 12 -6 16
s-10 6 -17 6c-14 0 -28 -5 -42 -15l-38 83c53 29 102 44 148 44c34 0 60 -8 77 -23z" />
    <glyph glyph-name="uni0203" unicode="&#x203;" horiz-adv-x="690" 
d="M125 22c-31 20 -54 48 -71 84s-26 77 -26 123c0 60 13 115 38 165c25 49 59 89 102 118s90 43 142 43c35 0 65 -7 92 -20c26 -14 47 -34 62 -60l14 72h225l-109 -547h-225l11 54c-45 -41 -95 -62 -150 -62c-39 0 -74 10 -105 30zM373 178c15 11 28 27 37 47
c9 19 13 40 13 63c0 25 -6 46 -19 61s-30 22 -51 22c-27 0 -50 -12 -69 -37s-29 -55 -29 -90c0 -27 6 -47 18 -62c11 -15 28 -22 49 -22c18 0 35 6 51 18zM453 632c-7 9 -18 13 -31 13s-25 -4 -36 -13s-18 -22 -23 -37h-135c13 53 40 96 79 127s86 47 139 47
c47 0 85 -13 112 -38s41 -60 41 -103c0 -10 -1 -21 -3 -33h-135c1 15 -1 28 -8 37z" />
    <glyph glyph-name="amacron" unicode="&#x101;" horiz-adv-x="690" 
d="M125 22c-31 20 -54 48 -71 84s-26 77 -26 123c0 60 13 115 38 165c25 49 59 89 102 118s90 43 142 43c35 0 65 -7 92 -20c26 -14 47 -34 62 -60l14 72h225l-109 -547h-225l11 54c-45 -41 -95 -62 -150 -62c-39 0 -74 10 -105 30zM373 178c15 11 28 27 37 47
c9 19 13 40 13 63c0 25 -6 46 -19 61s-30 22 -51 22c-27 0 -50 -12 -69 -37s-29 -55 -29 -90c0 -27 6 -47 18 -62c11 -15 28 -22 49 -22c18 0 35 6 51 18zM286 762h320l-25 -128h-320z" />
    <glyph glyph-name="aogonek" unicode="&#x105;" horiz-adv-x="690" 
d="M703 547l-109 -547h-58c-27 -17 -48 -33 -63 -49c-16 -16 -24 -32 -24 -49c0 -12 5 -18 16 -18c7 0 16 3 27 8l8 -111c-42 -17 -80 -25 -113 -25c-32 0 -56 9 -71 26c-16 17 -24 39 -24 67c0 51 26 101 78 151h-1l11 54c-45 -41 -95 -62 -150 -62c-39 0 -74 10 -105 30
s-54 48 -71 84s-26 77 -26 123c0 60 13 115 38 165c25 49 59 89 102 118s90 43 142 43c35 0 65 -7 92 -20c26 -14 47 -34 62 -60l14 72h225zM373 178c15 11 28 27 37 47c9 19 13 40 13 63c0 25 -6 46 -19 61s-30 22 -51 22c-27 0 -50 -12 -69 -37s-29 -55 -29 -90
c0 -27 6 -47 18 -62c11 -15 28 -22 49 -22c18 0 35 6 51 18z" />
    <glyph glyph-name="aring" unicode="&#xe5;" horiz-adv-x="690" 
d="M125 22c-31 20 -54 48 -71 84s-26 77 -26 123c0 60 13 115 38 165c25 49 59 89 102 118s90 43 142 43c35 0 65 -7 92 -20c26 -14 47 -34 62 -60l14 72h225l-109 -547h-225l11 54c-45 -41 -95 -62 -150 -62c-39 0 -74 10 -105 30zM373 178c15 11 28 27 37 47
c9 19 13 40 13 63c0 25 -6 46 -19 61s-30 22 -51 22c-27 0 -50 -12 -69 -37s-29 -55 -29 -90c0 -27 6 -47 18 -62c11 -15 28 -22 49 -22c18 0 35 6 51 18zM528 796c21 -21 31 -47 31 -78c0 -25 -6 -48 -19 -69s-31 -38 -52 -51c-22 -13 -45 -19 -69 -19c-32 0 -58 10 -79 31
s-31 47 -31 78c0 25 7 48 20 69s30 38 52 51c21 13 44 19 68 19c32 0 58 -10 79 -31zM408 729c-9 -9 -13 -19 -13 -32c0 -9 3 -17 10 -23c6 -7 14 -10 24 -10c12 0 22 4 31 13s13 19 13 32c0 9 -3 17 -9 24c-7 6 -15 9 -25 9c-12 0 -22 -4 -31 -13z" />
    <glyph glyph-name="aringacute" unicode="&#x1fb;" horiz-adv-x="690" 
d="M125 22c-31 20 -54 48 -71 84s-26 77 -26 123c0 60 13 115 38 165c25 49 59 89 102 118s90 43 142 43c35 0 65 -7 92 -20c26 -14 47 -34 62 -60l14 72h225l-109 -547h-225l11 54c-45 -41 -95 -62 -150 -62c-39 0 -74 10 -105 30zM373 178c15 11 28 27 37 47
c9 19 13 40 13 63c0 25 -6 46 -19 61s-30 22 -51 22c-27 0 -50 -12 -69 -37s-29 -55 -29 -90c0 -27 6 -47 18 -62c11 -15 28 -22 49 -22c18 0 35 6 51 18zM526 796c21 -21 31 -47 31 -78c0 -25 -6 -48 -19 -69s-31 -38 -52 -51c-22 -13 -45 -19 -69 -19c-32 0 -58 10 -79 31
s-31 47 -31 78c0 25 7 48 20 69s30 38 52 51c21 13 44 19 68 19c32 0 58 -10 79 -31zM406 729c-9 -9 -13 -19 -13 -32c0 -9 3 -17 10 -23c6 -7 14 -10 24 -10c12 0 22 4 31 13s13 19 13 32c0 9 -3 17 -9 24c-7 6 -15 9 -25 9c-12 0 -22 -4 -31 -13zM505 1023l139 -81
l-174 -93l-121 31z" />
    <glyph glyph-name="atilde" unicode="&#xe3;" horiz-adv-x="690" 
d="M125 22c-31 20 -54 48 -71 84s-26 77 -26 123c0 60 13 115 38 165c25 49 59 89 102 118s90 43 142 43c35 0 65 -7 92 -20c26 -14 47 -34 62 -60l14 72h225l-109 -547h-225l11 54c-45 -41 -95 -62 -150 -62c-39 0 -74 10 -105 30zM373 178c15 11 28 27 37 47
c9 19 13 40 13 63c0 25 -6 46 -19 61s-30 22 -51 22c-27 0 -50 -12 -69 -37s-29 -55 -29 -90c0 -27 6 -47 18 -62c11 -15 28 -22 49 -22c18 0 35 6 51 18zM598 636c-23 -28 -53 -42 -90 -42c-17 0 -31 2 -44 7s-27 11 -43 20c-3 1 -8 4 -16 8c-9 4 -16 6 -22 6
c-19 0 -31 -13 -37 -39h-117c12 61 30 106 53 135s53 43 90 43c16 0 31 -2 44 -7s28 -11 43 -20c17 -9 29 -14 37 -14c10 0 18 3 24 9c5 6 10 16 13 29h116c-12 -62 -29 -107 -51 -135z" />
    <glyph glyph-name="ae" unicode="&#xe6;" horiz-adv-x="955" 
d="M48 33c-35 29 -52 69 -52 118c0 58 19 102 57 133c38 30 94 45 168 45h130v13c0 31 -25 47 -75 47c-23 0 -49 -3 -80 -9c-31 -7 -62 -16 -93 -27l-44 152c48 17 96 30 143 39s91 13 130 13c74 0 131 -15 172 -45c44 29 96 43 156 43c86 0 153 -24 201 -71
s72 -112 72 -194c0 -19 -2 -41 -5 -66h-356v-11c0 -19 8 -32 23 -41s34 -14 56 -14c21 0 41 5 62 14c20 9 39 21 57 38l112 -121c-65 -65 -149 -97 -254 -97c-51 0 -94 9 -130 27c-36 17 -64 42 -84 74c-48 -69 -122 -104 -222 -104c-61 0 -109 15 -144 44zM713 329
c1 4 1 10 1 17c0 19 -5 33 -14 44c-10 10 -23 15 -40 15c-20 0 -37 -7 -51 -21s-24 -32 -31 -55h135zM297 145c15 8 28 19 39 33l6 46h-77c-16 1 -29 -3 -40 -13c-11 -11 -17 -25 -17 -42c0 -24 14 -36 42 -36c16 0 32 4 47 12z" />
    <glyph glyph-name="aeacute" unicode="&#x1fd;" horiz-adv-x="955" 
d="M48 33c-35 29 -52 69 -52 118c0 58 19 102 57 133c38 30 94 45 168 45h130v13c0 31 -25 47 -75 47c-23 0 -49 -3 -80 -9c-31 -7 -62 -16 -93 -27l-44 152c48 17 96 30 143 39s91 13 130 13c74 0 131 -15 172 -45c44 29 96 43 156 43c86 0 153 -24 201 -71
s72 -112 72 -194c0 -19 -2 -41 -5 -66h-356v-11c0 -19 8 -32 23 -41s34 -14 56 -14c21 0 41 5 62 14c20 9 39 21 57 38l112 -121c-65 -65 -149 -97 -254 -97c-51 0 -94 9 -130 27c-36 17 -64 42 -84 74c-48 -69 -122 -104 -222 -104c-61 0 -109 15 -144 44zM713 329
c1 4 1 10 1 17c0 19 -5 33 -14 44c-10 10 -23 15 -40 15c-20 0 -37 -7 -51 -21s-24 -32 -31 -55h135zM297 145c15 8 28 19 39 33l6 46h-77c-16 1 -29 -3 -40 -13c-11 -11 -17 -25 -17 -42c0 -24 14 -36 42 -36c16 0 32 4 47 12zM547 780l169 -60l-162 -129l-142 10z" />
    <glyph glyph-name="b" unicode="b" horiz-adv-x="696" 
d="M592 525c31 -20 55 -48 72 -84s25 -77 25 -123c0 -60 -12 -115 -37 -164c-25 -50 -59 -89 -102 -118s-91 -44 -143 -44c-35 0 -65 7 -91 21c-27 13 -48 33 -63 59l-14 -72h-225l147 742h225l-49 -249c45 41 95 62 150 62c39 0 74 -10 105 -30zM345 370
c-16 -12 -28 -28 -37 -47c-9 -20 -14 -41 -14 -64c0 -25 6 -45 19 -60s30 -23 51 -23c27 0 51 13 70 38s28 54 28 89c0 27 -6 47 -17 62c-12 15 -29 22 -50 22c-18 0 -35 -6 -50 -17z" />
    <glyph glyph-name="c" unicode="c" horiz-adv-x="577" 
d="M154 23c-39 20 -69 49 -90 87c-21 37 -32 81 -32 132c0 61 13 116 40 164c27 47 64 84 113 110c48 26 103 39 166 39c59 0 110 -14 153 -41c43 -28 73 -67 90 -117l-186 -76c-11 35 -33 52 -65 52c-25 0 -45 -11 -60 -32s-23 -49 -23 -84c0 -27 6 -48 17 -63
c11 -16 26 -24 46 -24c33 0 58 20 73 59l173 -84c-25 -49 -61 -86 -109 -113c-49 -27 -104 -40 -167 -40c-53 0 -100 10 -139 31z" />
    <glyph glyph-name="cacute" unicode="&#x107;" horiz-adv-x="577" 
d="M154 23c-39 20 -69 49 -90 87c-21 37 -32 81 -32 132c0 61 13 116 40 164c27 47 64 84 113 110c48 26 103 39 166 39c59 0 110 -14 153 -41c43 -28 73 -67 90 -117l-186 -76c-11 35 -33 52 -65 52c-25 0 -45 -11 -60 -32s-23 -49 -23 -84c0 -27 6 -48 17 -63
c11 -16 26 -24 46 -24c33 0 58 20 73 59l173 -84c-25 -49 -61 -86 -109 -113c-49 -27 -104 -40 -167 -40c-53 0 -100 10 -139 31zM393 780l169 -60l-162 -129l-142 10z" />
    <glyph glyph-name="ccaron" unicode="&#x10d;" horiz-adv-x="577" 
d="M154 23c-39 20 -69 49 -90 87c-21 37 -32 81 -32 132c0 61 13 116 40 164c27 47 64 84 113 110c48 26 103 39 166 39c59 0 110 -14 153 -41c43 -28 73 -67 90 -117l-186 -76c-11 35 -33 52 -65 52c-25 0 -45 -11 -60 -32s-23 -49 -23 -84c0 -27 6 -48 17 -63
c11 -16 26 -24 46 -24c33 0 58 20 73 59l173 -84c-25 -49 -61 -86 -109 -113c-49 -27 -104 -40 -167 -40c-53 0 -100 10 -139 31zM468 769h140l-142 -162h-188l-80 162h140l51 -71z" />
    <glyph glyph-name="ccedilla" unicode="&#xe7;" horiz-adv-x="577" 
d="M396 229l173 -84c-22 -43 -54 -78 -95 -104c-42 -27 -90 -42 -145 -47l-27 -48c24 -7 42 -16 54 -29c11 -13 17 -29 17 -46c0 -38 -15 -67 -46 -86s-69 -29 -114 -29c-40 0 -79 7 -117 21l49 93c15 -6 30 -9 47 -9c13 0 25 2 34 7s13 11 13 18s-5 13 -16 17s-23 6 -38 6
h-20l47 92c-57 14 -101 42 -132 85c-32 42 -48 94 -48 156c0 61 13 116 40 164c27 47 64 84 113 110c48 26 103 39 166 39c59 0 110 -14 153 -41c43 -28 73 -67 90 -117l-186 -76c-11 35 -33 52 -65 52c-25 0 -45 -11 -60 -32s-23 -49 -23 -84c0 -27 6 -48 17 -63
c11 -16 26 -24 46 -24c33 0 58 20 73 59z" />
    <glyph glyph-name="uni1E09" unicode="&#x1e09;" horiz-adv-x="577" 
d="M572 720l-162 -129l-142 10l135 179zM396 229l173 -84c-22 -43 -54 -78 -95 -104c-42 -27 -90 -42 -145 -47l-27 -48c24 -7 42 -16 54 -29c11 -13 17 -29 17 -46c0 -38 -15 -67 -46 -86s-69 -29 -114 -29c-40 0 -79 7 -117 21l49 93c15 -6 30 -9 47 -9c13 0 25 2 34 7
s13 11 13 18s-5 13 -16 17s-23 6 -38 6h-20l47 92c-57 14 -101 42 -132 85c-32 42 -48 94 -48 156c0 61 13 116 40 164c27 47 64 84 113 110c48 26 103 39 166 39c59 0 110 -14 153 -41c43 -28 73 -67 90 -117l-186 -76c-11 35 -33 52 -65 52c-25 0 -45 -11 -60 -32
s-23 -49 -23 -84c0 -27 6 -48 17 -63c11 -16 26 -24 46 -24c33 0 58 20 73 59z" />
    <glyph glyph-name="ccircumflex" unicode="&#x109;" horiz-adv-x="577" 
d="M154 23c-39 20 -69 49 -90 87c-21 37 -32 81 -32 132c0 61 13 116 40 164c27 47 64 84 113 110c48 26 103 39 166 39c59 0 110 -14 153 -41c43 -28 73 -67 90 -117l-186 -76c-11 35 -33 52 -65 52c-25 0 -45 -11 -60 -32s-23 -49 -23 -84c0 -27 6 -48 17 -63
c11 -16 26 -24 46 -24c33 0 58 20 73 59l173 -84c-25 -49 -61 -86 -109 -113c-49 -27 -104 -40 -167 -40c-53 0 -100 10 -139 31zM577 607h-140l-51 72l-79 -72h-140l142 162h188z" />
    </font>
</defs>
</svg>
